<?xml version="1.0" encoding="utf-8"?>

<svg version="1.1" xmlns="http://www.w3.org/2000/svg" xmlns:xlink="http://www.w3.org/1999/xlink" width="312" height="289">
<g transform="translate(170, 187)">
<circle fill="#FFFFFF" cx="2" cy="8" r="2" xmlns="http://www.w3.org/2000/svg" />
<circle fill="#FFFFFF" cx="8" cy="8" r="2" xmlns="http://www.w3.org/2000/svg" />
<circle fill="#FFFFFF" cx="14" cy="8" r="2" xmlns="http://www.w3.org/2000/svg" />
</g>

<g transform="translate(268, 266)">
<path fill="#DEDEDE" d="M1.1,3L0,4.2L4.5,9L9,4.2L7.9,3L4.5,6.6L1.1,3z" xmlns="http://www.w3.org/2000/svg" />
</g>

<g transform="translate(102, 187)">
<circle fill="#757575" cx="2" cy="8" r="2" xmlns="http://www.w3.org/2000/svg" />
<circle fill="#757575" cx="8" cy="8" r="2" xmlns="http://www.w3.org/2000/svg" />
<circle fill="#757575" cx="14" cy="8" r="2" xmlns="http://www.w3.org/2000/svg" />
</g>

<g transform="translate(228, 151)">
<path fill="#FFFFFF" d="M16,0H2C0.9,0,0,0.9,0,2v14c0,1.1,0.9,2,2,2h14c1.1,0,2-0.9,2-2V2C18,0.9,17.1,0,16,0z M7,14L2,9l1.4-1.4&#xA;	L7,11.2l7.6-7.6L16,5L7,14z" xmlns="http://www.w3.org/2000/svg" />
</g>

<g transform="translate(85, 187)">
<g xmlns="http://www.w3.org/2000/svg">
	<polygon fill="#757575" points="11,0 5,0 5,3 7,3 7,2 10,2 10,5 13,5 13,10 12,10 12,12 15,12 15,4 	" />
	<path fill="#757575" d="M1,4v12h10V8L7,4H1z M9,14H3V6h3v3h3V14z" />
</g>
</g>

<g transform="translate(170, 204)">
<g id="_1" xmlns="http://www.w3.org/2000/svg">
	<path id="Фигура_4" fill="#C2C2C2" d="M1,13V2l1-1h4l2,2h4l1,2v2H8v6H1z" />
	<path id="Фигура_3" fill="#757575" d="M10,11v2h2v2h2v-2h2v-2h-2V9h-2v2H10z M9,13v-3h2V8h4l1-3H4l-3,8H9z" />
</g>
</g>

<g transform="translate(221, 170)">
<polygon fill="#757575" points="13,4 12,3 11,3 8,6 5,3 4,3 3,4 3,5 6,8 3,11 3,12 4,13 5,13 8,10 11,13 12,13 13,12 13,11 10,8 &#xA;	13,5 " xmlns="http://www.w3.org/2000/svg" />
</g>

<g transform="translate(102, 221)">
<g id="_7" xmlns="http://www.w3.org/2000/svg">
	<path id="Фигура_12_копия" fill="#757575" d="M2,9h3V4h5v5h3l-5.5,6l0,0L2,9z M5,2v1h5V2H5z M5,0v1h5V0H5z" />
</g>
</g>

<g transform="translate(204, 221)">
<g id="_3" xmlns="http://www.w3.org/2000/svg">
	<path id="Прямоугольник_6" fill="#757575" d="M7,9l4.5,5l0,0L16,9H7z M10.7,9C9.9,6.7,7.3,5.4,5,6.3&#xA;		c-1.8,0.6-3,2.3-3,4.2V11H0v-0.5C0,6.9,2.9,4,6.5,4c3,0,5.6,2.1,6.3,5H10.7z" />
</g>
</g>

<g transform="translate(221, 221)">
<g id="_6" xmlns="http://www.w3.org/2000/svg">
	<path id="Прямоугольник_8" fill="#757575" d="M15,8H9l2.3-2.3c-1.2-1.8-3.7-2.3-5.5-1C5.3,5,4.9,5.5,4.6,6H2.4&#xA;		c1.1-3.1,4.5-4.8,7.6-3.7c1.1,0.4,2,1.1,2.7,2L15,2V8z M4.7,10.3c1.2,1.8,3.7,2.3,5.5,1c0.5-0.3,0.9-0.8,1.2-1.3h2.2&#xA;		c-1.1,3.1-4.5,4.8-7.6,3.7c-1.1-0.4-2-1.1-2.7-2L1,14V8h6L4.7,10.3z" />
</g>
</g>

<g transform="translate(255, 170)">
<g id="_2" xmlns="http://www.w3.org/2000/svg">
	<path id="Фигура_7" fill="#757575" d="M4,1v1l2,2l0,0V3h4v3h3v7H6v-1l-2-2v5h11V5l-4-4H4z M10,12H8l1-1l1-1V12z M8,10l-1,1&#xA;		L1,5V4l1-1h1l6,6L8,10z" />
</g>
</g>

<g transform="translate(153, 221)">
<g id="_8" xmlns="http://www.w3.org/2000/svg">
	<path id="Фигура_12" fill="#757575" d="M2,7h3v2H3v4h9V9h-2V7h4v8H1V7H2z M6,12V5H3l4.5-5L12,5H9v7H6" />
</g>
</g>

<g transform="translate(76, 132)">
<path fill="#DEDEDE" d="M16,0H2C0.9,0,0,0.9,0,2v14c0,1.1,0.9,2,2,2h14c1.1,0,2-0.9,2-2V2C18,0.9,17.1,0,16,0z M7,14L2,9l1.4-1.4&#xA;	L7,11.2l7.6-7.6L16,5L7,14z" xmlns="http://www.w3.org/2000/svg" />
</g>

<g transform="translate(133, 151)">
<path fill="#757575" d="M16,2v14H2V2H16 M16,0H2C0.9,0,0,0.9,0,2v14c0,1.1,0.9,2,2,2h14c1.1,0,2-0.9,2-2V2C18,0.9,17.1,0,16,0z" xmlns="http://www.w3.org/2000/svg" />
</g>

<g transform="translate(38, 132)">
<path fill="#FFFFFF" d="M16,0H2C0.9,0,0,0.9,0,2v14c0,1.1,0.9,2,2,2h14c1.1,0,2-0.9,2-2V2C18,0.9,17.1,0,16,0z M7,14L2,9l1.4-1.4&#xA;	L7,11.2l7.6-7.6L16,5L7,14z" xmlns="http://www.w3.org/2000/svg" />
</g>

<g transform="translate(266, 151)">
<path fill="#FFFFFF" d="M16,0H2C0.9,0,0,0.9,0,2v14c0,1.1,0.9,2,2,2h14c1.1,0,2-0.9,2-2V2C18,0.9,17.1,0,16,0z M17,15.2&#xD;&#xA;	c0,1-0.8,1.8-1.8,1.8H2.8c-1,0-1.8-0.8-1.8-1.8V2.8C1,1.8,1.8,1,2.8,1h12.4c1,0,1.8,0.8,1.8,1.8V15.2z" xmlns="http://www.w3.org/2000/svg" />
<path fill="#FFFFFF" d="M13.7,3H4.3C3.6,3,3,3.6,3,4.3v9.3C3,14.4,3.6,15,4.3,15h9.3c0.7,0,1.3-0.6,1.3-1.3V4.3C15,3.6,14.4,3,13.7,3z" xmlns="http://www.w3.org/2000/svg" />
</g>

<g transform="translate(209, 151)">
<path fill="#FFFFFF" d="M16,2v14H2V2H16 M16,0H2C0.9,0,0,0.9,0,2v14c0,1.1,0.9,2,2,2h14c1.1,0,2-0.9,2-2V2C18,0.9,17.1,0,16,0z" xmlns="http://www.w3.org/2000/svg" />
</g>

<g transform="translate(105, 111)">
<path fill="#FFFFFF" d="M10,0C4.5,0,0,4.5,0,10s4.5,10,10,10s10-4.5,10-10S15.5,0,10,0z M15,13.6L13.6,15L10,11.4L6.4,15L5,13.6L8.6,10L5,6.4L6.4,5&#xD;&#xA;	L10,8.6L13.6,5L15,6.4L11.4,10L15,13.6z" xmlns="http://www.w3.org/2000/svg" />
</g>

<g transform="translate(126, 111)">
<g xmlns="http://www.w3.org/2000/svg">
	<path fill="#FFFFFF" fill-rule="evenodd" clip-rule="evenodd" d="M11,17V3h2v14H11z M7,3h2v14H7V3z" />
</g>
</g>

<g transform="translate(42, 111)">
<g xmlns="http://www.w3.org/2000/svg">
	<path fill="#FFFFFF" fill-rule="evenodd" clip-rule="evenodd" d="M6,3v14l9-7L6,3z" />
</g>
</g>

<g transform="translate(208, 266)">
<path fill="#FFFFFF" d="M1.1,3L0,4.2L4.5,9L9,4.2L7.9,3L4.5,6.6L1.1,3z" xmlns="http://www.w3.org/2000/svg" />
</g>

<g transform="translate(150, 279)">
<path fill="#FFFFFF" d="M3,7.9L4.2,9L9,4.5L4.2,0L3,1l3.6,3.5L3,7.9z" xmlns="http://www.w3.org/2000/svg" />
</g>

<g transform="translate(302, 151)">
<path fill="#FFFFFF" d="M6,1.1L4.8,0L0,4.5L4.8,9L6,7.9L2.4,4.5L6,1.1z" xmlns="http://www.w3.org/2000/svg" />
</g>

<g transform="translate(288, 266)">
<path fill="#FFFFFF" d="M1.1,3L0,4.2L4.5,9L9,4.2L7.9,3L4.5,6.6L1.1,3z" xmlns="http://www.w3.org/2000/svg" />
</g>

<g transform="translate(76, 151)">
<path fill="#FFFFFF" d="M6,12L1.5,8L0,9.5L6,15L18,3.5L16.5,2L6,12z" xmlns="http://www.w3.org/2000/svg" />
</g>

<g transform="translate(100, 279)">
<path fill="#FFFFFF" d="M3,7.9L4.2,9L9,4.5L4.2,0L3,1l3.6,3.5L3,7.9z" xmlns="http://www.w3.org/2000/svg" />
</g>

<g transform="translate(50, 279)">
<path fill="#DEDEDE" d="M6,1.1L4.8,0L0,4.5L4.8,9L6,7.9L2.4,4.5L6,1.1z" xmlns="http://www.w3.org/2000/svg" />
</g>

<g transform="translate(298, 266)">
<path fill="#BDBDBD" d="M1.1,3L0,4.2L4.5,9L9,4.2L7.9,3L4.5,6.6L1.1,3z" xmlns="http://www.w3.org/2000/svg" />
</g>

<g transform="translate(140, 279)">
<path fill="#BDBDBD" d="M3,7.9L4.2,9L9,4.5L4.2,0L3,1l3.6,3.5L3,7.9z" xmlns="http://www.w3.org/2000/svg" />
</g>

<g transform="translate(80, 279)">
<path fill="#BDBDBD" d="M6,1.1L4.8,0L0,4.5L4.8,9L6,7.9L2.4,4.5L6,1.1z" xmlns="http://www.w3.org/2000/svg" />
</g>

<g transform="translate(34, 221)">
<g xmlns="http://www.w3.org/2000/svg">
	<polygon fill="#FFFFFF" points="11,0 5,0 5,3 7,3 7,2 10,2 10,5 13,5 13,10 12,10 12,12 15,12 15,4 	" />
	<path fill="#FFFFFF" d="M1,4v12h10V8L7,4H1z M9,14H3V6h3v3h3V14z" />
</g>
</g>

<g transform="translate(68, 170)">
<g id="_1" xmlns="http://www.w3.org/2000/svg">
	<path id="Фигура_4" fill="#FFFFFF" d="M1,13V2l1-1h4l2,2h4l1,2v2H8v6H1z" />
	<path id="Фигура_3" fill="#FFFFFF" d="M10,11v2h2v2h2v-2h2v-2h-2V9h-2v2H10z M9,13v-3h2V8h4l1-3H4l-3,8H9z" />
</g>
</g>

<g transform="translate(289, 187)">
<polygon fill="#FFFFFF" points="13,4 12,3 11,3 8,6 5,3 4,3 3,4 3,5 6,8 3,11 3,12 4,13 5,13 8,10 11,13 12,13 13,12 13,11 10,8 &#xA;	13,5 " xmlns="http://www.w3.org/2000/svg" />
</g>

<g transform="translate(68, 204)">
<g id="_7" xmlns="http://www.w3.org/2000/svg">
	<path id="Фигура_12_копия" fill="#FFFFFF" d="M2,9h3V4h5v5h3l-5.5,6l0,0L2,9z M5,2v1h5V2H5z M5,0v1h5V0H5z" />
</g>
</g>

<g transform="translate(255, 221)">
<g id="_3" xmlns="http://www.w3.org/2000/svg">
	<path id="Прямоугольник_6" fill="#FFFFFF" d="M7,9l4.5,5l0,0L16,9H7z M10.7,9C9.9,6.7,7.3,5.4,5,6.3&#xA;		c-1.8,0.6-3,2.3-3,4.2V11H0v-0.5C0,6.9,2.9,4,6.5,4c3,0,5.6,2.1,6.3,5H10.7z" />
</g>
</g>

<g transform="translate(187, 221)">
<g id="_6" xmlns="http://www.w3.org/2000/svg">
	<path id="Прямоугольник_8" fill="#FFFFFF" d="M15,8H9l2.3-2.3c-1.2-1.8-3.7-2.3-5.5-1C5.3,5,4.9,5.5,4.6,6H2.4&#xA;		c1.1-3.1,4.5-4.8,7.6-3.7c1.1,0.4,2,1.1,2.7,2L15,2V8z M4.7,10.3c1.2,1.8,3.7,2.3,5.5,1c0.5-0.3,0.9-0.8,1.2-1.3h2.2&#xA;		c-1.1,3.1-4.5,4.8-7.6,3.7c-1.1-0.4-2-1.1-2.7-2L1,14V8h6L4.7,10.3z" />
</g>
</g>

<g transform="translate(289, 204)">
<g id="_2" xmlns="http://www.w3.org/2000/svg">
	<path id="Фигура_7" fill="#FFFFFF" d="M4,1v1l2,2l0,0V3h4v3h3v7H6v-1l-2-2v5h11V5l-4-4H4z M10,12H8l1-1l1-1V12z M8,10l-1,1&#xA;		L1,5V4l1-1h1l6,6L8,10z" />
</g>
</g>

<g transform="translate(221, 187)">
<g id="_8" xmlns="http://www.w3.org/2000/svg">
	<path id="Фигура_12" fill="#FFFFFF" d="M2,7h3v2H3v4h9V9h-2V7h4v8H1V7H2z M6,12V5H3l4.5-5L12,5H9v7H6" />
</g>
</g>

<g transform="translate(17, 204)">
<circle fill="#ffffff" cx="2" cy="8" r="2" xmlns="http://www.w3.org/2000/svg" />
<circle fill="#ffffff" cx="8" cy="8" r="2" xmlns="http://www.w3.org/2000/svg" />
<circle fill="#ffffff" cx="14" cy="8" r="2" xmlns="http://www.w3.org/2000/svg" />
</g>

<g transform="translate(90, 279)">
<path fill="#FFFFFF" d="M1.1,3L0,4.2L4.5,9L9,4.2L7.9,3L4.5,6.6L1.1,3z" xmlns="http://www.w3.org/2000/svg" />
</g>

<g transform="translate(30, 279)">
<path fill="#DEDEDE" d="M3,7.9L4.2,9L9,4.5L4.2,0L3,1l3.6,3.5L3,7.9z" xmlns="http://www.w3.org/2000/svg" />
</g>

<g transform="translate(130, 279)">
<path fill="#DEDEDE" d="M6,1.1L4.8,0L0,4.5L4.8,9L6,7.9L2.4,4.5L6,1.1z" xmlns="http://www.w3.org/2000/svg" />
</g>

<g transform="translate(105, 238)">
<style type="text/css" xmlns="http://www.w3.org/2000/svg">
	.st0{fill:#757575;}
</style>
<polygon class="st0" points="13,6 4.4,6 7.2,3.2 5.8,1.8 0.6,7 0.6,7 0.6,7 5.8,12.2 7.2,10.8 4.4,8 13,8 " xmlns="http://www.w3.org/2000/svg" />
</g>

<g transform="translate(228, 266)">
<path fill="#FFFFFF" d="M1,2L0,3l4.5,5L9,3L8,2L4.5,5.8L1,2z" xmlns="http://www.w3.org/2000/svg" />
</g>

<g transform="translate(178, 266)">
<path fill="#FFFFFF" d="M8,7l1-1L4.5,1L0,6l1,1l3.5-3.8L8,7z" xmlns="http://www.w3.org/2000/svg" />
</g>

<g transform="translate(160, 279)">
<path fill="#DEDEDE" d="M1,2L0,3l4.5,5L9,3L8,2L4.5,5.8L1,2z" xmlns="http://www.w3.org/2000/svg" />
</g>

<g transform="translate(258, 266)">
<path fill="#DEDEDE" d="M8,7l1-1L4.5,1L0,6l1,1l3.5-3.8L8,7z" xmlns="http://www.w3.org/2000/svg" />
</g>

<g transform="translate(200, 279)">
<path fill="#FFFFFF" d="M1.1,3L0,4.2L4.5,9L9,4.2L7.9,3L4.5,6.6L1.1,3z" xmlns="http://www.w3.org/2000/svg" />
</g>

<g transform="translate(30, 238)">
<path fill="#FFFFFF" d="M5,13L0,8l2-2l3,3l7-7l2,2L5,13z" xmlns="http://www.w3.org/2000/svg" />
</g>

<g transform="translate(110, 279)">
<path fill="#FFFFFF" d="M3,7.9L4.2,9L9,4.5L4.2,0L3,1l3.6,3.5L3,7.9z" xmlns="http://www.w3.org/2000/svg" />
</g>

<g transform="translate(168, 266)">
<path fill="#FFFFFF" d="M6,1.1L4.8,0L0,4.5L4.8,9L6,7.9L2.4,4.5L6,1.1z" xmlns="http://www.w3.org/2000/svg" />
</g>

<g transform="translate(198, 266)">
<path fill="#FFFFFF" d="M1.1,3L0,4.2L4.5,9L9,4.2L7.9,3L4.5,6.6L1.1,3z" xmlns="http://www.w3.org/2000/svg" />
</g>

<g transform="translate(0, 279)">
<path fill="#FFFFFF" d="M3,7.9L4.2,9L9,4.5L4.2,0L3,1l3.6,3.5L3,7.9z" xmlns="http://www.w3.org/2000/svg" />
</g>

<g transform="translate(248, 266)">
<path fill="#FFFFFF" d="M6,1.1L4.8,0L0,4.5L4.8,9L6,7.9L2.4,4.5L6,1.1z" xmlns="http://www.w3.org/2000/svg" />
</g>

<g transform="translate(60, 279)">
<path fill="#FFFFFF" d="M3,7.9L4.2,9L9,4.5L4.2,0L3,1l3.6,3.5L3,7.9z" xmlns="http://www.w3.org/2000/svg" />
</g>

<g transform="translate(148, 266)">
<path fill="#FFFFFF" d="M3,7.9L4.2,9L9,4.5L4.2,0L3,1l3.6,3.5L3,7.9z" xmlns="http://www.w3.org/2000/svg" />
</g>

<g transform="translate(238, 266)">
<path fill="#FFFFFF" d="M3,7.9L4.2,9L9,4.5L4.2,0L3,1l3.6,3.5L3,7.9z" xmlns="http://www.w3.org/2000/svg" />
</g>

<g transform="translate(278, 266)">
<path fill="#FFFFFF" d="M3,7.9L4.2,9L9,4.5L4.2,0L3,1l3.6,3.5L3,7.9z" xmlns="http://www.w3.org/2000/svg" />
</g>

<g transform="translate(190, 279)">
<path fill="#FFFFFF" d="M3,7.9L4.2,9L9,4.5L4.2,0L3,1l3.6,3.5L3,7.9z" xmlns="http://www.w3.org/2000/svg" />
</g>

<g transform="translate(210, 279)">
<path fill="#757575" d="M3,7.9L4.2,9L9,4.5L4.2,0L3,1l3.6,3.5L3,7.9z" xmlns="http://www.w3.org/2000/svg" />
</g>

<g transform="translate(45, 238)">
<path fill="#BDBDBD" d="M7,7.5L2.5,3L1,4.5l6,6l6-6L11.5,3L7,7.5z" xmlns="http://www.w3.org/2000/svg" />
</g>

<g transform="translate(272, 170)">
<g xmlns="http://www.w3.org/2000/svg">
	<path fill="#bdbdbd" d="M1,14h12V4H1V14z M2,7h10v6H2V7z" />
	<polygon fill="#bdbdbd" points="4,1 4,3 5,3 5,2 15,2 15,10 14,10 14,11 16,11 16,1 	" />
</g>
</g>

<g transform="translate(0, 238)">
<path fill="#BDBDBD" d="M10,5l1,0l3-2v7l-3-2l-1,0l-4,3V8L0,6.5L6,5V2.1L10,5z" xmlns="http://www.w3.org/2000/svg" />
</g>

<g transform="translate(105, 266)">
<polygon fill="#FFFFFF" points="10,3 5,8 0,3 " xmlns="http://www.w3.org/2000/svg" />
</g>

<g transform="translate(152, 132)">
<g xmlns="http://www.w3.org/2000/svg">
	<path fill="#DEDEDE" d="M0,15h18v-2H0V15z M0,10h18V8H0V10z M0,3v2h18V3H0z" />
</g>
</g>

<g transform="translate(285, 151)">
<g xmlns="http://www.w3.org/2000/svg">
	<path fill="#DEDEDE" d="M7,0v12.2L1.4,6.6L0,8l8,8l8-8l-1.4-1.4L9,12.2V0L7,0z" />
</g>
</g>

<g transform="translate(136, 221)">
<g xmlns="http://www.w3.org/2000/svg">
	<path fill="#DEDEDE" d="M16,7H3.8l5.6-5.6L8,0L0,8l8,8l1.4-1.4L3.8,9H16V7z" />
</g>
</g>

<g transform="translate(187, 187)">
<g xmlns="http://www.w3.org/2000/svg">
	<path fill="#DEDEDE" d="M0,9h12.2l-5.6,5.6L8,16l8-8L8,0L6.6,1.4L12.2,7H0L0,9z" />
</g>
</g>

<g transform="translate(0, 221)">
<g xmlns="http://www.w3.org/2000/svg">
	<path fill="#DEDEDE" d="M9,16V3.8l5.6,5.6L16,8L8,0L0,8l1.4,1.4L7,3.8V16H9z" />
</g>
</g>

<g transform="translate(266, 132)">
<g xmlns="http://www.w3.org/2000/svg">
	<path fill="#DEDEDE" d="M0,15h18v-2H0V15z M0,10h18V8H0V10z M0,3v2h18V3H0z" />
</g>
</g>

<g transform="translate(119, 170)">
<g xmlns="http://www.w3.org/2000/svg">
	<path fill="#DEDEDE" d="M7,0v12.2L1.4,6.6L0,8l8,8l8-8l-1.4-1.4L9,12.2V0L7,0z" />
</g>
</g>

<g transform="translate(187, 204)">
<g xmlns="http://www.w3.org/2000/svg">
	<path fill="#DEDEDE" d="M16,7H3.8l5.6-5.6L8,0L0,8l8,8l1.4-1.4L3.8,9H16V7z" />
</g>
</g>

<g transform="translate(136, 204)">
<g xmlns="http://www.w3.org/2000/svg">
	<path fill="#DEDEDE" d="M0,9h12.2l-5.6,5.6L8,16l8-8L8,0L6.6,1.4L12.2,7H0L0,9z" />
</g>
</g>

<g transform="translate(153, 187)">
<g xmlns="http://www.w3.org/2000/svg">
	<path fill="#DEDEDE" d="M9,16V3.8l5.6,5.6L16,8L8,0L0,8l1.4,1.4L7,3.8V16H9z" />
</g>
</g>

<g transform="translate(204, 187)">
<g xmlns="http://www.w3.org/2000/svg">
	<path fill="#757575" d="M15,2.4L13.6,1L8,6.6L2.4,1L1,2.4L6.6,8L1,13.6L2.4,15L8,9.4l5.6,5.6l1.4-1.4L9.4,8L15,2.4z" />
</g>
</g>

<g transform="translate(153, 204)">
<g xmlns="http://www.w3.org/2000/svg">
	<path fill="#757575" d="M9,16V3.8l5.6,5.6L16,8L8,0L0,8l1.4,1.4L7,3.8V16H9z" />
</g>
</g>

<g transform="translate(102, 170)">
<g xmlns="http://www.w3.org/2000/svg">
	<path fill="#757575" d="M0,9h12.2l-5.6,5.6L8,16l8-8L8,0L6.6,1.4L12.2,7H0L0,9z" />
</g>
</g>

<g transform="translate(85, 221)">
<g xmlns="http://www.w3.org/2000/svg">
	<path fill="#757575" d="M16,7H3.8l5.6-5.6L8,0L0,8l8,8l1.4-1.4L3.8,9H16V7z" />
</g>
</g>

<g transform="translate(51, 187)">
<g xmlns="http://www.w3.org/2000/svg">
	<path fill="#757575" d="M7,0v12.2L1.4,6.6L0,8l8,8l8-8l-1.4-1.4L9,12.2V0L7,0z" />
</g>
</g>

<g transform="translate(119, 221)">
<g xmlns="http://www.w3.org/2000/svg">
	<path fill="#DEDEDE" d="M15,2.4L13.6,1L8,6.6L2.4,1L1,2.4L6.6,8L1,13.6L2.4,15L8,9.4l5.6,5.6l1.4-1.4L9.4,8L15,2.4z" />
</g>
</g>

<g transform="translate(272, 187)">
<g xmlns="http://www.w3.org/2000/svg">
	<path fill="#DEDEDE" d="M9,16V3.8l5.6,5.6L16,8L8,0L0,8l1.4,1.4L7,3.8V16H9z" />
</g>
</g>

<g transform="translate(255, 204)">
<g xmlns="http://www.w3.org/2000/svg">
	<path fill="#DEDEDE" d="M0,9h12.2l-5.6,5.6L8,16l8-8L8,0L6.6,1.4L12.2,7H0L0,9z" />
</g>
</g>

<g transform="translate(272, 204)">
<g xmlns="http://www.w3.org/2000/svg">
	<path fill="#DEDEDE" d="M16,7H3.8l5.6-5.6L8,0L0,8l8,8l1.4-1.4L3.8,9H16V7z" />
</g>
</g>

<g transform="translate(289, 170)">
<g xmlns="http://www.w3.org/2000/svg">
	<path fill="#DEDEDE" d="M7,0v12.2L1.4,6.6L0,8l8,8l8-8l-1.4-1.4L9,12.2V0L7,0z" />
</g>
</g>

<g transform="translate(68, 221)">
<g xmlns="http://www.w3.org/2000/svg">
	<path fill="#DEDEDE" d="M15,2.4L13.6,1L8,6.6L2.4,1L1,2.4L6.6,8L1,13.6L2.4,15L8,9.4l5.6,5.6l1.4-1.4L9.4,8L15,2.4z" />
</g>
</g>

<g transform="translate(34, 187)">
<g xmlns="http://www.w3.org/2000/svg">
	<path fill="#DEDEDE" d="M9,16V3.8l5.6,5.6L16,8L8,0L0,8l1.4,1.4L7,3.8V16H9z" />
</g>
</g>

<g transform="translate(238, 204)">
<g xmlns="http://www.w3.org/2000/svg">
	<path fill="#DEDEDE" d="M0,9h12.2l-5.6,5.6L8,16l8-8L8,0L6.6,1.4L12.2,7H0L0,9z" />
</g>
</g>

<g transform="translate(238, 221)">
<g xmlns="http://www.w3.org/2000/svg">
	<path fill="#DEDEDE" d="M16,7H3.8l5.6-5.6L8,0L0,8l8,8l1.4-1.4L3.8,9H16V7z" />
</g>
</g>

<g transform="translate(85, 170)">
<g xmlns="http://www.w3.org/2000/svg">
	<path fill="#DEDEDE" d="M7,0v12.2L1.4,6.6L0,8l8,8l8-8l-1.4-1.4L9,12.2V0L7,0z" />
</g>
</g>

<g transform="translate(61, 266)">
<polygon fill="#FFFFFF" points="10,3 5,8 0,3 " xmlns="http://www.w3.org/2000/svg" />
</g>

<g transform="translate(259, 279)">
<polygon fill="#FFFFFF" points="7,0 0,0 3.5,4 " xmlns="http://www.w3.org/2000/svg" />
</g>

<g transform="translate(304, 132)">
<polygon fill="#FFFFFF" class="st0" points="7,3 0,3 3.5,7 " xmlns="http://www.w3.org/2000/svg" />
<rect fill="#FFFFFF" x="0" y="1" class="st0" width="7" height="1" xmlns="http://www.w3.org/2000/svg" />
</g>

<g transform="translate(275, 279)">
<polygon fill="#FFFFFF" points="7,4 0,4 3.5,0 " xmlns="http://www.w3.org/2000/svg" />
</g>

<g transform="translate(20, 279)">
<path fill="#FFFFFF" d="M1,2L0,3l4.5,5L9,3L8,2L4.5,5.8L1,2z" xmlns="http://www.w3.org/2000/svg" />
</g>

<g transform="translate(70, 279)">
<path fill="#FFFFFF" d="M1,2L0,3l4.5,5L9,3L8,2L4.5,5.8L1,2z" xmlns="http://www.w3.org/2000/svg" />
</g>

<g transform="translate(188, 266)">
<path fill="#FFFFFF" d="M1,2L0,3l4.5,5L9,3L8,2L4.5,5.8L1,2z" xmlns="http://www.w3.org/2000/svg" />
</g>

<g transform="translate(10, 279)">
<path fill="#FFFFFF" d="M1,2L0,3l4.5,5L9,3L8,2L4.5,5.8L1,2z" xmlns="http://www.w3.org/2000/svg" />
</g>

<g transform="translate(120, 279)">
<path fill="#FFFFFF" d="M1,2L0,3l4.5,5L9,3L8,2L4.5,5.8L1,2z" xmlns="http://www.w3.org/2000/svg" />
</g>

<g transform="translate(288, 238)">
<path fill="#FFFFFF" d="M6,5l4.5,4.5L12,8L6,2L0,8l1.5,1.5L6,5z" xmlns="http://www.w3.org/2000/svg" />
</g>

<g transform="translate(195, 253)">
<path fill="#FFFFFF" d="M6,5l4.5,4.5L12,8L6,2L0,8l1.5,1.5L6,5z" xmlns="http://www.w3.org/2000/svg" />
</g>

<g transform="translate(0, 253)">
<path fill="#FFFFFF" d="M1.5,2.5L0,4l6,6l6-6l-1.5-1.5L6,7L1.5,2.5z" xmlns="http://www.w3.org/2000/svg" />
</g>

<g transform="translate(247, 253)">
<path fill="#FFFFFF" d="M1.5,2.5L0,4l6,6l6-6l-1.5-1.5L6,7L1.5,2.5z" xmlns="http://www.w3.org/2000/svg" />
</g>

<g transform="translate(208, 253)">
<path fill="#757575" d="M1.5,2.5L0,4l6,6l6-6l-1.5-1.5L6,7L1.5,2.5z" xmlns="http://www.w3.org/2000/svg" />
</g>

<g transform="translate(247, 132)">
<path fill="#FFFFFF" d="M16,0H2C0.9,0,0,0.9,0,2v14c0,1.1,0.9,2,2,2h14c1.1,0,2-0.9,2-2V2C18,0.9,17.1,0,16,0z M7,14L2,9l1.4-1.4&#xA;	L7,11.2l7.6-7.6L16,5L7,14z" xmlns="http://www.w3.org/2000/svg" />
</g>

<g transform="translate(190, 151)">
<path fill="#FFFFFF" d="M16,0H2C0.9,0,0,0.9,0,2v14c0,1.1,0.9,2,2,2h14c1.1,0,2-0.9,2-2V2C18,0.9,17.1,0,16,0z M17,15.2&#xD;&#xA;	c0,1-0.8,1.8-1.8,1.8H2.8c-1,0-1.8-0.8-1.8-1.8V2.8C1,1.8,1.8,1,2.8,1h12.4c1,0,1.8,0.8,1.8,1.8V15.2z" xmlns="http://www.w3.org/2000/svg" />
<path fill="#FFFFFF" d="M13.7,3H4.3C3.6,3,3,3.6,3,4.3v9.3C3,14.4,3.6,15,4.3,15h9.3c0.7,0,1.3-0.6,1.3-1.3V4.3C15,3.6,14.4,3,13.7,3z" xmlns="http://www.w3.org/2000/svg" />
</g>

<g transform="translate(57, 132)">
<path fill="#FFFFFF" d="M16,2v14H2V2H16 M16,0H2C0.9,0,0,0.9,0,2v14c0,1.1,0.9,2,2,2h14c1.1,0,2-0.9,2-2V2C18,0.9,17.1,0,16,0z" xmlns="http://www.w3.org/2000/svg" />
</g>

<g transform="translate(95, 132)">
<path fill="#FFFFFF" d="M16,0H2C0.9,0,0,0.9,0,2v14c0,1.1,0.9,2,2,2h14c1.1,0,2-0.9,2-2V2C18,0.9,17.1,0,16,0z M7,14L2,9l1.4-1.4&#xD;&#xA;	L7,11.2l7.6-7.6L16,5L7,14z" xmlns="http://www.w3.org/2000/svg" />
</g>

<g transform="translate(247, 151)">
<path fill="#FFFFFF" d="M16,0H2C0.9,0,0,0.9,0,2v14c0,1.1,0.9,2,2,2h14c1.1,0,2-0.9,2-2V2C18,0.9,17.1,0,16,0z M17,15.2&#xD;&#xA;	c0,1-0.8,1.8-1.8,1.8H2.8c-1,0-1.8-0.8-1.8-1.8V2.8C1,1.8,1.8,1,2.8,1h12.4c1,0,1.8,0.8,1.8,1.8V15.2z" xmlns="http://www.w3.org/2000/svg" />
<path fill="#FFFFFF" d="M13.7,3H4.3C3.6,3,3,3.6,3,4.3v9.3C3,14.4,3.6,15,4.3,15h9.3c0.7,0,1.3-0.6,1.3-1.3V4.3C15,3.6,14.4,3,13.7,3z" xmlns="http://www.w3.org/2000/svg" />
</g>

<g transform="translate(292, 111)">
<path fill="#FFFFFF" d="M16,2v14H2V2H16 M16,0H2C0.9,0,0,0.9,0,2v14c0,1.1,0.9,2,2,2h14c1.1,0,2-0.9,2-2V2C18,0.9,17.1,0,16,0z" xmlns="http://www.w3.org/2000/svg" />
</g>

<g transform="translate(119, 187)">
<path fill="#FCFCFC" fill-rule="evenodd" clip-rule="evenodd" d="M0,1l1-1h5l1,2h8l1,1v10l-1,1H1l-1-1V1z" xmlns="http://www.w3.org/2000/svg" />
</g>

<g transform="translate(136, 187)">
<path fill="#FCFCFC" d="M0,1l1-1h5l1,2h8l1,1v10l-1,1H1l-1-1V1z" xmlns="http://www.w3.org/2000/svg" />
<g xmlns="http://www.w3.org/2000/svg">
	<g>
		<path fill="#757575" d="M14,7h-1V5l-1-1h-1l-1,1v2H9L8,8v4l1,1h5l1-1V8L14,7z M12,12h-1v-2h1V12z M12,7h-1V5h1V7z" />
	</g>
</g>
<circle fill="#FCFCFC" cx="11.5" cy="10" r="1" xmlns="http://www.w3.org/2000/svg" />
</g>

<g transform="translate(0, 151)">
<path fill="#DEDEDE" d="M16,0H2C0.9,0,0,0.9,0,2v14c0,1.1,0.9,2,2,2h14c1.1,0,2-0.9,2-2V2C18,0.9,17.1,0,16,0z M7,14L2,9l1.4-1.4&#xD;&#xA;	L7,11.2l7.6-7.6L16,5L7,14z" xmlns="http://www.w3.org/2000/svg" />
</g>

<g transform="translate(152, 151)">
<path fill="#bdbdbd" d="M16,0H2C0.9,0,0,0.9,0,2v14c0,1.1,0.9,2,2,2h14c1.1,0,2-0.9,2-2V2C18,0.9,17.1,0,16,0z M7,14L2,9l1.4-1.4&#xD;&#xA;	L7,11.2l7.6-7.6L16,5L7,14z" xmlns="http://www.w3.org/2000/svg" />
</g>

<g transform="translate(133, 132)">
<path fill="#DEDEDE" d="M16,0H2C0.9,0,0,0.9,0,2v14c0,1.1,0.9,2,2,2h14c1.1,0,2-0.9,2-2V2C18,0.9,17.1,0,16,0z M17,15.2&#xD;&#xA;	c0,1-0.8,1.8-1.8,1.8H2.8c-1,0-1.8-0.8-1.8-1.8V2.8C1,1.8,1.8,1,2.8,1h12.4c1,0,1.8,0.8,1.8,1.8V15.2z" xmlns="http://www.w3.org/2000/svg" />
<path fill="#DEDEDE" d="M13.7,3H4.3C3.6,3,3,3.6,3,4.3v9.3C3,14.4,3.6,15,4.3,15h9.3c0.7,0,1.3-0.6,1.3-1.3V4.3C15,3.6,14.4,3,13.7,3z" xmlns="http://www.w3.org/2000/svg" />
</g>

<g transform="translate(95, 151)">
<path fill="#bdbdbd" d="M16,0H2C0.9,0,0,0.9,0,2v14c0,1.1,0.9,2,2,2h14c1.1,0,2-0.9,2-2V2C18,0.9,17.1,0,16,0z M17,15.2&#xD;&#xA;	c0,1-0.8,1.8-1.8,1.8H2.8c-1,0-1.8-0.8-1.8-1.8V2.8C1,1.8,1.8,1,2.8,1h12.4c1,0,1.8,0.8,1.8,1.8V15.2z" xmlns="http://www.w3.org/2000/svg" />
<path fill="#bdbdbd" d="M13.7,3H4.3C3.6,3,3,3.6,3,4.3v9.3C3,14.4,3.6,15,4.3,15h9.3c0.7,0,1.3-0.6,1.3-1.3V4.3C15,3.6,14.4,3,13.7,3z" xmlns="http://www.w3.org/2000/svg" />
</g>

<g transform="translate(57, 151)">
<path fill="#757575" d="M16,2v14H2V2H16 M16,0H2C0.9,0,0,0.9,0,2v14c0,1.1,0.9,2,2,2h14c1.1,0,2-0.9,2-2V2C18,0.9,17.1,0,16,0z" xmlns="http://www.w3.org/2000/svg" />
</g>

<g transform="translate(285, 132)">
<path fill="#bdbdbd" d="M16,2v14H2V2H16 M16,0H2C0.9,0,0,0.9,0,2v14c0,1.1,0.9,2,2,2h14c1.1,0,2-0.9,2-2V2C18,0.9,17.1,0,16,0z" xmlns="http://www.w3.org/2000/svg" />
</g>

<g transform="translate(306, 9)">
<polygon fill="#757575" points="0,0 0,7 4,3.5 " xmlns="http://www.w3.org/2000/svg" />
</g>

<g transform="translate(153, 170)">
<g id="_9" xmlns="http://www.w3.org/2000/svg">
	<path id="Фигура_13" fill="#757575" d="M13,11l-4,0V7h4L7.5,1l0,0L2,7h4v7h7V11z" />
</g>
</g>

<g transform="translate(238, 170)">
<g id="_9" xmlns="http://www.w3.org/2000/svg">
	<path id="Фигура_13" fill="#bdbdbd" d="M13,11l-4,0V7h4L7.5,1l0,0L2,7h4v7h7V11z" />
</g>
</g>

<g transform="translate(238, 187)">
<g id="_9" xmlns="http://www.w3.org/2000/svg">
	<path id="Фигура_13" fill="#FFFFFF" d="M13,11l-4,0V7h4L7.5,1l0,0L2,7h4v7h7V11z" />
</g>
</g>

<g transform="translate(170, 221)">
<g xmlns="http://www.w3.org/2000/svg">
	<polygon fill="#757575" points="11,0 5,0 5,3 7,3 7,2 10,2 10,5 13,5 13,10 12,10 12,12 15,12 15,4 	" />
	<path fill="#757575" d="M1,4v12h10V8L7,4H1z M9,14H3V6h3v3h3V14z" />
</g>
</g>

<g transform="translate(204, 170)">
<g xmlns="http://www.w3.org/2000/svg">
	<polygon fill="#bdbdbd" points="11,0 5,0 5,3 7,3 7,2 10,2 10,5 13,5 13,10 12,10 12,12 15,12 15,4 	" />
	<path fill="#bdbdbd" d="M1,4v12h10V8L7,4H1z M9,14H3V6h3v3h3V14z" />
</g>
</g>

<g transform="translate(34, 204)">
<g id="_1" xmlns="http://www.w3.org/2000/svg">
	<path id="Фигура_4" fill="#C2C2C2" d="M1,13V2l1-1h4l2,2h4l1,2v2H8v6H1z" />
	<path id="Фигура_3" fill="#757575" d="M10,11v2h2v2h2v-2h2v-2h-2V9h-2v2H10z M9,13v-3h2V8h4l1-3H4l-3,8H9z" />
</g>
</g>

<g transform="translate(51, 221)">
<g id="_1" xmlns="http://www.w3.org/2000/svg">
	<path id="Фигура_4" fill="#bdbdbd" d="M1,13V2l1-1h4l2,2h4l1,2v2H8v6H1z" />
	<path id="Фигура_3" fill="#bdbdbd" d="M10,11v2h2v2h2v-2h2v-2h-2V9h-2v2H10z M9,13v-3h2V8h4l1-3H4l-3,8H9z" />
</g>
</g>

<g transform="translate(0, 204)">
<polygon fill="#757575" points="13,4 12,3 11,3 8,6 5,3 4,3 3,4 3,5 6,8 3,11 3,12 4,13 5,13 8,10 11,13 12,13 13,12 13,11 10,8 &#xD;&#xA;	13,5 " xmlns="http://www.w3.org/2000/svg" />
</g>

<g transform="translate(17, 170)">
<polygon fill="#bdbdbd" points="13,4 12,3 11,3 8,6 5,3 4,3 3,4 3,5 6,8 3,11 3,12 4,13 5,13 8,10 11,13 12,13 13,12 13,11 10,8 &#xD;&#xA;	13,5 " xmlns="http://www.w3.org/2000/svg" />
</g>

<g transform="translate(34, 170)">
<g id="_7" xmlns="http://www.w3.org/2000/svg">
	<path id="Фигура_12_копия" fill="#757575" d="M2,9h3V4h5v5h3l-5.5,6l0,0L2,9z M5,2v1h5V2H5z M5,0v1h5V0H5z" />
</g>
</g>

<g transform="translate(255, 187)">
<g id="_7" xmlns="http://www.w3.org/2000/svg">
	<path id="Фигура_12_копия" fill="#bdbdbd" d="M2,9h3V4h5v5h3l-5.5,6l0,0L2,9z M5,2v1h5V2H5z M5,0v1h5V0H5z" />
</g>
</g>

<g transform="translate(190, 132)">
<g xmlns="http://www.w3.org/2000/svg">
	<path fill="#757576" d="M0,15h18v-2H0V15z M0,10h18V8H0V10z M0,3v2h18V3H0z" />
</g>
</g>

<g transform="translate(272, 221)">
<path fill="#757575" fill-rule="evenodd" clip-rule="evenodd" d="M0,1l1-1h5l1,2h8l1,1v10l-1,1H1l-1-1V1z" xmlns="http://www.w3.org/2000/svg" />
</g>

<g transform="translate(51, 204)">
<path fill="#757575" d="M0,1l1-1h5l1,2h8l1,1v10l-1,1H1l-1-1V1z" xmlns="http://www.w3.org/2000/svg" />
<g xmlns="http://www.w3.org/2000/svg">
	<g>
		<path fill="#FCFCFC" d="M14,7h-1V5l-1-1h-1l-1,1v2H9L8,8v4l1,1h5l1-1V8L14,7z M12,12h-1v-2h1V12z M12,7h-1V5h1V7z" />
	</g>
</g>
<circle fill="#757575" cx="11.5" cy="10" r="1" xmlns="http://www.w3.org/2000/svg" />
</g>

<g transform="translate(17, 187)">
<g id="_3" xmlns="http://www.w3.org/2000/svg">
	<path id="Прямоугольник_6" fill="#757575" d="M7,9l4.5,5l0,0L16,9H7z M10.7,9C9.9,6.7,7.3,5.4,5,6.3&#xD;&#xA;		c-1.8,0.6-3,2.3-3,4.2V11H0v-0.5C0,6.9,2.9,4,6.5,4c3,0,5.6,2.1,6.3,5H10.7z" />
</g>
</g>

<g transform="translate(187, 170)">
<g id="_3" xmlns="http://www.w3.org/2000/svg">
	<path id="Прямоугольник_6" fill="#bdbdbd" d="M7,9l4.5,5l0,0L16,9H7z M10.7,9C9.9,6.7,7.3,5.4,5,6.3&#xD;&#xA;		c-1.8,0.6-3,2.3-3,4.2V11H0v-0.5C0,6.9,2.9,4,6.5,4c3,0,5.6,2.1,6.3,5H10.7z" />
</g>
</g>

<g transform="translate(136, 170)">
<g id="_6" xmlns="http://www.w3.org/2000/svg">
	<path id="Прямоугольник_8" fill="#757575" d="M15,8H9l2.3-2.3c-1.2-1.8-3.7-2.3-5.5-1C5.3,5,4.9,5.5,4.6,6H2.4&#xD;&#xA;		c1.1-3.1,4.5-4.8,7.6-3.7c1.1,0.4,2,1.1,2.7,2L15,2V8z M4.7,10.3c1.2,1.8,3.7,2.3,5.5,1c0.5-0.3,0.9-0.8,1.2-1.3h2.2&#xD;&#xA;		c-1.1,3.1-4.5,4.8-7.6,3.7c-1.1-0.4-2-1.1-2.7-2L1,14V8h6L4.7,10.3z" />
</g>
</g>

<g transform="translate(0, 170)">
<g id="_6" xmlns="http://www.w3.org/2000/svg">
	<path id="Прямоугольник_8" fill="#bdbdbd" d="M15,8H9l2.3-2.3c-1.2-1.8-3.7-2.3-5.5-1C5.3,5,4.9,5.5,4.6,6H2.4&#xD;&#xA;		c1.1-3.1,4.5-4.8,7.6-3.7c1.1,0.4,2,1.1,2.7,2L15,2V8z M4.7,10.3c1.2,1.8,3.7,2.3,5.5,1c0.5-0.3,0.9-0.8,1.2-1.3h2.2&#xD;&#xA;		c-1.1,3.1-4.5,4.8-7.6,3.7c-1.1-0.4-2-1.1-2.7-2L1,14V8h6L4.7,10.3z" />
</g>
</g>

<g transform="translate(0, 187)">
<g id="_2" xmlns="http://www.w3.org/2000/svg">
	<path id="Фигура_7" fill="#757575" d="M4,1v1l2,2l0,0V3h4v3h3v7H6v-1l-2-2v5h11V5l-4-4H4z M10,12H8l1-1l1-1V12z M8,10l-1,1&#xD;&#xA;		L1,5V4l1-1h1l6,6L8,10z" />
</g>
</g>

<g transform="translate(102, 204)">
<g id="_2" xmlns="http://www.w3.org/2000/svg">
	<path id="Фигура_7" fill="#bdbdbd" d="M4,1v1l2,2l0,0V3h4v3h3v7H6v-1l-2-2v5h11V5l-4-4H4z M10,12H8l1-1l1-1V12z M8,10l-1,1&#xD;&#xA;		L1,5V4l1-1h1l6,6L8,10z" />
</g>
</g>

<g transform="translate(51, 170)">
<g id="_8" xmlns="http://www.w3.org/2000/svg">
	<path id="Фигура_12" fill="#757575" d="M2,7h3v2H3v4h9V9h-2V7h4v8H1V7H2z M6,12V5H3l4.5-5L12,5H9v7H6" />
</g>
</g>

<g transform="translate(85, 204)">
<g id="_8" xmlns="http://www.w3.org/2000/svg">
	<path id="Фигура_12" fill="#bdbdbd" d="M2,7h3v2H3v4h9V9h-2V7h4v8H1V7H2z M6,12V5H3l4.5-5L12,5H9v7H6" />
</g>
</g>

<g transform="translate(168, 111)">
<path fill="#FFFFFF" d="M10,0C4.5,0,0,4.5,0,10s4.5,10,10,10s10-4.5,10-10S15.5,0,10,0z M15,13.6L13.6,15L10,11.4L6.4,15L5,13.6L8.6,10L5,6.4L6.4,5&#xD;&#xA;	L10,8.6L13.6,5L15,6.4L11.4,10L15,13.6z" xmlns="http://www.w3.org/2000/svg" />
</g>

<g transform="translate(13, 253)">
<g xmlns="http://www.w3.org/2000/svg">
	<path fill="#FFFFFF" fill-rule="evenodd" clip-rule="evenodd" d="M6,2.7L1.4,7L0,5.7L6,0l6,5.7L10.6,7L6,2.7z M12,10.7L10.6,12L6,7.6L1.4,12L0,10.7L6,5L12,10.7z" />
</g>
</g>

<g transform="translate(222, 0)">
<g xmlns="http://www.w3.org/2000/svg">
	<path fill="#FFFFFF" clip-rule="evenodd" fill-rule="evenodd" d="M18,0c9.9,0,18,8.1,18,18c0,9.9-8.1,18-18,18C8.1,36,0,27.9,0,18C0,8.1,8.1,0,18,0z" />
</g>
<g xmlns="http://www.w3.org/2000/svg">
	<path fill="#757575" d="M19.3,18L15,22.6l1.4,1.4l5.7-6l-5.7-6L15,13.4L19.3,18z" />
</g>
</g>

<g transform="translate(111, 37)">
<g xmlns="http://www.w3.org/2000/svg">
	<path fill="#DADADA" clip-rule="evenodd" fill-rule="evenodd" d="M18,0c9.9,0,18,8.1,18,18c0,9.9-8.1,18-18,18C8.1,36,0,27.9,0,18C0,8.1,8.1,0,18,0z" />
</g>
<g xmlns="http://www.w3.org/2000/svg">
	<path fill="#757575" d="M19.3,18L15,22.6l1.4,1.4l5.7-6l-5.7-6L15,13.4L19.3,18z" />
</g>
</g>

<g transform="translate(148, 0)">
<g xmlns="http://www.w3.org/2000/svg">
	<path fill="#DEDEDE" clip-rule="evenodd" fill-rule="evenodd" d="M18,0c9.9,0,18,8.1,18,18c0,9.9-8.1,18-18,18C8.1,36,0,27.9,0,18C0,8.1,8.1,0,18,0z" />
</g>
<g xmlns="http://www.w3.org/2000/svg">
	<path fill="#FFFFFF" d="M19.3,18L15,22.6l1.4,1.4l5.7-6l-5.7-6L15,13.4L19.3,18z" />
</g>
</g>

<g transform="translate(37, 37)">
<g xmlns="http://www.w3.org/2000/svg">
	<path fill="#DEDEDE" clip-rule="evenodd" fill-rule="evenodd" d="M18,0c9.9,0,18,8.1,18,18c0,9.9-8.1,18-18,18C8.1,36,0,27.9,0,18C0,8.1,8.1,0,18,0z" />
</g>
<g xmlns="http://www.w3.org/2000/svg">
	<path fill="#FFFFFF" d="M19.3,18L15,22.6l1.4,1.4l5.7-6l-5.7-6L15,13.4L19.3,18z" />
</g>
</g>

<g transform="translate(147, 111)">
<g xmlns="http://www.w3.org/2000/svg">
	<path fill="#FFFFFF" fill-rule="evenodd" clip-rule="evenodd" d="M11,17V3h2v14H11z M7,3h2v14H7V3z" />
</g>
</g>

<g transform="translate(189, 111)">
<g xmlns="http://www.w3.org/2000/svg">
	<path fill="#FFFFFF" fill-rule="evenodd" clip-rule="evenodd" d="M6,3v14l9-7L6,3z" />
</g>
</g>

<g transform="translate(148, 37)">
<g xmlns="http://www.w3.org/2000/svg">
	<path fill="#FFFFFF" clip-rule="evenodd" fill-rule="evenodd" d="M18,0c9.9,0,18,8.1,18,18c0,9.9-8.1,18-18,18C8.1,36,0,27.9,0,18C0,8.1,8.1,0,18,0z" />
</g>
<g xmlns="http://www.w3.org/2000/svg">
	<path fill="#757575" d="M21,13.4L19.7,12L14,18l5.7,6l1.4-1.4L16.7,18L21,13.4z" />
</g>
</g>

<g transform="translate(185, 74)">
<g xmlns="http://www.w3.org/2000/svg">
	<path fill="#DADADA" clip-rule="evenodd" fill-rule="evenodd" d="M18,0c9.9,0,18,8.1,18,18c0,9.9-8.1,18-18,18C8.1,36,0,27.9,0,18C0,8.1,8.1,0,18,0z" />
</g>
<g xmlns="http://www.w3.org/2000/svg">
	<path fill="#757575" d="M21,13.4L19.7,12L14,18l5.7,6l1.4-1.4L16.7,18L21,13.4z" />
</g>
</g>

<g transform="translate(259, 74)">
<g xmlns="http://www.w3.org/2000/svg">
	<path fill="#DEDEDE" clip-rule="evenodd" fill-rule="evenodd" d="M18,0c9.9,0,18,8.1,18,18c0,9.9-8.1,18-18,18C8.1,36,0,27.9,0,18C0,8.1,8.1,0,18,0z" />
</g>
<g xmlns="http://www.w3.org/2000/svg">
	<path fill="#FFFFFF" d="M21,13.4L19.7,12L14,18l5.7,6l1.4-1.4L16.7,18L21,13.4z" />
</g>
</g>

<g transform="translate(37, 74)">
<g xmlns="http://www.w3.org/2000/svg">
	<path fill="#DEDEDE" clip-rule="evenodd" fill-rule="evenodd" d="M18,0c9.9,0,18,8.1,18,18c0,9.9-8.1,18-18,18C8.1,36,0,27.9,0,18C0,8.1,8.1,0,18,0z" />
</g>
<g xmlns="http://www.w3.org/2000/svg">
	<path fill="#FFFFFF" d="M21,13.4L19.7,12L14,18l5.7,6l1.4-1.4L16.7,18L21,13.4z" />
</g>
</g>

<g transform="translate(0, 111)">
<path fill="#767676" d="M10,0C4.5,0,0,4.5,0,10c0,5.5,4.5,10,10,10s10-4.5,10-10C20,4.5,15.5,0,10,0z M10,18c-4.4,0-8-3.6-8-8s3.6-8,8-8s8,3.6,8,8&#xD;&#xA;	S14.4,18,10,18z" xmlns="http://www.w3.org/2000/svg" />
</g>

<g transform="translate(210, 111)">
<path fill="#bdbdbd" d="M10,0C4.5,0,0,4.5,0,10c0,5.5,4.5,10,10,10s10-4.5,10-10C20,4.5,15.5,0,10,0z M10,18c-4.4,0-8-3.6-8-8s3.6-8,8-8s8,3.6,8,8&#xD;&#xA;	S14.4,18,10,18z" xmlns="http://www.w3.org/2000/svg" />
</g>

<g transform="translate(63, 111)">
<path fill="#767676" d="M10,0C4.5,0,0,4.5,0,10c0,5.5,4.5,10,10,10s10-4.5,10-10C20,4.5,15.5,0,10,0z M10,18c-4.4,0-8-3.6-8-8s3.6-8,8-8s8,3.6,8,8&#xD;&#xA;	S14.4,18,10,18z" xmlns="http://www.w3.org/2000/svg" />
</g>

<g transform="translate(252, 111)">
<g xmlns="http://www.w3.org/2000/svg">
	<path fill="#DEDEDE" d="M10,5c-2.8,0-5,2.2-5,5c0,2.8,2.2,5,5,5c2.8,0,5-2.2,5-5C15,7.2,12.8,5,10,5z" />
	<path fill="#757576" d="M10,18c-4.4,0-8-3.6-8-8c0-4.4,3.6-8,8-8c4.4,0,8,3.6,8,8C18,14.4,14.4,18,10,18 M10,0C4.5,0,0,4.5,0,10&#xD;&#xA;		c0,5.5,4.5,10,10,10c5.5,0,10-4.5,10-10C20,4.5,15.5,0,10,0" />
</g>
</g>

<g transform="translate(185, 0)">
<g xmlns="http://www.w3.org/2000/svg">
	<path fill="#DEDEDE" clip-rule="evenodd" fill-rule="evenodd" d="M18,0c9.9,0,18,8.1,18,18c0,9.9-8.1,18-18,18C8.1,36,0,27.9,0,18C0,8.1,8.1,0,18,0z" />
</g>
<g xmlns="http://www.w3.org/2000/svg">
	<path fill="#FFFFFF" d="M19.3,18L15,22.6l1.4,1.4l5.7-6l-5.7-6L15,13.4L19.3,18z" />
</g>
</g>

<g transform="translate(74, 74)">
<g xmlns="http://www.w3.org/2000/svg">
	<path fill="#DADADA" clip-rule="evenodd" fill-rule="evenodd" d="M18,0c9.9,0,18,8.1,18,18c0,9.9-8.1,18-18,18C8.1,36,0,27.9,0,18C0,8.1,8.1,0,18,0z" />
</g>
<g xmlns="http://www.w3.org/2000/svg">
	<path fill="#757575" d="M19.3,18L15,22.6l1.4,1.4l5.7-6l-5.7-6L15,13.4L19.3,18z" />
</g>
</g>

<g transform="translate(259, 37)">
<g xmlns="http://www.w3.org/2000/svg">
	<path fill-rule="evenodd" clip-rule="evenodd" fill="#B4B4B4" d="M0,18C0,8.1,8.1,0,18,0c9.9,0,18,8.1,18,18c0,9.9-8.1,18-18,18C8.1,36,0,27.9,0,18z" />
</g>
<g xmlns="http://www.w3.org/2000/svg">
	<path fill="#FFFFFF" d="M13.4,15.5L12,16.8l6,5.7l6-5.7l-1.4-1.3L18,19.8L13.4,15.5z" />
</g>
</g>

<g transform="translate(259, 0)">
<g xmlns="http://www.w3.org/2000/svg">
	<path fill-rule="evenodd" clip-rule="evenodd" fill="#DADADA" d="M0,18C0,8.1,8.1,0,18,0c9.9,0,18,8.1,18,18c0,9.9-8.1,18-18,18C8.1,36,0,27.9,0,18z" />
</g>
<g xmlns="http://www.w3.org/2000/svg">
	<path fill="#757575" d="M13.4,15.5L12,16.8l6,5.7l6-5.7l-1.4-1.3L18,19.8L13.4,15.5z" />
</g>
</g>

<g transform="translate(223, 238)">
<path fill="#FFFFFF" d="M2.5,10.5L4,12l6-6L4,0L2.5,1.4L7,6L2.5,10.5z" xmlns="http://www.w3.org/2000/svg" />
</g>

<g transform="translate(234, 253)">
<path fill="#bdbdbd" d="M2.5,10.5L4,12l6-6L4,0L2.5,1.4L7,6L2.5,10.5z" xmlns="http://www.w3.org/2000/svg" />
</g>

<g transform="translate(0, 0)">
<g xmlns="http://www.w3.org/2000/svg">
	<path fill="#DEDEDE" clip-rule="evenodd" fill-rule="evenodd" d="M18,0c9.9,0,18,8.1,18,18c0,9.9-8.1,18-18,18C8.1,36,0,27.9,0,18C0,8.1,8.1,0,18,0z" />
</g>
<g xmlns="http://www.w3.org/2000/svg">
	<path fill="#FFFFFF" d="M19.3,18L15,22.6l1.4,1.4l5.7-6l-5.7-6L15,13.4L19.3,18z" />
</g>
</g>

<g transform="translate(37, 0)">
<g xmlns="http://www.w3.org/2000/svg">
	<path fill="#f1f1f1" clip-rule="evenodd" fill-rule="evenodd" d="M18,0c9.9,0,18,8.1,18,18c0,9.9-8.1,18-18,18C8.1,36,0,27.9,0,18C0,8.1,8.1,0,18,0z" />
</g>
<g xmlns="http://www.w3.org/2000/svg">
	<path fill="#bdbdbd" d="M19.3,18L15,22.6l1.4,1.4l5.7-6l-5.7-6L15,13.4L19.3,18z" />
</g>
</g>

<g transform="translate(119, 238)">
<path fill="#FFFFFF" d="M1.5,2.5L0,4l6,6l6-6l-1.5-1.5L6,7L1.5,2.5z" xmlns="http://www.w3.org/2000/svg" />
</g>

<g transform="translate(91, 253)">
<path fill="#bdbdbd" d="M1.5,2.5L0,4l6,6l6-6l-1.5-1.5L6,7L1.5,2.5z" xmlns="http://www.w3.org/2000/svg" />
</g>

<g transform="translate(148, 74)">
<g xmlns="http://www.w3.org/2000/svg">
	<path fill-rule="evenodd" clip-rule="evenodd" fill="#B4B4B4" d="M0,18C0,8.1,8.1,0,18,0c9.9,0,18,8.1,18,18c0,9.9-8.1,18-18,18C8.1,36,0,27.9,0,18z" />
</g>
<g xmlns="http://www.w3.org/2000/svg">
	<path fill="#FFFFFF" d="M13.4,15.5L12,16.8l6,5.7l6-5.7l-1.4-1.3L18,19.8L13.4,15.5z" />
</g>
</g>

<g transform="translate(0, 37)">
<g xmlns="http://www.w3.org/2000/svg">
	<path fill-rule="evenodd" clip-rule="evenodd" fill="#f1f1f1" d="M0,18C0,8.1,8.1,0,18,0c9.9,0,18,8.1,18,18c0,9.9-8.1,18-18,18C8.1,36,0,27.9,0,18z" />
</g>
<g xmlns="http://www.w3.org/2000/svg">
	<path fill="#bdbdbd" d="M13.4,15.5L12,16.8l6,5.7l6-5.7l-1.4-1.3L18,19.8L13.4,15.5z" />
</g>
</g>

<g transform="translate(21, 111)">
<g xmlns="http://www.w3.org/2000/svg">
	<path fill="#FFFFFF" fill-rule="evenodd" clip-rule="evenodd" d="M11,17V3h2v14H11z M7,3h2v14H7V3z" />
</g>
</g>

<g transform="translate(84, 111)">
<g xmlns="http://www.w3.org/2000/svg">
	<path fill="#FFFFFF" fill-rule="evenodd" clip-rule="evenodd" d="M6,3v14l9-7L6,3z" />
</g>
</g>

<g transform="translate(222, 37)">
<g xmlns="http://www.w3.org/2000/svg">
	<path fill="#DEDEDE" clip-rule="evenodd" fill-rule="evenodd" d="M18,0c9.9,0,18,8.1,18,18c0,9.9-8.1,18-18,18C8.1,36,0,27.9,0,18C0,8.1,8.1,0,18,0z" />
</g>
<g xmlns="http://www.w3.org/2000/svg">
	<path fill="#FFFFFF" d="M21,13.4L19.7,12L14,18l5.7,6l1.4-1.4L16.7,18L21,13.4z" />
</g>
</g>

<g transform="translate(185, 37)">
<g xmlns="http://www.w3.org/2000/svg">
	<path fill="#f1f1f1" clip-rule="evenodd" fill-rule="evenodd" d="M18,0c9.9,0,18,8.1,18,18c0,9.9-8.1,18-18,18C8.1,36,0,27.9,0,18C0,8.1,8.1,0,18,0z" />
</g>
<g xmlns="http://www.w3.org/2000/svg">
	<path fill="#bdbdbd" d="M21,13.4L19.7,12L14,18l5.7,6l1.4-1.4L16.7,18L21,13.4z" />
</g>
</g>

<g transform="translate(111, 74)">
<g xmlns="http://www.w3.org/2000/svg">
	<path fill-rule="evenodd" clip-rule="evenodd" fill="#B4B4B4" d="M18,0c9.9,0,18,8.1,18,18c0,9.9-8.1,18-18,18C8.1,36,0,27.9,0,18C0,8.1,8.1,0,18,0z" />
</g>
<g xmlns="http://www.w3.org/2000/svg">
	<path fill="#FFFFFF" d="M18,16.2l4.6,4.3l1.4-1.3l-6-5.7l-6,5.7l1.4,1.3L18,16.2z" />
</g>
</g>

<g transform="translate(111, 0)">
<g xmlns="http://www.w3.org/2000/svg">
	<path fill-rule="evenodd" clip-rule="evenodd" fill="#f1f1f1" d="M18,0c9.9,0,18,8.1,18,18c0,9.9-8.1,18-18,18C8.1,36,0,27.9,0,18C0,8.1,8.1,0,18,0z" />
</g>
<g xmlns="http://www.w3.org/2000/svg">
	<path fill="#bdbdbd" d="M18,16.2l4.6,4.3l1.4-1.3l-6-5.7l-6,5.7l1.4,1.3L18,16.2z" />
</g>
</g>

<g transform="translate(171, 238)">
<path fill="#FFFFFF" d="M7.5,1.5L6,0L0,6l6,6l1.5-1.5L3,6L7.5,1.5z" xmlns="http://www.w3.org/2000/svg" />
</g>

<g transform="translate(275, 238)">
<path fill="#bdbdbd" d="M7.5,1.5L6,0L0,6l6,6l1.5-1.5L3,6L7.5,1.5z" xmlns="http://www.w3.org/2000/svg" />
</g>

<g transform="translate(74, 0)">
<g xmlns="http://www.w3.org/2000/svg">
	<path fill="#DEDEDE" clip-rule="evenodd" fill-rule="evenodd" d="M18,0c9.9,0,18,8.1,18,18c0,9.9-8.1,18-18,18C8.1,36,0,27.9,0,18C0,8.1,8.1,0,18,0z" />
</g>
<g xmlns="http://www.w3.org/2000/svg">
	<path fill="#FFFFFF" d="M21,13.4L19.7,12L14,18l5.7,6l1.4-1.4L16.7,18L21,13.4z" />
</g>
</g>

<g transform="translate(222, 74)">
<g xmlns="http://www.w3.org/2000/svg">
	<path fill="#f1f1f1" clip-rule="evenodd" fill-rule="evenodd" d="M18,0c9.9,0,18,8.1,18,18c0,9.9-8.1,18-18,18C8.1,36,0,27.9,0,18C0,8.1,8.1,0,18,0z" />
</g>
<g xmlns="http://www.w3.org/2000/svg">
	<path fill="#bdbdbd" d="M21,13.4L19.7,12L14,18l5.7,6l1.4-1.4L16.7,18L21,13.4z" />
</g>
</g>

<g transform="translate(26, 253)">
<path fill="#FFFFFF" d="M6,5l4.5,4.5L12,8L6,2L0,8l1.5,1.5L6,5z" xmlns="http://www.w3.org/2000/svg" />
</g>

<g transform="translate(26, 266)">
<path fill="#bdbdbd" d="M6,5l4.5,4.5L12,8L6,2L0,8l1.5,1.5L6,5z" xmlns="http://www.w3.org/2000/svg" />
</g>

<g transform="translate(74, 37)">
<g xmlns="http://www.w3.org/2000/svg">
	<path fill-rule="evenodd" clip-rule="evenodd" fill="#B4B4B4" d="M18,0c9.9,0,18,8.1,18,18c0,9.9-8.1,18-18,18C8.1,36,0,27.9,0,18C0,8.1,8.1,0,18,0z" />
</g>
<g xmlns="http://www.w3.org/2000/svg">
	<path fill="#FFFFFF" d="M18,16.2l4.6,4.3l1.4-1.3l-6-5.7l-6,5.7l1.4,1.3L18,16.2z" />
</g>
</g>

<g transform="translate(0, 74)">
<g xmlns="http://www.w3.org/2000/svg">
	<path fill-rule="evenodd" clip-rule="evenodd" fill="#DADADA" d="M18,0c9.9,0,18,8.1,18,18c0,9.9-8.1,18-18,18C8.1,36,0,27.9,0,18C0,8.1,8.1,0,18,0z" />
</g>
<g xmlns="http://www.w3.org/2000/svg">
	<path fill="#757575" d="M18,16.2l4.6,4.3l1.4-1.3l-6-5.7l-6,5.7l1.4,1.3L18,16.2z" />
</g>
</g>

<g transform="translate(221, 204)">
<polygon fill="#757575" points="4,13 3,12 7,8 3,4 4,3 8,7 12,3 13,4 9,8 13,12 12,13 8,9 " xmlns="http://www.w3.org/2000/svg" />
</g>

<g transform="translate(90, 238)">
<g xmlns="http://www.w3.org/2000/svg">
	<path fill-rule="evenodd" clip-rule="evenodd" fill="#BDBDBD" d="M9.9,9.3h0.7l3.4,3.4L12.7,14l-3.4-3.4V9.9L9.1,9.7c-1,0.8-2.2,1.3-3.6,1.3C2.5,11,0,8.6,0,5.5&#xD;&#xA;		C0,2.5,2.5,0,5.5,0C8.6,0,11,2.5,11,5.5c0,1.4-0.5,2.6-1.3,3.6L9.9,9.3z M5.5,2C3.6,2,2,3.6,2,5.5C2,7.4,3.6,9,5.5,9&#xD;&#xA;		C7.4,9,9,7.4,9,5.5C9,3.6,7.4,2,5.5,2z M6,8H5V6H3V5h2V3h1v2h2v1H6V8z" />
</g>
</g>

<g transform="translate(170, 170)">
<circle fill="#DEDEDE" cx="2" cy="8" r="2" xmlns="http://www.w3.org/2000/svg" />
<circle fill="#DEDEDE" cx="8" cy="8" r="2" xmlns="http://www.w3.org/2000/svg" />
<circle fill="#DEDEDE" cx="14" cy="8" r="2" xmlns="http://www.w3.org/2000/svg" />
</g>

<g transform="translate(138, 266)">
<path fill="#757575" d="M1.1,3L0,4.2L4.5,9L9,4.2L7.9,3L4.5,6.6L1.1,3z" xmlns="http://www.w3.org/2000/svg" />
</g>

<g transform="translate(170, 279)">
<path fill="#DEDEDE" d="M1,2L0,3l4.5,5L9,3L8,2L4.5,5.8L1,2z" xmlns="http://www.w3.org/2000/svg" />
</g>

<g transform="translate(180, 279)">
<path fill="#DEDEDE" d="M8,7l1-1L4.5,1L0,6l1,1l3.5-3.8L8,7z" xmlns="http://www.w3.org/2000/svg" />
</g>

<g transform="translate(38, 151)">
</g>

<g transform="translate(209, 132)">
<path fill="#FFFFFF" d="M6,12L1.5,8L0,9.5L6,15L18,3.5L16.5,2L6,12z" xmlns="http://www.w3.org/2000/svg" />
</g>

<g transform="translate(218, 266)">
<path fill="#757575" d="M3,7.9L4.2,9L9,4.5L4.2,0L3,1l3.6,3.5L3,7.9z" xmlns="http://www.w3.org/2000/svg" />
</g>

<g transform="translate(40, 279)">
<path fill="#757575" d="M6,1.1L4.8,0L0,4.5L4.8,9L6,7.9L2.4,4.5L6,1.1z" xmlns="http://www.w3.org/2000/svg" />
</g>

<g transform="translate(143, 253)">
<path fill="#757575" d="M1.5,2.5L0,4l6,6l6-6l-1.5-1.5L6,7L1.5,2.5z" xmlns="http://www.w3.org/2000/svg" />
</g>

<g transform="translate(182, 253)">
<path fill="#757575" d="M0,10.5L1.5,12l6-6l-6-6L0,1.4L4.5,6L0,10.5z" xmlns="http://www.w3.org/2000/svg" />
</g>

<g transform="translate(94, 266)">
<g xmlns="http://www.w3.org/2000/svg">
	<g>
		<path fill="#757575" fill-rule="evenodd" clip-rule="evenodd" d="M0,4h4V0H0V4z M6,0v4h4V0H6z M6,10h4V6H6V10z M0,10h4V6H0V10z" />
	</g>
</g>
</g>

<g transform="translate(116, 266)">
<g xmlns="http://www.w3.org/2000/svg">
	<g>
		<path fill="#bdbdbd" fill-rule="evenodd" clip-rule="evenodd" d="M0,4h4V0H0V4z M6,0v4h4V0H6z M6,10h4V6H6V10z M0,10h4V6H0V10z" />
	</g>
</g>
</g>

<g transform="translate(289, 221)">
<path fill="#BDBDBD" fill-rule="evenodd" clip-rule="evenodd" d="M7,0c3.9,0,7,3.1,7,7s-3.1,7-7,7s-7-3.1-7-7S3.1,0,7,0z" xmlns="http://www.w3.org/2000/svg" />
<path fill="#FFFFFF" fill-rule="evenodd" clip-rule="evenodd" d="M10.8,9.3l-1.4,1.4L7.1,8.4l-2.3,2.3L3.4,9.3L5.7,7L3.4,4.7l1.4-1.4l2.3,2.3l2.3-2.3l1.4,1.4L8.5,7L10.8,9.3z" xmlns="http://www.w3.org/2000/svg" />
</g>

<g transform="translate(60, 238)">
<path fill="#BDBDBD" d="M7,6l4.5,4.5L13,9L7,3L1,9l1.5,1.5L7,6z" xmlns="http://www.w3.org/2000/svg" />
</g>

<g transform="translate(296, 37)">
<path fill="#BDBDBD" d="M7,6l4.5,4.5L13,9L7,3L1,9l1.5,1.5L7,6z" xmlns="http://www.w3.org/2000/svg" />
</g>

<g transform="translate(75, 238)">
<path fill="#BDBDBD" d="M1,2v10h12V2H1z M12,11H2V5h10V11z" xmlns="http://www.w3.org/2000/svg" />
</g>

<g transform="translate(297, 22)">
<path fill-rule="evenodd" clip-rule="evenodd" fill="#BDBDBD" d="M12,8H9l-1.5,6H8H7.5L6,8H3l3-4V3L4,0l0,0h7l0,0L9,3v1L12,8z" xmlns="http://www.w3.org/2000/svg" />
</g>

<g transform="translate(296, 74)">
<g xmlns="http://www.w3.org/2000/svg">
	<path fill="#BDBDBD" d="M12.6,2.9C11.4,1.1,9.3,0,7,0C3.8,0,1.2,2.1,0.3,5h1.9C2.9,3.1,4.8,1.8,7,1.8c1.8,0,3.4,1,4.4,2.4L9.5,6h2.6&#xD;&#xA;		h1.8H14V1.5L12.6,2.9z" />
	<path fill="#BDBDBD" d="M7.2,12.3c-1.7,0-3.2-1-4.2-2.3l2-2H2.1H0.3H0v5l1.8-1.8C3.1,12.8,5,14,7.2,14c3.2,0,5.8-2.1,6.7-5H12&#xD;&#xA;		C11.3,10.9,9.4,12.3,7.2,12.3z" />
</g>
</g>

<g transform="translate(15, 238)">
<g xmlns="http://www.w3.org/2000/svg">
	<g>
		<rect fill="#CCCCCC" x="12" y="12" width="2" height="2" />
		<rect fill="#CCCCCC" x="12" y="8" width="2" height="2" />
		<rect fill="#CCCCCC" x="12" y="4" width="2" height="2" />
		<rect fill="#CCCCCC" x="12" width="2" height="2" />
		<rect fill="#CCCCCC" x="8" y="12" width="2" height="2" />
		<rect fill="#CCCCCC" x="8" y="8" width="2" height="2" />
		<rect fill="#CCCCCC" x="8" y="4" width="2" height="2" />
		<rect fill="#CCCCCC" x="4" y="12" width="2" height="2" />
		<rect fill="#CCCCCC" x="4" y="8" width="2" height="2" />
		<rect fill="#CCCCCC" y="12" width="2" height="2" />
	</g>
</g>
</g>

<g transform="translate(297, 59)">
<g xmlns="http://www.w3.org/2000/svg">
	<g>
		<rect x="0" y="12" fill="#CCCCCC" width="2" height="2" />
		<rect x="0" y="8" fill="#CCCCCC" width="2" height="2" />
		<rect x="0" y="4" fill="#CCCCCC" width="2" height="2" />
		<rect x="0" y="0" fill="#CCCCCC" width="2" height="2" />
		<rect x="4" y="12" fill="#CCCCCC" width="2" height="2" />
		<rect x="4" y="8" fill="#CCCCCC" width="2" height="2" />
		<rect x="4" y="4" fill="#CCCCCC" width="2" height="2" />
		<rect x="8" y="12" fill="#CCCCCC" width="2" height="2" />
		<rect x="8" y="8" fill="#CCCCCC" width="2" height="2" />
		<rect x="12" y="12" fill="#CCCCCC" width="2" height="2" />
	</g>
</g>
</g>

<g transform="translate(117, 253)">
<path fill="#757575" d="M3,6l4.5-4.5L6,0L0,6l6,6l1.5-1.5L3,6z" xmlns="http://www.w3.org/2000/svg" />
<path fill="#757575" d="M7.5,6L12,1.5L10.5,0l-6,6l6,6l1.5-1.5L7.5,6z" xmlns="http://www.w3.org/2000/svg" />
</g>

<g transform="translate(65, 253)">
<path fill="#bdbdbd" d="M3,6l4.5-4.5L6,0L0,6l6,6l1.5-1.5L3,6z" xmlns="http://www.w3.org/2000/svg" />
<path fill="#bdbdbd" d="M7.5,6L12,1.5L10.5,0l-6,6l6,6l1.5-1.5L7.5,6z" xmlns="http://www.w3.org/2000/svg" />
</g>

<g transform="translate(221, 253)">
<path fill="#757575" d="M0,10.5L1.5,12l6-6l-6-6L0,1.4L4.5,6L0,10.5z" xmlns="http://www.w3.org/2000/svg" />
<path fill="#757575" d="M4.5,10.5L6,12l6-6L6,0L4.5,1.4L9,6L4.5,10.5z" xmlns="http://www.w3.org/2000/svg" />
</g>

<g transform="translate(13, 266)">
<path fill="#bdbdbd" d="M0,10.5L1.5,12l6-6l-6-6L0,1.4L4.5,6L0,10.5z" xmlns="http://www.w3.org/2000/svg" />
<path fill="#bdbdbd" d="M4.5,10.5L6,12l6-6L6,0L4.5,1.4L9,6L4.5,10.5z" xmlns="http://www.w3.org/2000/svg" />
</g>

<g transform="translate(132, 238)">
<path fill="#757575" d="M2.5,10.5L4,12l6-6L4,0L2.5,1.4L7,6L2.5,10.5z" xmlns="http://www.w3.org/2000/svg" />
</g>

<g transform="translate(104, 253)">
<path fill="#bdbdbd" d="M2.5,10.5L4,12l6-6L4,0L2.5,1.4L7,6L2.5,10.5z" xmlns="http://www.w3.org/2000/svg" />
</g>

<g transform="translate(0, 132)">
<g xmlns="http://www.w3.org/2000/svg">
	<path fill="#757576" d="M0,15h18v-2H0V15z M0,10h18V8H0V10z M0,3v2h18V3H0z" />
</g>
</g>

<g transform="translate(119, 204)">
<g xmlns="http://www.w3.org/2000/svg">
	<path fill="#757575" d="M7,0v12.2L1.4,6.6L0,8l8,8l8-8l-1.4-1.4L9,12.2V0L7,0z" />
</g>
</g>

<g transform="translate(68, 187)">
<g xmlns="http://www.w3.org/2000/svg">
	<path fill="#757575" d="M16,7H3.8l5.6-5.6L8,0L0,8l8,8l1.4-1.4L3.8,9H16V7z" />
</g>
</g>

<g transform="translate(17, 221)">
<g xmlns="http://www.w3.org/2000/svg">
	<path fill="#757575" d="M0,9h12.2l-5.6,5.6L8,16l8-8L8,0L6.6,1.4L12.2,7H0L0,9z" />
</g>
</g>

<g transform="translate(204, 204)">
<g xmlns="http://www.w3.org/2000/svg">
	<path fill="#757575" d="M9,16V3.8l5.6,5.6L16,8L8,0L0,8l1.4,1.4L7,3.8V16H9z" />
</g>
</g>

<g transform="translate(39, 266)">
<polygon fill="#757575" points="10,3 5,8 0,3 " xmlns="http://www.w3.org/2000/svg" />
</g>

<g transform="translate(301, 238)">
<polygon fill="#f1f1f1" points="10,3 5,8 0,3 " xmlns="http://www.w3.org/2000/svg" />
</g>

<g transform="translate(262, 238)">
<path fill="#757575" d="M7.5,1.5L6,0L0,6l6,6l1.5-1.5L3,6L7.5,1.5z" xmlns="http://www.w3.org/2000/svg" />
</g>

<g transform="translate(210, 238)">
<path fill="#bdbdbd" d="M7.5,1.5L6,0L0,6l6,6l1.5-1.5L3,6L7.5,1.5z" xmlns="http://www.w3.org/2000/svg" />
</g>

<g transform="translate(296, 89)">
<polyline fill="#757576" points="6,0 0,6 6,6 6,0 " xmlns="http://www.w3.org/2000/svg" />
</g>

<g transform="translate(305, 231)">
<polyline fill="#bdbdbd" points="6,0 0,6 6,6 6,0 " xmlns="http://www.w3.org/2000/svg" />
</g>

<g transform="translate(303, 89)">
<polyline fill="#DEDEDE" points="6,0 0,6 6,6 6,0 " xmlns="http://www.w3.org/2000/svg" />
</g>

<g transform="translate(220, 279)">
<polyline fill="#DEDEDE" points="6,0 0,6 6,6 6,0 " xmlns="http://www.w3.org/2000/svg" />
</g>

<g transform="translate(283, 279)">
<polygon fill="#DEDEDE" points="7,0 0,0 3.5,4 " xmlns="http://www.w3.org/2000/svg" />
</g>

<g transform="translate(243, 279)">
<polygon fill="#bdbdbd" points="7,0 0,0 3.5,4 " xmlns="http://www.w3.org/2000/svg" />
</g>

<g transform="translate(304, 284)">
<polygon fill="#FFFFFF" points="7,0 0,0 3.5,4 " xmlns="http://www.w3.org/2000/svg" />
</g>

<g transform="translate(304, 221)">
<polygon fill="#DEDEDE" class="st0" points="7,3 0,3 3.5,7 " xmlns="http://www.w3.org/2000/svg" />
<rect fill="#DEDEDE" x="0" y="1" class="st0" width="7" height="1" xmlns="http://www.w3.org/2000/svg" />
</g>

<g transform="translate(304, 162)">
<polygon fill="#bdbdbd" class="st0" points="7,3 0,3 3.5,7 " xmlns="http://www.w3.org/2000/svg" />
<rect fill="#bdbdbd" x="0" y="1" class="st0" width="7" height="1" xmlns="http://www.w3.org/2000/svg" />
</g>

<g transform="translate(304, 143)">
<polygon fill="#FFFFFF" class="st0" points="7,3 0,3 3.5,7 " xmlns="http://www.w3.org/2000/svg" />
<rect fill="#FFFFFF" x="0" y="1" class="st0" width="7" height="1" xmlns="http://www.w3.org/2000/svg" />
</g>

<g transform="translate(251, 279)">
<polygon fill="#DEDEDE" points="7,4 0,4 3.5,0 " xmlns="http://www.w3.org/2000/svg" />
</g>

<g transform="translate(291, 279)">
<polygon fill="#bdbdbd" points="7,4 0,4 3.5,0 " xmlns="http://www.w3.org/2000/svg" />
</g>

<g transform="translate(296, 284)">
<polygon fill="#FFFFFF" points="7,4 0,4 3.5,0 " xmlns="http://www.w3.org/2000/svg" />
</g>

<g transform="translate(286, 253)">
<path fill="#DEDEDE" d="M6,5l4.5,4.5L12,8L6,2L0,8l1.5,1.5L6,5z" xmlns="http://www.w3.org/2000/svg" />
</g>

<g transform="translate(249, 238)">
<path fill="#FFFFFF" d="M6,5l4.5,4.5L12,8L6,2L0,8l1.5,1.5L6,5z" xmlns="http://www.w3.org/2000/svg" />
</g>

<g transform="translate(130, 253)">
<path fill="#FFFFFF" d="M6,5l4.5,4.5L12,8L6,2L0,8l1.5,1.5L6,5z" xmlns="http://www.w3.org/2000/svg" />
</g>

<g transform="translate(299, 253)">
<path fill="#DEDEDE" d="M1.5,2.5L0,4l6,6l6-6l-1.5-1.5L6,7L1.5,2.5z" xmlns="http://www.w3.org/2000/svg" />
</g>

<g transform="translate(169, 253)">
<path fill="#bdbdbd" d="M1.5,2.5L0,4l6,6l6-6l-1.5-1.5L6,7L1.5,2.5z" xmlns="http://www.w3.org/2000/svg" />
</g>

<g transform="translate(184, 238)">
<path fill="#FFFFFF" d="M1.5,2.5L0,4l6,6l6-6l-1.5-1.5L6,7L1.5,2.5z" xmlns="http://www.w3.org/2000/svg" />
</g>

<g transform="translate(273, 253)">
<path fill="#FFFFFF" d="M1.5,2.5L0,4l6,6l6-6l-1.5-1.5L6,7L1.5,2.5z" xmlns="http://www.w3.org/2000/svg" />
</g>

<g transform="translate(236, 238)">
<path fill="#bdbdbd" d="M6,5l4.5,4.5L12,8L6,2L0,8l1.5,1.5L6,5z" xmlns="http://www.w3.org/2000/svg" />
</g>

<g transform="translate(197, 238)">
<path fill="#757575" d="M6,5l4.5,4.5L12,8L6,2L0,8l1.5,1.5L6,5z" xmlns="http://www.w3.org/2000/svg" />
</g>

<g transform="translate(297, 96)">
<path fill="#BDBDBD" d="M10,5l1,0l3-2v7l-3-2l-1,0l-4,3V8L0,6.5L6,5V2.1L10,5z" xmlns="http://www.w3.org/2000/svg" />
</g>

<g transform="translate(158, 266)">
<path fill="#757575" d="M1,2L0,3l4.5,5L9,3L8,2L4.5,5.8L1,2z" xmlns="http://www.w3.org/2000/svg" />
</g>

<g transform="translate(267, 279)">
<polygon fill="#757575" points="7,4 0,4 3.5,0 " xmlns="http://www.w3.org/2000/svg" />
</g>

<g transform="translate(299, 279)">
<polygon fill="#FFFFFF" points="7,4 0,4 3.5,0 " xmlns="http://www.w3.org/2000/svg" />
</g>

<g transform="translate(227, 279)">
<polygon fill="#757575" points="7,0 0,0 3.5,4 " xmlns="http://www.w3.org/2000/svg" />
</g>

<g transform="translate(235, 279)">
<polygon fill="#FFFFFF" points="7,0 0,0 3.5,4 " xmlns="http://www.w3.org/2000/svg" />
</g>

<g transform="translate(296, 17)">
<g xmlns="http://www.w3.org/2000/svg">
	<rect fill="#757575" width="1" height="4" />
	<rect x="2" fill="#757575" width="1" height="4" />
	<rect x="4" fill="#757575" width="1" height="4" />
	<rect x="6" fill="#757575" width="1" height="4" />
	<rect x="8" fill="#757575" width="1" height="4" />
	<rect x="10" fill="#757575" width="1" height="4" />
	<rect x="12" fill="#757575" width="1" height="4" />
	<rect x="14" fill="#757575" width="1" height="4" />
</g>
</g>

<g transform="translate(296, 54)">
<g xmlns="http://www.w3.org/2000/svg">
	<rect fill="#FFFFFF" width="1" height="4" />
	<rect x="2" fill="#FFFFFF" width="1" height="4" />
	<rect x="4" fill="#FFFFFF" width="1" height="4" />
	<rect x="6" fill="#FFFFFF" width="1" height="4" />
	<rect x="8" fill="#FFFFFF" width="1" height="4" />
	<rect x="10" fill="#FFFFFF" width="1" height="4" />
	<rect x="12" fill="#FFFFFF" width="1" height="4" />
	<rect x="14" fill="#FFFFFF" width="1" height="4" />
</g>
</g>

<g transform="translate(306, 187)">
<polygon fill="#757575" points="4,0 4,7 0,3.5 " xmlns="http://www.w3.org/2000/svg" />
</g>

<g transform="translate(306, 0)">
<polygon fill="#FFFFFF" points="4,0 4,7 0,3.5 " xmlns="http://www.w3.org/2000/svg" />
</g>

<g transform="translate(306, 170)">
<polygon fill="#757575" points="0,0 0,7 4,3.5 " xmlns="http://www.w3.org/2000/svg" />
</g>

<g transform="translate(307, 179)">
<polygon fill="#FFFFFF" points="0,0 0,7 4,3.5 " xmlns="http://www.w3.org/2000/svg" />
</g>

<g transform="translate(296, 0)">
<g xmlns="http://www.w3.org/2000/svg">
	<rect fill="#757575" width="4" height="1" />
	<rect y="2" fill="#757575" width="4" height="1" />
	<rect y="4" fill="#757575" width="4" height="1" />
	<rect y="6" fill="#757575" width="4" height="1" />
	<rect y="8" fill="#757575" width="4" height="1" />
	<rect y="10" fill="#757575" width="4" height="1" />
	<rect y="12" fill="#757575" width="4" height="1" />
	<rect y="14" fill="#757575" width="4" height="1" />
</g>
</g>

<g transform="translate(301, 0)">
<g xmlns="http://www.w3.org/2000/svg">
	<rect fill="#FFFFFF" width="4" height="1" />
	<rect y="2" fill="#FFFFFF" width="4" height="1" />
	<rect y="4" fill="#FFFFFF" width="4" height="1" />
	<rect y="6" fill="#FFFFFF" width="4" height="1" />
	<rect y="8" fill="#FFFFFF" width="4" height="1" />
	<rect y="10" fill="#FFFFFF" width="4" height="1" />
	<rect y="12" fill="#FFFFFF" width="4" height="1" />
	<rect y="14" fill="#FFFFFF" width="4" height="1" />
</g>
</g>

<g transform="translate(0, 266)">
<path fill="#757575" d="M7.5,1.5L6,0L0,6l6,6l1.5-1.5L3,6L7.5,1.5z" xmlns="http://www.w3.org/2000/svg" />
</g>

<g transform="translate(158, 238)">
<path fill="#bdbdbd" d="M7.5,1.5L6,0L0,6l6,6l1.5-1.5L3,6L7.5,1.5z" xmlns="http://www.w3.org/2000/svg" />
</g>

<g transform="translate(156, 253)">
<path fill="#FFFFFF" d="M7.5,1.5L6,0L0,6l6,6l1.5-1.5L3,6L7.5,1.5z" xmlns="http://www.w3.org/2000/svg" />
</g>

<g transform="translate(260, 253)">
<path fill="#FFFFFF" d="M7.5,1.5L6,0L0,6l6,6l1.5-1.5L3,6L7.5,1.5z" xmlns="http://www.w3.org/2000/svg" />
</g>

<g transform="translate(78, 253)">
<path fill="#757575" d="M0,10.5L1.5,12l6-6l-6-6L0,1.4L4.5,6L0,10.5z" xmlns="http://www.w3.org/2000/svg" />
</g>

<g transform="translate(145, 238)">
<path fill="#bdbdbd" d="M0,10.5L1.5,12l6-6l-6-6L0,1.4L4.5,6L0,10.5z" xmlns="http://www.w3.org/2000/svg" />
</g>

<g transform="translate(39, 253)">
<path fill="#FFFFFF" d="M0,10.5L1.5,12l6-6l-6-6L0,1.4L4.5,6L0,10.5z" xmlns="http://www.w3.org/2000/svg" />
</g>

<g transform="translate(52, 253)">
<path fill="#FFFFFF" d="M0,10.5L1.5,12l6-6l-6-6L0,1.4L4.5,6L0,10.5z" xmlns="http://www.w3.org/2000/svg" />
</g>

<g transform="translate(127, 266)">
<polygon fill="#757575" points="10,3 5,8 0,3 " xmlns="http://www.w3.org/2000/svg" />
</g>

<g transform="translate(50, 266)">
<polygon fill="#757575" points="10,3 5,8 0,3 " xmlns="http://www.w3.org/2000/svg" />
</g>

<g transform="translate(72, 266)">
<polygon fill="#757575" points="3,0 8,5 3,10 " xmlns="http://www.w3.org/2000/svg" />
</g>

<g transform="translate(83, 266)">
<polygon fill="#757575" points="7,10 2,5 7,0 " xmlns="http://www.w3.org/2000/svg" />
</g>

<g transform="translate(231, 111)">
<path fill="#dc4c40" d="M10,0C4.5,0,0,4.5,0,10s4.5,10,10,10s10-4.5,10-10S15.5,0,10,0z M15,13.6L13.6,15L10,11.4L6.4,15L5,13.6L8.6,10L5,6.4L6.4,5&#xD;&#xA;	L10,8.6L13.6,5L15,6.4L11.4,10L15,13.6z" xmlns="http://www.w3.org/2000/svg" />
</g>

<g transform="translate(114, 151)">
<path fill="#bdbdbd" d="M9,0C4,0,0,4,0,9s4,9,9,9s9-4,9-9S14,0,9,0z M14,12l-2,2l-3-3l-3,3l-2-2l3-3L4,6l2-2l3,3l3-3l2,2l-3,3L14,12z" xmlns="http://www.w3.org/2000/svg" />
</g>

<g transform="translate(228, 132)">
<path fill="#FFFFFF" d="M16,0H2C0.9,0,0,0.9,0,2v14c0,1.1,0.9,2,2,2h14c1.1,0,2-0.9,2-2V2C18,0.9,17.1,0,16,0z M7,14L2,9l1.4-1.4&#xA;	L7,11.2l7.6-7.6L16,5L7,14z" xmlns="http://www.w3.org/2000/svg" />
</g>

<g transform="translate(19, 132)">
<path fill="#FFFFFF" d="M16,2v14H2V2H16 M16,0H2C0.9,0,0,0.9,0,2v14c0,1.1,0.9,2,2,2h14c1.1,0,2-0.9,2-2V2C18,0.9,17.1,0,16,0z" xmlns="http://www.w3.org/2000/svg" />
</g>

<g transform="translate(171, 132)">
<path fill="#FFFFFF" d="M16,0H2C0.9,0,0,0.9,0,2v14c0,1.1,0.9,2,2,2h14c1.1,0,2-0.9,2-2V2C18,0.9,17.1,0,16,0z M7,14L2,9l1.4-1.4&#xA;	L7,11.2l7.6-7.6L16,5L7,14z" xmlns="http://www.w3.org/2000/svg" />
</g>

<g transform="translate(19, 151)">
<path fill="#FFFFFF" d="M16,0H2C0.9,0,0,0.9,0,2v14c0,1.1,0.9,2,2,2h14c1.1,0,2-0.9,2-2V2C18,0.9,17.1,0,16,0z M7,14L2,9l1.4-1.4&#xA;	L7,11.2l7.6-7.6L16,5L7,14z" xmlns="http://www.w3.org/2000/svg" />
</g>

<g transform="translate(273, 111)">
<path fill="#FFFFFF" d="M16,0H2C0.9,0,0,0.9,0,2v14c0,1.1,0.9,2,2,2h14c1.1,0,2-0.9,2-2V2C18,0.9,17.1,0,16,0z M7,14L2,9l1.4-1.4&#xA;	L7,11.2l7.6-7.6L16,5L7,14z" xmlns="http://www.w3.org/2000/svg" />
</g>

<g transform="translate(114, 132)">
<path fill="#FFFFFF" d="M16,0H2C0.9,0,0,0.9,0,2v14c0,1.1,0.9,2,2,2h14c1.1,0,2-0.9,2-2V2C18,0.9,17.1,0,16,0z M7,14L2,9l1.4-1.4&#xA;	L7,11.2l7.6-7.6L16,5L7,14z" xmlns="http://www.w3.org/2000/svg" />
</g>

<g transform="translate(171, 151)">
<path fill="#FFFFFF" d="M16,0H2C0.9,0,0,0.9,0,2v14c0,1.1,0.9,2,2,2h14c1.1,0,2-0.9,2-2V2C18,0.9,17.1,0,16,0z M7,14L2,9l1.4-1.4&#xD;&#xA;	L7,11.2l7.6-7.6L16,5L7,14z" xmlns="http://www.w3.org/2000/svg" />
</g>


</svg>


