<?xml version="1.0" encoding="utf-8"?>

<svg version="1.1" xmlns="http://www.w3.org/2000/svg" xmlns:xlink="http://www.w3.org/1999/xlink" width="173" height="373">
<g transform="translate(102, 92)">
<g xmlns="http://www.w3.org/2000/svg">
	<polygon fill="#757575" points="14,14 15,13 13,11 15,9 14,8 12,10 10,8 9,9 11,11 9,13 10,14 12,12 	" />
</g>
<polygon fill="#757575" points="0,2 10,2 10,4 6,7 6,12 4,14 4,7 0,4 " xmlns="http://www.w3.org/2000/svg" />
</g>

<g transform="translate(102, 194)">
<g xmlns="http://www.w3.org/2000/svg">
	<polygon fill="#BDBDBD" points="14,14 15,13 13,11 15,9 14,8 12,10 10,8 9,9 11,11 9,13 10,14 12,12 	" />
</g>
<polygon fill="#BDBDBD" points="0,2 10,2 10,4 6,7 6,12 4,14 4,7 0,4 " xmlns="http://www.w3.org/2000/svg" />
</g>

<g transform="translate(85, 245)">
<g xmlns="http://www.w3.org/2000/svg">
	<polygon fill="#757575" points="11,2 10,3 12,5 10,7 11,8 13,6 15,8 16,7 14,5 16,3 15,2 13,4 	" />
</g>
<rect y="3" fill="#757575" width="8" height="4" xmlns="http://www.w3.org/2000/svg" />
<rect x="4" y="10" fill="#757575" width="12" height="4" xmlns="http://www.w3.org/2000/svg" />
</g>

<g transform="translate(153, 194)">
<g xmlns="http://www.w3.org/2000/svg">
	<polygon fill="#BDBDBD" points="11,2 10,3 12,5 10,7 11,8 13,6 15,8 16,7 14,5 16,3 15,2 13,4 	" />
</g>
<rect y="3" fill="#BDBDBD" width="8" height="4" xmlns="http://www.w3.org/2000/svg" />
<rect x="4" y="10" fill="#BDBDBD" width="12" height="4" xmlns="http://www.w3.org/2000/svg" />
</g>

<g transform="translate(119, 160)">
<path fill="#757575" d="M1,1v14h14V1H1z M12,9H9v3H7V9H4V7h3V4h2v3h3V9z" xmlns="http://www.w3.org/2000/svg" />
</g>

<g transform="translate(153, 245)">
<path fill="#BDBDBD" d="M1,1v14h14V1H1z M12,9H9v3H7V9H4V7h3V4h2v3h3V9z" xmlns="http://www.w3.org/2000/svg" />
</g>

<g transform="translate(119, 126)">
<path fill="#757575" d="M1,1v14h14V1H1z M12,9H9v3H7V9H4V7h3V4h2v3h3V9z" xmlns="http://www.w3.org/2000/svg" />
</g>

<g transform="translate(85, 228)">
<path fill="#BDBDBD" d="M1,1v14h14V1H1z M12,9H9v3H7V9H4V7h3V4h2v3h3V9z" xmlns="http://www.w3.org/2000/svg" />
</g>

<g transform="translate(0, 194)">
<polygon fill="#DC4C40" points="14,4 12,2 8,6 4,2 2,4 6,8 2,12 4,14 8,10 12,14 14,12 10,8 " xmlns="http://www.w3.org/2000/svg" />
</g>

<g transform="translate(17, 296)">
<polygon fill="#BDBDBD" points="14,4 12,2 8,6 4,2 2,4 6,8 2,12 4,14 8,10 12,14 14,12 10,8 " xmlns="http://www.w3.org/2000/svg" />
</g>

<g transform="translate(0, 211)">
<g xmlns="http://www.w3.org/2000/svg">
	<path fill="#757575" d="M10,2l-8,8v4h3.9L14,6L10,2z M5,13l-2-2l6-6l2,2L5,13z" />
	<rect x="9" y="13" fill="#757575" width="5" height="1" />
</g>
</g>

<g transform="translate(85, 194)">
<g xmlns="http://www.w3.org/2000/svg">
	<path fill="#BDBDBD" d="M10,2l-8,8v4h3.9L14,6L10,2z M5,13l-2-2l6-6l2,2L5,13z" />
	<rect x="9" y="13" fill="#BDBDBD" width="5" height="1" />
</g>
</g>

<g transform="translate(0, 228)">
<path fill="#757575" d="M1,1v14h14V1H1z M12,9H4V7h8V9z" xmlns="http://www.w3.org/2000/svg" />
</g>

<g transform="translate(17, 109)">
<path fill="#BDBDBD" d="M1,1v14h14V1H1z M12,9H4V7h8V9z" xmlns="http://www.w3.org/2000/svg" />
</g>

<g transform="translate(119, 262)">
<path fill="#757575" d="M1,1v14h14V1H1z M12,9H4V7h8V9z" xmlns="http://www.w3.org/2000/svg" />
</g>

<g transform="translate(153, 177)">
<path fill="#BDBDBD" d="M1,1v14h14V1H1z M12,9H4V7h8V9z" xmlns="http://www.w3.org/2000/svg" />
</g>

<g transform="translate(136, 262)">
<style type="text/css" xmlns="http://www.w3.org/2000/svg">
	.stexp0{fill-rule:evenodd;clip-rule:evenodd;fill:#757575;}
</style>
<g xmlns="http://www.w3.org/2000/svg">
	<path class="stexp0" d="M4,16v-3H0V6h4c0,0,0-5,0-5.9C4,0,4,0,4,0h9l3,3v13H4z M4,11H2V8h2V7H2L1,8v3l1,1h2V11z M5,9l1,1h1v1H5v1h2&#xD;&#xA;		l1-1v-1L7,9H6V8h2V7H6L5,8V9z M14,5h-3V2H6v4h7v1v6h-1H6v1h8V5z M10,11V7H9v4l1,1h1l1-1V7h-1v4H10z" />
</g>
</g>

<g transform="translate(136, 296)">
<style type="text/css" xmlns="http://www.w3.org/2000/svg">
	.stexpdis1{fill-rule:evenodd;clip-rule:evenodd;fill:#BDBDBD;}
</style>
<g xmlns="http://www.w3.org/2000/svg">
	<path class="stexpdis1" d="M4,16v-3H0V6h4c0,0,0-5,0-5.9C4,0,4,0,4,0h9l3,3v13H4z M4,11H2V8h2V7H2L1,8v3l1,1h2V11z M5,9l1,1h1v1H5v1h2&#xD;&#xA;		l1-1v-1L7,9H6V8h2V7H6L5,8V9z M14,5h-3V2H6v4h7v1v6h-1H6v1h8V5z M10,11V7H9v4l1,1h1l1-1V7h-1v4H10z" />
</g>
</g>

<g transform="translate(34, 194)">
<style type="text/css" xmlns="http://www.w3.org/2000/svg">
	.stexp0{fill-rule:evenodd;clip-rule:evenodd;fill:#757575;}
</style>
<g xmlns="http://www.w3.org/2000/svg">
	<rect x="6" y="8" class="stexp0" width="1" height="3" />
	<rect x="2" y="8" class="stexp0" width="1" height="1" />
</g>
<g xmlns="http://www.w3.org/2000/svg">
	<rect x="6" y="8" class="stexp0" width="1" height="3" />
	<rect x="2" y="8" class="stexp0" width="1" height="3" />
	<path class="stexp0" d="M13,0H4c0,0,0,0,0,0.1C4,1,4,6,4,6H0v7h4v3h12V3L13,0z M4,11l-1,1H1V7h2l1,1V11z M6,2h5v3h3v1H6V2z M11,11v1&#xD;&#xA;		h-1l-1-1V8l1-1h1v1h-1v3H11z M5,8l1-1h1l1,1v3l-1,1H6l-1-1V8z M14,14H6v-1h6h2V14z M15,8l-1,1v1l1,1v1h-1l-0.5-1L13,12h-1v-1l1-1V9&#xD;&#xA;		l-1-1V7h1l0.5,1L14,7h1V8z" />
</g>
</g>

<g transform="translate(119, 143)">
<style type="text/css" xmlns="http://www.w3.org/2000/svg">
	.stexpdis1{fill-rule:evenodd;clip-rule:evenodd;fill:#BDBDBD;}
</style>
<g xmlns="http://www.w3.org/2000/svg">
	<rect x="6" y="8" class="stexpdis1" width="1" height="3" />
	<rect x="2" y="8" class="stexpdis1" width="1" height="1" />
</g>
<g xmlns="http://www.w3.org/2000/svg">
	<rect x="6" y="8" class="stexpdis1" width="1" height="3" />
	<rect x="2" y="8" class="stexpdis1" width="1" height="3" />
	<path class="stexpdis1" d="M13,0H4c0,0,0,0,0,0.1C4,1,4,6,4,6H0v7h4v3h12V3L13,0z M4,11l-1,1H1V7h2l1,1V11z M6,2h5v3h3v1H6V2z M11,11v1&#xD;&#xA;		h-1l-1-1V8l1-1h1v1h-1v3H11z M5,8l1-1h1l1,1v3l-1,1H6l-1-1V8z M14,14H6v-1h6h2V14z M15,8l-1,1v1l1,1v1h-1l-0.5-1L13,12h-1v-1l1-1V9&#xD;&#xA;		l-1-1V7h1l0.5,1L14,7h1V8z" />
</g>
</g>

<g transform="translate(136, 245)">
<style type="text/css" xmlns="http://www.w3.org/2000/svg">
	.stexp0{fill-rule:evenodd;clip-rule:evenodd;fill:#757575;}
</style>
<g xmlns="http://www.w3.org/2000/svg">
	<rect x="6" y="8" class="stexp0" width="1" height="3" />
	<rect x="2" y="8" class="stexp0" width="1" height="1" />
	<path class="stexp0" d="M13,0H4c0,0,0,0,0,0.1C4,1,4,6,4,6H0v7h4v3h12V3L13,0z M4,9l-1,1H2v2H1V7h2l1,1V9z M5,7h2l1,1v3l-1,1H5V7z&#xD;&#xA;		 M14,14H6v-1h6h1V7V6H6V2h5v3h3V14z M11,9v1h-1v2H9V7h3v1h-2v1H11z" />
</g>
</g>

<g transform="translate(85, 126)">
<style type="text/css" xmlns="http://www.w3.org/2000/svg">
	.stexpdis1{fill-rule:evenodd;clip-rule:evenodd;fill:#BDBDBD;}
</style>
<g xmlns="http://www.w3.org/2000/svg">
	<rect x="6" y="8" class="stexpdis1" width="1" height="3" />
	<rect x="2" y="8" class="stexpdis1" width="1" height="1" />
	<path class="stexpdis1" d="M13,0H4c0,0,0,0,0,0.1C4,1,4,6,4,6H0v7h4v3h12V3L13,0z M4,9l-1,1H2v2H1V7h2l1,1V9z M5,7h2l1,1v3l-1,1H5V7z&#xD;&#xA;		 M14,14H6v-1h6h1V7V6H6V2h5v3h3V14z M11,9v1h-1v2H9V7h3v1h-2v1H11z" />
</g>
</g>

<g transform="translate(85, 279)">
<style type="text/css" xmlns="http://www.w3.org/2000/svg">
	.stexp0{fill:#757575;}
</style>
<g xmlns="http://www.w3.org/2000/svg">
	<rect x="2" y="8" class="stexp0" width="1" height="1" />
	<path class="stexp0" d="M13,0H4c0,0,0,0,0,0.1C4,1,4,6,4,6H0v7h4v3h12V3L13,0z M4,9H3l1,1v2H3v-2H2v2H1V7h2l1,1V9z M5,7h3v1H7v4H6V8H5&#xD;&#xA;		V7z M14,14H6v-1h6h1V7V6H6V2h5v3h3V14z M11,9v1h-1v2H9V7h3v1h-2v1H11z" />
</g>
</g>

<g transform="translate(51, 143)">
<style type="text/css" xmlns="http://www.w3.org/2000/svg">
	.stexpdis1{fill:#BDBDBD;}
</style>
<g xmlns="http://www.w3.org/2000/svg">
	<rect x="2" y="8" class="stexpdis1" width="1" height="1" />
	<path class="stexpdis1" d="M13,0H4c0,0,0,0,0,0.1C4,1,4,6,4,6H0v7h4v3h12V3L13,0z M4,9H3l1,1v2H3v-2H2v2H1V7h2l1,1V9z M5,7h3v1H7v4H6V8H5&#xD;&#xA;		V7z M14,14H6v-1h6h1V7V6H6V2h5v3h3V14z M11,9v1h-1v2H9V7h3v1h-2v1H11z" />
</g>
</g>

<g transform="translate(68, 313)">
<style type="text/css" xmlns="http://www.w3.org/2000/svg">
	.stexp0{fill-rule:evenodd;clip-rule:evenodd;fill:#757575;}
</style>
<path class="stexp0" d="M13,0H4c0,0,0,0,0,0.1C4,1,4,6,4,6H0v7h4v3h12V3L13,0z M4,8L3,9v1l1,1v1H3l-0.5-1L2,12H1v-1l1-1V9L1,8V7h1&#xD;&#xA;	l0.5,1L3,7h1V8z M5,7h1v4h1v1H5V7z M14,14H6v-1h6h1V7V6H6V2h5v3h3V14z M9,10L8,9V8l1-1h2v1H9v1h1l1,1v1l-1,1H8v-1h2v-1H9z" xmlns="http://www.w3.org/2000/svg" />
</g>

<g transform="translate(68, 296)">
<style type="text/css" xmlns="http://www.w3.org/2000/svg">
	.stexpdis1{fill-rule:evenodd;clip-rule:evenodd;fill:#BDBDBD;}
</style>
<path class="stexpdis1" d="M13,0H4c0,0,0,0,0,0.1C4,1,4,6,4,6H0v7h4v3h12V3L13,0z M4,8L3,9v1l1,1v1H3l-0.5-1L2,12H1v-1l1-1V9L1,8V7h1&#xD;&#xA;	l0.5,1L3,7h1V8z M5,7h1v4h1v1H5V7z M14,14H6v-1h6h1V7V6H6V2h5v3h3V14z M9,10L8,9V8l1-1h2v1H9v1h1l1,1v1l-1,1H8v-1h2v-1H9z" xmlns="http://www.w3.org/2000/svg" />
</g>

<g transform="translate(68, 228)">
<style type="text/css" xmlns="http://www.w3.org/2000/svg">
	.stexp0{fill-rule:evenodd;clip-rule:evenodd;fill:#757575;}
</style>
<path class="stexp0" d="M13,0H4c0,0,0,0,0,0.1C4,1,4,6,4,6H0v7h4v3h12V3L13,0z M4,8L3,9v1l1,1v1H3l-0.5-1L2,12H1v-1l1-1V9L1,8V7h1&#xD;&#xA;	l0.5,1L3,7h1V8z M6,2h5v3h3v1H6V2z M10,9l1,1v1l-1,1H8v-1h2v-1H9L8,9V8l1-1h2v1H9v1H10z M5,7h1v4h1v1H5V7z M14,14H6v-1h6h2V14z&#xD;&#xA;	 M15,8l-1,1v1l1,1v1h-1l-0.5-1L13,12h-1v-1l1-1V9l-1-1V7h1l0.5,1L14,7h1V8z" xmlns="http://www.w3.org/2000/svg" />
</g>

<g transform="translate(85, 143)">
<style type="text/css" xmlns="http://www.w3.org/2000/svg">
	.stexpdis1{fill-rule:evenodd;clip-rule:evenodd;fill:#BDBDBD;}
</style>
<path class="stexpdis1" d="M13,0H4c0,0,0,0,0,0.1C4,1,4,6,4,6H0v7h4v3h12V3L13,0z M4,8L3,9v1l1,1v1H3l-0.5-1L2,12H1v-1l1-1V9L1,8V7h1&#xD;&#xA;	l0.5,1L3,7h1V8z M6,2h5v3h3v1H6V2z M10,9l1,1v1l-1,1H8v-1h2v-1H9L8,9V8l1-1h2v1H9v1H10z M5,7h1v4h1v1H5V7z M14,14H6v-1h6h2V14z&#xD;&#xA;	 M15,8l-1,1v1l1,1v1h-1l-0.5-1L13,12h-1v-1l1-1V9l-1-1V7h1l0.5,1L14,7h1V8z" xmlns="http://www.w3.org/2000/svg" />
</g>

<g transform="translate(68, 262)">
<path fill="#757575" d="M7,0v9h9V0H7z M14,5h-2v2h-1V5H9V4h2V2h1v2h2V5z" xmlns="http://www.w3.org/2000/svg" />
<path fill="#757575" d="M0,7v9h9V7H0z M7,12H5v2H4v-2H2v-1h2V9h1v2h2V12z" xmlns="http://www.w3.org/2000/svg" />
</g>

<g transform="translate(85, 211)">
<path fill="#BDBDBD" d="M7,0v9h9V0H7z M14,5h-2v2h-1V5H9V4h2V2h1v2h2V5z" xmlns="http://www.w3.org/2000/svg" />
<path fill="#BDBDBD" d="M0,7v9h9V7H0z M7,12H5v2H4v-2H2v-1h2V9h1v2h2V12z" xmlns="http://www.w3.org/2000/svg" />
</g>

<g transform="translate(68, 109)">
<g xmlns="http://www.w3.org/2000/svg">
	<path fill="#757575" d="M7,0v9h9V0H7z M14,5H9V4h5V5z" />
	<path fill="#757575" d="M0,7v9h9V7H0z M7,12H2v-1h5V12z" />
</g>
</g>

<g transform="translate(153, 211)">
<g xmlns="http://www.w3.org/2000/svg">
	<path fill="#BDBDBD" d="M7,0v9h9V0H7z M14,5H9V4h5V5z" />
	<path fill="#BDBDBD" d="M0,7v9h9V7H0z M7,12H2v-1h5V12z" />
</g>
</g>

<g transform="translate(68, 211)">
<path fill="#757575" d="M8,1C4.1,1,1,4.1,1,8s3.1,7,7,7s7-3.1,7-7S11.9,1,8,1z M12,9H9v3H7V9H4V7h3V4h2v3h3V9z" xmlns="http://www.w3.org/2000/svg" />
</g>

<g transform="translate(0, 296)">
<path fill="#BDBDBD" d="M8,1C4.1,1,1,4.1,1,8s3.1,7,7,7s7-3.1,7-7S11.9,1,8,1z M12,9H9v3H7V9H4V7h3V4h2v3h3V9z" xmlns="http://www.w3.org/2000/svg" />
</g>

<g transform="translate(17, 126)">
<g xmlns="http://www.w3.org/2000/svg">
	<path fill="#757575" d="M13.6,3.9C12.4,2.1,10.3,1,8,1C4.8,1,2.2,3.1,1.3,6h1.9C3.9,4.1,5.8,2.8,8,2.8c1.8,0,3.4,1,4.4,2.4L10.5,7h2.6&#xD;&#xA;		h1.8H15V2.5L13.6,3.9z" />
	<path fill="#757575" d="M8.2,13.3c-1.7,0-3.2-1-4.2-2.3l2-2H3.1H1.3H1v5l1.8-1.8C4.1,13.8,6,15,8.2,15c3.2,0,5.8-2.1,6.7-5H13&#xD;&#xA;		C12.3,11.9,10.4,13.3,8.2,13.3z" />
</g>
</g>

<g transform="translate(85, 313)">
<g xmlns="http://www.w3.org/2000/svg">
	<path fill="#BDBDBD" d="M13.6,3.9C12.4,2.1,10.3,1,8,1C4.8,1,2.2,3.1,1.3,6h1.9C3.9,4.1,5.8,2.8,8,2.8c1.8,0,3.4,1,4.4,2.4L10.5,7h2.6&#xD;&#xA;		h1.8H15V2.5L13.6,3.9z" />
	<path fill="#BDBDBD" d="M8.2,13.3c-1.7,0-3.2-1-4.2-2.3l2-2H3.1H1.3H1v5l1.8-1.8C4.1,13.8,6,15,8.2,15c3.2,0,5.8-2.1,6.7-5H13&#xD;&#xA;		C12.3,11.9,10.4,13.3,8.2,13.3z" />
</g>
</g>

<g transform="translate(136, 279)">
<style type="text/css" xmlns="http://www.w3.org/2000/svg">
	.st50{fill-rule:evenodd;clip-rule:evenodd;fill:#757575;}
</style>
<g xmlns="http://www.w3.org/2000/svg">
	<g>
		<path class="st50" d="M13,0H2C0.9,0,0,0.9,0,2v14l4-3h9c1.1,0,2-0.9,2-2V2C15,0.9,14.1,0,13,0z M11,6.5c0,0.1,0,0.3,0,0.4l1,0.7&#xD;&#xA;			C12,7.8,12,7.9,12,8l-0.9,1.6c-0.1,0.1-0.2,0.1-0.3,0.1L9.6,9.2C9.4,9.4,9.1,9.5,8.8,9.6l-0.2,1.2c0,0.1-0.1,0.2-0.2,0.2H6.6&#xD;&#xA;			c-0.1,0-0.2-0.1-0.2-0.2L6.2,9.6C5.9,9.5,5.6,9.4,5.4,9.2L4.2,9.6c-0.1,0-0.2,0-0.3-0.1L3,8C3,7.9,3,7.8,3.1,7.7l1-0.7&#xD;&#xA;			c0-0.1,0-0.3,0-0.4s0-0.3,0-0.4l-1-0.7C3,5.3,3,5.1,3,5l0.9-1.6C4,3.4,4.1,3.3,4.2,3.4l1.2,0.5c0.2-0.2,0.5-0.3,0.8-0.4l0.2-1.2&#xD;&#xA;			C6.4,2.1,6.5,2,6.6,2h1.9c0.1,0,0.2,0.1,0.2,0.2l0.2,1.2c0.3,0.1,0.6,0.3,0.8,0.4l1.2-0.5c0.1,0,0.2,0,0.3,0.1L12,5&#xD;&#xA;			c0.1,0.1,0,0.2-0.1,0.3l-1,0.7C11,6.2,11,6.4,11,6.5z M7.5,5C6.7,5,6,5.7,6,6.5C6,7.3,6.7,8,7.5,8S9,7.3,9,6.5C9,5.7,8.3,5,7.5,5z&#xD;&#xA;			" />
	</g>
</g>
</g>

<g transform="translate(85, 177)">
<style type="text/css" xmlns="http://www.w3.org/2000/svg">
	.st51{opacity:0.5;}
	.st52{fill-rule:evenodd;clip-rule:evenodd;fill:#757575;}
</style>
<g class="st51" xmlns="http://www.w3.org/2000/svg">
	<g>
		<path class="st52" d="M13,0H2C0.9,0,0,0.9,0,2v14l4-3h9c1.1,0,2-0.9,2-2V2C15,0.9,14.1,0,13,0z M11,6.5c0,0.1,0,0.3,0,0.4l1,0.7&#xD;&#xA;			C12,7.8,12,7.9,12,8l-0.9,1.6c-0.1,0.1-0.2,0.1-0.3,0.1L9.6,9.2C9.4,9.4,9.1,9.5,8.8,9.6l-0.2,1.2c0,0.1-0.1,0.2-0.2,0.2H6.6&#xD;&#xA;			c-0.1,0-0.2-0.1-0.2-0.2L6.2,9.6C5.9,9.5,5.6,9.4,5.4,9.2L4.2,9.6c-0.1,0-0.2,0-0.3-0.1L3,8C3,7.9,3,7.8,3.1,7.7l1-0.7&#xD;&#xA;			c0-0.1,0-0.3,0-0.4s0-0.3,0-0.4l-1-0.7C3,5.3,3,5.1,3,5l0.9-1.6C4,3.4,4.1,3.3,4.2,3.4l1.2,0.5c0.2-0.2,0.5-0.3,0.8-0.4l0.2-1.2&#xD;&#xA;			C6.4,2.1,6.5,2,6.6,2h1.9c0.1,0,0.2,0.1,0.2,0.2l0.2,1.2c0.3,0.1,0.6,0.3,0.8,0.4l1.2-0.5c0.1,0,0.2,0,0.3,0.1L12,5&#xD;&#xA;			c0.1,0.1,0,0.2-0.1,0.3l-1,0.7C11,6.2,11,6.4,11,6.5z M7.5,5C6.7,5,6,5.7,6,6.5C6,7.3,6.7,8,7.5,8S9,7.3,9,6.5C9,5.7,8.3,5,7.5,5z&#xD;&#xA;			" />
	</g>
</g>
</g>

<g transform="translate(136, 160)">
<path fill="#BDBDBD" d="M12,0H0v10h4h1l0,0V9l0,0V7l0,0V6l0,0V4h8V3V0H12z M1,1h3v2H1V1z M4,9H1V7h3V9z M4,6H1V4h3V6z M5,3V1h3v2H5z&#xD;&#xA;	 M9,3V1h3v2H9z" xmlns="http://www.w3.org/2000/svg" />
<g xmlns="http://www.w3.org/2000/svg">
	<path fill="#757575" d="M4,3v13h12V3H4z M15,15H5V4h10V15z" />
	<rect x="6" y="8" fill="#757575" width="8" height="1" />
	<rect x="6" y="10" fill="#757575" width="8" height="1" />
	<rect x="6" y="12" fill="#757575" width="8" height="1" />
	<rect x="6" y="6" fill="#757575" width="8" height="1" />
</g>
</g>

<g transform="translate(51, 296)">
<path fill="#BDBDBD" d="M12,0H0v10h4h1l0,0V9l0,0V7l0,0V6l0,0V4h8V3V0H12z M1,1h3v2H1V1z M4,9H1V7h3V9z M4,6H1V4h3V6z M5,3V1h3v2H5z&#xD;&#xA;	 M9,3V1h3v2H9z" xmlns="http://www.w3.org/2000/svg" />
<g xmlns="http://www.w3.org/2000/svg">
	<path fill="#BDBDBD" d="M4,3v13h12V3H4z M15,15H5V4h10V15z" />
	<rect x="6" y="8" fill="#BDBDBD" width="8" height="1" />
	<rect x="6" y="10" fill="#BDBDBD" width="8" height="1" />
	<rect x="6" y="12" fill="#BDBDBD" width="8" height="1" />
	<rect x="6" y="6" fill="#BDBDBD" width="8" height="1" />
</g>
</g>

<g transform="translate(105, 330)">
<polygon fill="#757575" points="2,1 12,1 12,3 8,6 8,11 6,13 6,6 2,3 " xmlns="http://www.w3.org/2000/svg" />
</g>

<g transform="translate(142, 313)">
<polygon fill="#BDBDBD" points="2,1 12,1 12,3 8,6 8,11 6,13 6,6 2,3 " xmlns="http://www.w3.org/2000/svg" />
</g>

<g transform="translate(136, 92)">
<g xmlns="http://www.w3.org/2000/svg">
	<path fill="#757575" d="M11.5,15C9,15,7,13.4,7,11.5S9,8,11.5,8S16,9.6,16,11.5S14,15,11.5,15z M11.5,9C10.1,9,9,10.1,9,11.5&#xD;&#xA;		s1.1,2.5,2.5,2.5s2.5-1.1,2.5-2.5S12.9,9,11.5,9z M11.5,13c-0.8,0-1.5-0.7-1.5-1.5s0.7-1.5,1.5-1.5s1.5,0.7,1.5,1.5&#xD;&#xA;		S12.3,13,11.5,13z M6,12l-2,2V7L0,4V2h10v2L6,7V12z" />
</g>
<g xmlns="http://www.w3.org/2000/svg">
	<path fill="#757575" d="M15,7l1,1l-8,8l-1-1L15,7z" />
</g>
</g>

<g transform="translate(34, 245)">
<g xmlns="http://www.w3.org/2000/svg">
	<path fill="#BDBDBD" d="M11.5,15C9,15,7,13.4,7,11.5S9,8,11.5,8S16,9.6,16,11.5S14,15,11.5,15z M11.5,9C10.1,9,9,10.1,9,11.5&#xD;&#xA;		s1.1,2.5,2.5,2.5s2.5-1.1,2.5-2.5S12.9,9,11.5,9z M11.5,13c-0.8,0-1.5-0.7-1.5-1.5s0.7-1.5,1.5-1.5s1.5,0.7,1.5,1.5&#xD;&#xA;		S12.3,13,11.5,13z M6,12l-2,2V7L0,4V2h10v2L6,7V12z" />
</g>
</g>

<g transform="translate(51, 92)">
<g xmlns="http://www.w3.org/2000/svg">
	<path fill="#BDBDBD" d="M15,6v2h-4V6h-1v2H6V6H5v2H1V6H0v2v1v2v1v2v1h16v-1v-2v-1V9V8V6H15z M10,9v2H6V9H10z M1,9h4v2H1V9z M1,14v-2h4&#xD;&#xA;		v2H1z M6,14v-2h4v2H6z M15,14h-4v-2h4V14z M15,11h-4V9h4V11z" />
	<path fill="#757575" d="M0,1v5h16V1H0z M5,4H1V3h4V4z M10,4H6V3h4V4z" />
</g>
</g>

<g transform="translate(51, 177)">
<g xmlns="http://www.w3.org/2000/svg">
	<path fill="#BDBDBD" d="M15,6v2h-4V6h-1v2H6V6H5v2H1V6H0v2v1v2v1v2v1h16v-1v-2v-1V9V8V6H15z M10,9v2H6V9H10z M1,9h4v2H1V9z M1,14v-2h4&#xD;&#xA;		v2H1z M6,14v-2h4v2H6z M15,14h-4v-2h4V14z M15,11h-4V9h4V11z" />
	<path fill="#BDBDBD" d="M0,1v5h16V1H0z M5,4H1V3h4V4z M10,4H6V3h4V4z" />
</g>
</g>

<g transform="translate(60, 330)">
<g xmlns="http://www.w3.org/2000/svg">
	<path fill="#757575" d="M9.9,9.3h0.7l3.4,3.4L12.7,14l-3.4-3.4V9.9L9.1,9.7c-1,0.8-2.2,1.3-3.6,1.3C2.5,11,0,8.6,0,5.5&#xD;&#xA;		C0,2.5,2.5,0,5.5,0C8.6,0,11,2.5,11,5.5c0,1.4-0.5,2.6-1.3,3.6L9.9,9.3z M5.5,2C3.6,2,2,3.6,2,5.5S3.6,9,5.5,9S9,7.4,9,5.5&#xD;&#xA;		S7.4,2,5.5,2z" />
</g>
</g>

<g transform="translate(136, 177)">
<g xmlns="http://www.w3.org/2000/svg">
	<path fill="#BDBDBD" d="M12.5,11h-0.8l-0.3-0.3c1-1.1,1.6-2.6,1.6-4.2C13,2.9,10.1,0,6.5,0S0,2.9,0,6.5C0,10.1,2.9,13,6.5,13&#xD;&#xA;		c1.6,0,3.1-0.6,4.2-1.6l0.3,0.3v0.8l3.5,3.5l1.5-1.5L12.5,11z M6.5,11C4,11,2,9,2,6.5C2,4,4,2,6.5,2C9,2,11,4,11,6.5&#xD;&#xA;		C11,9,9,11,6.5,11z" />
</g>
</g>

<g transform="translate(45, 345)">
<path fill="#DC4C40" d="M7,0C3.1,0,0,3.1,0,7s3.1,7,7,7s7-3.1,7-7S10.9,0,7,0z M8,12H6v-2h2V12z M8,8H6V2h2V8z" xmlns="http://www.w3.org/2000/svg" />
</g>

<g transform="translate(0, 177)">
<g xmlns="http://www.w3.org/2000/svg">
	<polygon fill="#757575" points="14,14 15,13 13,11 15,9 14,8 12,10 10,8 9,9 11,11 9,13 10,14 12,12 	" />
</g>
<polygon fill="#757575" points="0,2 10,2 10,4 6,7 6,12 4,14 4,7 0,4 " xmlns="http://www.w3.org/2000/svg" />
</g>

<g transform="translate(34, 211)">
<g xmlns="http://www.w3.org/2000/svg">
	<polygon fill="#BDBDBD" points="14,14 15,13 13,11 15,9 14,8 12,10 10,8 9,9 11,11 9,13 10,14 12,12 	" />
</g>
<polygon fill="#BDBDBD" points="0,2 10,2 10,4 6,7 6,12 4,14 4,7 0,4 " xmlns="http://www.w3.org/2000/svg" />
</g>

<g transform="translate(68, 279)">
<g xmlns="http://www.w3.org/2000/svg">
	<polygon fill="#757575" points="11,2 10,3 12,5 10,7 11,8 13,6 15,8 16,7 14,5 16,3 15,2 13,4 	" />
</g>
<rect y="3" fill="#757575" width="8" height="4" xmlns="http://www.w3.org/2000/svg" />
<rect x="4" y="10" fill="#757575" width="12" height="4" xmlns="http://www.w3.org/2000/svg" />
</g>

<g transform="translate(0, 262)">
<g xmlns="http://www.w3.org/2000/svg">
	<polygon fill="#BDBDBD" points="11,2 10,3 12,5 10,7 11,8 13,6 15,8 16,7 14,5 16,3 15,2 13,4 	" />
</g>
<rect y="3" fill="#BDBDBD" width="8" height="4" xmlns="http://www.w3.org/2000/svg" />
<rect x="4" y="10" fill="#BDBDBD" width="12" height="4" xmlns="http://www.w3.org/2000/svg" />
</g>

<g transform="translate(51, 211)">
<path fill="#757575" d="M1,1v14h14V1H1z M12,9H9v3H7V9H4V7h3V4h2v3h3V9z" xmlns="http://www.w3.org/2000/svg" />
</g>

<g transform="translate(34, 262)">
<path fill="#BDBDBD" d="M1,1v14h14V1H1z M12,9H9v3H7V9H4V7h3V4h2v3h3V9z" xmlns="http://www.w3.org/2000/svg" />
</g>

<g transform="translate(34, 313)">
<path fill="#757575" d="M1,1v14h14V1H1z M12,9H9v3H7V9H4V7h3V4h2v3h3V9z" xmlns="http://www.w3.org/2000/svg" />
</g>

<g transform="translate(136, 228)">
<path fill="#BDBDBD" d="M1,1v14h14V1H1z M12,9H9v3H7V9H4V7h3V4h2v3h3V9z" xmlns="http://www.w3.org/2000/svg" />
</g>

<g transform="translate(51, 109)">
<polygon fill="#DC4C40" points="14,4 12,2 8,6 4,2 2,4 6,8 2,12 4,14 8,10 12,14 14,12 10,8 " xmlns="http://www.w3.org/2000/svg" />
</g>

<g transform="translate(102, 143)">
<polygon fill="#BDBDBD" points="14,4 12,2 8,6 4,2 2,4 6,8 2,12 4,14 8,10 12,14 14,12 10,8 " xmlns="http://www.w3.org/2000/svg" />
</g>

<g transform="translate(102, 126)">
<g xmlns="http://www.w3.org/2000/svg">
	<path fill="#757575" d="M10,2l-8,8v4h3.9L14,6L10,2z M5,13l-2-2l6-6l2,2L5,13z" />
	<rect x="9" y="13" fill="#757575" width="5" height="1" />
</g>
</g>

<g transform="translate(0, 160)">
<g xmlns="http://www.w3.org/2000/svg">
	<path fill="#BDBDBD" d="M10,2l-8,8v4h3.9L14,6L10,2z M5,13l-2-2l6-6l2,2L5,13z" />
	<rect x="9" y="13" fill="#BDBDBD" width="5" height="1" />
</g>
</g>

<g transform="translate(153, 126)">
<path fill="#757575" d="M1,1v14h14V1H1z M12,9H4V7h8V9z" xmlns="http://www.w3.org/2000/svg" />
</g>

<g transform="translate(102, 245)">
<path fill="#BDBDBD" d="M1,1v14h14V1H1z M12,9H4V7h8V9z" xmlns="http://www.w3.org/2000/svg" />
</g>

<g transform="translate(51, 245)">
<path fill="#757575" d="M1,1v14h14V1H1z M12,9H4V7h8V9z" xmlns="http://www.w3.org/2000/svg" />
</g>

<g transform="translate(153, 92)">
<path fill="#BDBDBD" d="M1,1v14h14V1H1z M12,9H4V7h8V9z" xmlns="http://www.w3.org/2000/svg" />
</g>

<g transform="translate(119, 177)">
<style type="text/css" xmlns="http://www.w3.org/2000/svg">
	.stexp0{fill-rule:evenodd;clip-rule:evenodd;fill:#757575;}
</style>
<g xmlns="http://www.w3.org/2000/svg">
	<path class="stexp0" d="M4,16v-3H0V6h4c0,0,0-5,0-5.9C4,0,4,0,4,0h9l3,3v13H4z M4,11H2V8h2V7H2L1,8v3l1,1h2V11z M5,9l1,1h1v1H5v1h2&#xD;&#xA;		l1-1v-1L7,9H6V8h2V7H6L5,8V9z M14,5h-3V2H6v4h7v1v6h-1H6v1h8V5z M10,11V7H9v4l1,1h1l1-1V7h-1v4H10z" />
</g>
</g>

<g transform="translate(153, 143)">
<style type="text/css" xmlns="http://www.w3.org/2000/svg">
	.stexpdis1{fill-rule:evenodd;clip-rule:evenodd;fill:#BDBDBD;}
</style>
<g xmlns="http://www.w3.org/2000/svg">
	<path class="stexpdis1" d="M4,16v-3H0V6h4c0,0,0-5,0-5.9C4,0,4,0,4,0h9l3,3v13H4z M4,11H2V8h2V7H2L1,8v3l1,1h2V11z M5,9l1,1h1v1H5v1h2&#xD;&#xA;		l1-1v-1L7,9H6V8h2V7H6L5,8V9z M14,5h-3V2H6v4h7v1v6h-1H6v1h8V5z M10,11V7H9v4l1,1h1l1-1V7h-1v4H10z" />
</g>
</g>

<g transform="translate(68, 126)">
<style type="text/css" xmlns="http://www.w3.org/2000/svg">
	.stexp0{fill-rule:evenodd;clip-rule:evenodd;fill:#757575;}
</style>
<g xmlns="http://www.w3.org/2000/svg">
	<rect x="6" y="8" class="stexp0" width="1" height="3" />
	<rect x="2" y="8" class="stexp0" width="1" height="1" />
</g>
<g xmlns="http://www.w3.org/2000/svg">
	<rect x="6" y="8" class="stexp0" width="1" height="3" />
	<rect x="2" y="8" class="stexp0" width="1" height="3" />
	<path class="stexp0" d="M13,0H4c0,0,0,0,0,0.1C4,1,4,6,4,6H0v7h4v3h12V3L13,0z M4,11l-1,1H1V7h2l1,1V11z M6,2h5v3h3v1H6V2z M11,11v1&#xD;&#xA;		h-1l-1-1V8l1-1h1v1h-1v3H11z M5,8l1-1h1l1,1v3l-1,1H6l-1-1V8z M14,14H6v-1h6h2V14z M15,8l-1,1v1l1,1v1h-1l-0.5-1L13,12h-1v-1l1-1V9&#xD;&#xA;		l-1-1V7h1l0.5,1L14,7h1V8z" />
</g>
</g>

<g transform="translate(0, 109)">
<style type="text/css" xmlns="http://www.w3.org/2000/svg">
	.stexpdis1{fill-rule:evenodd;clip-rule:evenodd;fill:#BDBDBD;}
</style>
<g xmlns="http://www.w3.org/2000/svg">
	<rect x="6" y="8" class="stexpdis1" width="1" height="3" />
	<rect x="2" y="8" class="stexpdis1" width="1" height="1" />
</g>
<g xmlns="http://www.w3.org/2000/svg">
	<rect x="6" y="8" class="stexpdis1" width="1" height="3" />
	<rect x="2" y="8" class="stexpdis1" width="1" height="3" />
	<path class="stexpdis1" d="M13,0H4c0,0,0,0,0,0.1C4,1,4,6,4,6H0v7h4v3h12V3L13,0z M4,11l-1,1H1V7h2l1,1V11z M6,2h5v3h3v1H6V2z M11,11v1&#xD;&#xA;		h-1l-1-1V8l1-1h1v1h-1v3H11z M5,8l1-1h1l1,1v3l-1,1H6l-1-1V8z M14,14H6v-1h6h2V14z M15,8l-1,1v1l1,1v1h-1l-0.5-1L13,12h-1v-1l1-1V9&#xD;&#xA;		l-1-1V7h1l0.5,1L14,7h1V8z" />
</g>
</g>

<g transform="translate(102, 177)">
<style type="text/css" xmlns="http://www.w3.org/2000/svg">
	.stexp0{fill-rule:evenodd;clip-rule:evenodd;fill:#757575;}
</style>
<g xmlns="http://www.w3.org/2000/svg">
	<rect x="6" y="8" class="stexp0" width="1" height="3" />
	<rect x="2" y="8" class="stexp0" width="1" height="1" />
	<path class="stexp0" d="M13,0H4c0,0,0,0,0,0.1C4,1,4,6,4,6H0v7h4v3h12V3L13,0z M4,9l-1,1H2v2H1V7h2l1,1V9z M5,7h2l1,1v3l-1,1H5V7z&#xD;&#xA;		 M14,14H6v-1h6h1V7V6H6V2h5v3h3V14z M11,9v1h-1v2H9V7h3v1h-2v1H11z" />
</g>
</g>

<g transform="translate(0, 92)">
<style type="text/css" xmlns="http://www.w3.org/2000/svg">
	.stexpdis1{fill-rule:evenodd;clip-rule:evenodd;fill:#BDBDBD;}
</style>
<g xmlns="http://www.w3.org/2000/svg">
	<rect x="6" y="8" class="stexpdis1" width="1" height="3" />
	<rect x="2" y="8" class="stexpdis1" width="1" height="1" />
	<path class="stexpdis1" d="M13,0H4c0,0,0,0,0,0.1C4,1,4,6,4,6H0v7h4v3h12V3L13,0z M4,9l-1,1H2v2H1V7h2l1,1V9z M5,7h2l1,1v3l-1,1H5V7z&#xD;&#xA;		 M14,14H6v-1h6h1V7V6H6V2h5v3h3V14z M11,9v1h-1v2H9V7h3v1h-2v1H11z" />
</g>
</g>

<g transform="translate(51, 313)">
<style type="text/css" xmlns="http://www.w3.org/2000/svg">
	.stexp0{fill:#757575;}
</style>
<g xmlns="http://www.w3.org/2000/svg">
	<rect x="2" y="8" class="stexp0" width="1" height="1" />
	<path class="stexp0" d="M13,0H4c0,0,0,0,0,0.1C4,1,4,6,4,6H0v7h4v3h12V3L13,0z M4,9H3l1,1v2H3v-2H2v2H1V7h2l1,1V9z M5,7h3v1H7v4H6V8H5&#xD;&#xA;		V7z M14,14H6v-1h6h1V7V6H6V2h5v3h3V14z M11,9v1h-1v2H9V7h3v1h-2v1H11z" />
</g>
</g>

<g transform="translate(17, 143)">
<style type="text/css" xmlns="http://www.w3.org/2000/svg">
	.stexpdis1{fill:#BDBDBD;}
</style>
<g xmlns="http://www.w3.org/2000/svg">
	<rect x="2" y="8" class="stexpdis1" width="1" height="1" />
	<path class="stexpdis1" d="M13,0H4c0,0,0,0,0,0.1C4,1,4,6,4,6H0v7h4v3h12V3L13,0z M4,9H3l1,1v2H3v-2H2v2H1V7h2l1,1V9z M5,7h3v1H7v4H6V8H5&#xD;&#xA;		V7z M14,14H6v-1h6h1V7V6H6V2h5v3h3V14z M11,9v1h-1v2H9V7h3v1h-2v1H11z" />
</g>
</g>

<g transform="translate(119, 296)">
<style type="text/css" xmlns="http://www.w3.org/2000/svg">
	.stexp0{fill-rule:evenodd;clip-rule:evenodd;fill:#757575;}
</style>
<path class="stexp0" d="M13,0H4c0,0,0,0,0,0.1C4,1,4,6,4,6H0v7h4v3h12V3L13,0z M4,8L3,9v1l1,1v1H3l-0.5-1L2,12H1v-1l1-1V9L1,8V7h1&#xD;&#xA;	l0.5,1L3,7h1V8z M5,7h1v4h1v1H5V7z M14,14H6v-1h6h1V7V6H6V2h5v3h3V14z M9,10L8,9V8l1-1h2v1H9v1h1l1,1v1l-1,1H8v-1h2v-1H9z" xmlns="http://www.w3.org/2000/svg" />
</g>

<g transform="translate(0, 313)">
<style type="text/css" xmlns="http://www.w3.org/2000/svg">
	.stexpdis1{fill-rule:evenodd;clip-rule:evenodd;fill:#BDBDBD;}
</style>
<path class="stexpdis1" d="M13,0H4c0,0,0,0,0,0.1C4,1,4,6,4,6H0v7h4v3h12V3L13,0z M4,8L3,9v1l1,1v1H3l-0.5-1L2,12H1v-1l1-1V9L1,8V7h1&#xD;&#xA;	l0.5,1L3,7h1V8z M5,7h1v4h1v1H5V7z M14,14H6v-1h6h1V7V6H6V2h5v3h3V14z M9,10L8,9V8l1-1h2v1H9v1h1l1,1v1l-1,1H8v-1h2v-1H9z" xmlns="http://www.w3.org/2000/svg" />
</g>

<g transform="translate(85, 92)">
<style type="text/css" xmlns="http://www.w3.org/2000/svg">
	.stexp0{fill-rule:evenodd;clip-rule:evenodd;fill:#757575;}
</style>
<path class="stexp0" d="M13,0H4c0,0,0,0,0,0.1C4,1,4,6,4,6H0v7h4v3h12V3L13,0z M4,8L3,9v1l1,1v1H3l-0.5-1L2,12H1v-1l1-1V9L1,8V7h1&#xD;&#xA;	l0.5,1L3,7h1V8z M6,2h5v3h3v1H6V2z M10,9l1,1v1l-1,1H8v-1h2v-1H9L8,9V8l1-1h2v1H9v1H10z M5,7h1v4h1v1H5V7z M14,14H6v-1h6h2V14z&#xD;&#xA;	 M15,8l-1,1v1l1,1v1h-1l-0.5-1L13,12h-1v-1l1-1V9l-1-1V7h1l0.5,1L14,7h1V8z" xmlns="http://www.w3.org/2000/svg" />
</g>

<g transform="translate(17, 160)">
<style type="text/css" xmlns="http://www.w3.org/2000/svg">
	.stexpdis1{fill-rule:evenodd;clip-rule:evenodd;fill:#BDBDBD;}
</style>
<path class="stexpdis1" d="M13,0H4c0,0,0,0,0,0.1C4,1,4,6,4,6H0v7h4v3h12V3L13,0z M4,8L3,9v1l1,1v1H3l-0.5-1L2,12H1v-1l1-1V9L1,8V7h1&#xD;&#xA;	l0.5,1L3,7h1V8z M6,2h5v3h3v1H6V2z M10,9l1,1v1l-1,1H8v-1h2v-1H9L8,9V8l1-1h2v1H9v1H10z M5,7h1v4h1v1H5V7z M14,14H6v-1h6h2V14z&#xD;&#xA;	 M15,8l-1,1v1l1,1v1h-1l-0.5-1L13,12h-1v-1l1-1V9l-1-1V7h1l0.5,1L14,7h1V8z" xmlns="http://www.w3.org/2000/svg" />
</g>

<g transform="translate(17, 177)">
<path fill="#757575" d="M7,0v9h9V0H7z M14,5h-2v2h-1V5H9V4h2V2h1v2h2V5z" xmlns="http://www.w3.org/2000/svg" />
<path fill="#757575" d="M0,7v9h9V7H0z M7,12H5v2H4v-2H2v-1h2V9h1v2h2V12z" xmlns="http://www.w3.org/2000/svg" />
</g>

<g transform="translate(85, 160)">
<path fill="#BDBDBD" d="M7,0v9h9V0H7z M14,5h-2v2h-1V5H9V4h2V2h1v2h2V5z" xmlns="http://www.w3.org/2000/svg" />
<path fill="#BDBDBD" d="M0,7v9h9V7H0z M7,12H5v2H4v-2H2v-1h2V9h1v2h2V12z" xmlns="http://www.w3.org/2000/svg" />
</g>

<g transform="translate(68, 160)">
<g xmlns="http://www.w3.org/2000/svg">
	<path fill="#757575" d="M7,0v9h9V0H7z M14,5H9V4h5V5z" />
	<path fill="#757575" d="M0,7v9h9V7H0z M7,12H2v-1h5V12z" />
</g>
</g>

<g transform="translate(17, 245)">
<g xmlns="http://www.w3.org/2000/svg">
	<path fill="#BDBDBD" d="M7,0v9h9V0H7z M14,5H9V4h5V5z" />
	<path fill="#BDBDBD" d="M0,7v9h9V7H0z M7,12H2v-1h5V12z" />
</g>
</g>

<g transform="translate(119, 92)">
<circle fill="#FFFFFF" cx="0.2" cy="3" r="0" xmlns="http://www.w3.org/2000/svg" />
<rect y="3" fill="#757575" width="12" height="4" xmlns="http://www.w3.org/2000/svg" />
<rect x="4" y="9" fill="#757575" width="12" height="4" xmlns="http://www.w3.org/2000/svg" />
</g>

<g transform="translate(153, 69)">
<rect y="3" fill="#BDBDBD" width="12" height="4" xmlns="http://www.w3.org/2000/svg" />
<rect x="4" y="9" fill="#BDBDBD" width="12" height="4" xmlns="http://www.w3.org/2000/svg" />
</g>

<g transform="translate(34, 228)">
<path fill="#757575" d="M8,1C4.1,1,1,4.1,1,8s3.1,7,7,7s7-3.1,7-7S11.9,1,8,1z M12,9H9v3H7V9H4V7h3V4h2v3h3V9z" xmlns="http://www.w3.org/2000/svg" />
</g>

<g transform="translate(136, 126)">
<path fill="#BDBDBD" d="M8,1C4.1,1,1,4.1,1,8s3.1,7,7,7s7-3.1,7-7S11.9,1,8,1z M12,9H9v3H7V9H4V7h3V4h2v3h3V9z" xmlns="http://www.w3.org/2000/svg" />
</g>

<g transform="translate(17, 92)">
<g xmlns="http://www.w3.org/2000/svg">
	<path fill="#757575" d="M13.6,3.9C12.4,2.1,10.3,1,8,1C4.8,1,2.2,3.1,1.3,6h1.9C3.9,4.1,5.8,2.8,8,2.8c1.8,0,3.4,1,4.4,2.4L10.5,7h2.6&#xD;&#xA;		h1.8H15V2.5L13.6,3.9z" />
	<path fill="#757575" d="M8.2,13.3c-1.7,0-3.2-1-4.2-2.3l2-2H3.1H1.3H1v5l1.8-1.8C4.1,13.8,6,15,8.2,15c3.2,0,5.8-2.1,6.7-5H13&#xD;&#xA;		C12.3,11.9,10.4,13.3,8.2,13.3z" />
</g>
</g>

<g transform="translate(34, 126)">
<g xmlns="http://www.w3.org/2000/svg">
	<path fill="#BDBDBD" d="M13.6,3.9C12.4,2.1,10.3,1,8,1C4.8,1,2.2,3.1,1.3,6h1.9C3.9,4.1,5.8,2.8,8,2.8c1.8,0,3.4,1,4.4,2.4L10.5,7h2.6&#xD;&#xA;		h1.8H15V2.5L13.6,3.9z" />
	<path fill="#BDBDBD" d="M8.2,13.3c-1.7,0-3.2-1-4.2-2.3l2-2H3.1H1.3H1v5l1.8-1.8C4.1,13.8,6,15,8.2,15c3.2,0,5.8-2.1,6.7-5H13&#xD;&#xA;		C12.3,11.9,10.4,13.3,8.2,13.3z" />
</g>
</g>

<g transform="translate(150, 330)">
<g xmlns="http://www.w3.org/2000/svg">
	<path fill="#757575" d="M9.9,9.3h0.7l3.4,3.4L12.7,14l-3.4-3.4V9.9L9.1,9.7c-1,0.8-2.2,1.3-3.6,1.3C2.5,11,0,8.6,0,5.5&#xD;&#xA;		C0,2.5,2.5,0,5.5,0C8.6,0,11,2.5,11,5.5c0,1.4-0.5,2.6-1.3,3.6L9.9,9.3z M5.5,2C3.6,2,2,3.6,2,5.5S3.6,9,5.5,9S9,7.4,9,5.5&#xD;&#xA;		S7.4,2,5.5,2z" />
</g>
</g>

<g transform="translate(51, 194)">
<g xmlns="http://www.w3.org/2000/svg">
	<path fill="#BDBDBD" d="M12.5,11h-0.8l-0.3-0.3c1-1.1,1.6-2.6,1.6-4.2C13,2.9,10.1,0,6.5,0S0,2.9,0,6.5C0,10.1,2.9,13,6.5,13&#xD;&#xA;		c1.6,0,3.1-0.6,4.2-1.6l0.3,0.3v0.8l3.5,3.5l1.5-1.5L12.5,11z M6.5,11C4,11,2,9,2,6.5C2,4,4,2,6.5,2C9,2,11,4,11,6.5&#xD;&#xA;		C11,9,9,11,6.5,11z" />
</g>
</g>

<g transform="translate(51, 262)">
<style type="text/css" xmlns="http://www.w3.org/2000/svg">
	.st50{fill-rule:evenodd;clip-rule:evenodd;fill:#757575;}
</style>
<g xmlns="http://www.w3.org/2000/svg">
	<g>
		<path class="st50" d="M13,0H2C0.9,0,0,0.9,0,2v14l4-3h9c1.1,0,2-0.9,2-2V2C15,0.9,14.1,0,13,0z M11,6.5c0,0.1,0,0.3,0,0.4l1,0.7&#xD;&#xA;			C12,7.8,12,7.9,12,8l-0.9,1.6c-0.1,0.1-0.2,0.1-0.3,0.1L9.6,9.2C9.4,9.4,9.1,9.5,8.8,9.6l-0.2,1.2c0,0.1-0.1,0.2-0.2,0.2H6.6&#xD;&#xA;			c-0.1,0-0.2-0.1-0.2-0.2L6.2,9.6C5.9,9.5,5.6,9.4,5.4,9.2L4.2,9.6c-0.1,0-0.2,0-0.3-0.1L3,8C3,7.9,3,7.8,3.1,7.7l1-0.7&#xD;&#xA;			c0-0.1,0-0.3,0-0.4s0-0.3,0-0.4l-1-0.7C3,5.3,3,5.1,3,5l0.9-1.6C4,3.4,4.1,3.3,4.2,3.4l1.2,0.5c0.2-0.2,0.5-0.3,0.8-0.4l0.2-1.2&#xD;&#xA;			C6.4,2.1,6.5,2,6.6,2h1.9c0.1,0,0.2,0.1,0.2,0.2l0.2,1.2c0.3,0.1,0.6,0.3,0.8,0.4l1.2-0.5c0.1,0,0.2,0,0.3,0.1L12,5&#xD;&#xA;			c0.1,0.1,0,0.2-0.1,0.3l-1,0.7C11,6.2,11,6.4,11,6.5z M7.5,5C6.7,5,6,5.7,6,6.5C6,7.3,6.7,8,7.5,8S9,7.3,9,6.5C9,5.7,8.3,5,7.5,5z&#xD;&#xA;			" />
	</g>
</g>
</g>

<g transform="translate(153, 228)">
<style type="text/css" xmlns="http://www.w3.org/2000/svg">
	.st51{opacity:0.5;}
	.st52{fill-rule:evenodd;clip-rule:evenodd;fill:#757575;}
</style>
<g class="st51" xmlns="http://www.w3.org/2000/svg">
	<g>
		<path class="st52" d="M13,0H2C0.9,0,0,0.9,0,2v14l4-3h9c1.1,0,2-0.9,2-2V2C15,0.9,14.1,0,13,0z M11,6.5c0,0.1,0,0.3,0,0.4l1,0.7&#xD;&#xA;			C12,7.8,12,7.9,12,8l-0.9,1.6c-0.1,0.1-0.2,0.1-0.3,0.1L9.6,9.2C9.4,9.4,9.1,9.5,8.8,9.6l-0.2,1.2c0,0.1-0.1,0.2-0.2,0.2H6.6&#xD;&#xA;			c-0.1,0-0.2-0.1-0.2-0.2L6.2,9.6C5.9,9.5,5.6,9.4,5.4,9.2L4.2,9.6c-0.1,0-0.2,0-0.3-0.1L3,8C3,7.9,3,7.8,3.1,7.7l1-0.7&#xD;&#xA;			c0-0.1,0-0.3,0-0.4s0-0.3,0-0.4l-1-0.7C3,5.3,3,5.1,3,5l0.9-1.6C4,3.4,4.1,3.3,4.2,3.4l1.2,0.5c0.2-0.2,0.5-0.3,0.8-0.4l0.2-1.2&#xD;&#xA;			C6.4,2.1,6.5,2,6.6,2h1.9c0.1,0,0.2,0.1,0.2,0.2l0.2,1.2c0.3,0.1,0.6,0.3,0.8,0.4l1.2-0.5c0.1,0,0.2,0,0.3,0.1L12,5&#xD;&#xA;			c0.1,0.1,0,0.2-0.1,0.3l-1,0.7C11,6.2,11,6.4,11,6.5z M7.5,5C6.7,5,6,5.7,6,6.5C6,7.3,6.7,8,7.5,8S9,7.3,9,6.5C9,5.7,8.3,5,7.5,5z&#xD;&#xA;			" />
	</g>
</g>
</g>

<g transform="translate(17, 279)">
<path fill="#BDBDBD" d="M12,0H0v10h4h1l0,0V9l0,0V7l0,0V6l0,0V4h8V3V0H12z M1,1h3v2H1V1z M4,9H1V7h3V9z M4,6H1V4h3V6z M5,3V1h3v2H5z&#xD;&#xA;	 M9,3V1h3v2H9z" xmlns="http://www.w3.org/2000/svg" />
<g xmlns="http://www.w3.org/2000/svg">
	<path fill="#757575" d="M4,3v13h12V3H4z M15,15H5V4h10V15z" />
	<rect x="6" y="8" fill="#757575" width="8" height="1" />
	<rect x="6" y="10" fill="#757575" width="8" height="1" />
	<rect x="6" y="12" fill="#757575" width="8" height="1" />
	<rect x="6" y="6" fill="#757575" width="8" height="1" />
</g>
</g>

<g transform="translate(119, 211)">
<path fill="#BDBDBD" d="M12,0H0v10h4h1l0,0V9l0,0V7l0,0V6l0,0V4h8V3V0H12z M1,1h3v2H1V1z M4,9H1V7h3V9z M4,6H1V4h3V6z M5,3V1h3v2H5z&#xD;&#xA;	 M9,3V1h3v2H9z" xmlns="http://www.w3.org/2000/svg" />
<g xmlns="http://www.w3.org/2000/svg">
	<path fill="#BDBDBD" d="M4,3v13h12V3H4z M15,15H5V4h10V15z" />
	<rect x="6" y="8" fill="#BDBDBD" width="8" height="1" />
	<rect x="6" y="10" fill="#BDBDBD" width="8" height="1" />
	<rect x="6" y="12" fill="#BDBDBD" width="8" height="1" />
	<rect x="6" y="6" fill="#BDBDBD" width="8" height="1" />
</g>
</g>

<g transform="translate(135, 330)">
<polygon fill="#757575" points="2,1 12,1 12,3 8,6 8,11 6,13 6,6 2,3 " xmlns="http://www.w3.org/2000/svg" />
</g>

<g transform="translate(157, 313)">
<polygon fill="#BDBDBD" points="2,1 12,1 12,3 8,6 8,11 6,13 6,6 2,3 " xmlns="http://www.w3.org/2000/svg" />
</g>

<g transform="translate(136, 109)">
<g xmlns="http://www.w3.org/2000/svg">
	<path fill="#BDBDBD" d="M15,6v2h-4V6h-1v2H6V6H5v2H1V6H0v2v1v2v1v2v1h16v-1v-2v-1V9V8V6H15z M10,9v2H6V9H10z M1,9h4v2H1V9z M1,14v-2h4&#xD;&#xA;		v2H1z M6,14v-2h4v2H6z M15,14h-4v-2h4V14z M15,11h-4V9h4V11z" />
	<path fill="#757575" d="M0,1v5h16V1H0z M5,4H1V3h4V4z M10,4H6V3h4V4z" />
</g>
</g>

<g transform="translate(102, 211)">
<g xmlns="http://www.w3.org/2000/svg">
	<path fill="#BDBDBD" d="M15,6v2h-4V6h-1v2H6V6H5v2H1V6H0v2v1v2v1v2v1h16v-1v-2v-1V9V8V6H15z M10,9v2H6V9H10z M1,9h4v2H1V9z M1,14v-2h4&#xD;&#xA;		v2H1z M6,14v-2h4v2H6z M15,14h-4v-2h4V14z M15,11h-4V9h4V11z" />
	<path fill="#BDBDBD" d="M0,1v5h16V1H0z M5,4H1V3h4V4z M10,4H6V3h4V4z" />
</g>
</g>

<g transform="translate(120, 330)">
<g xmlns="http://www.w3.org/2000/svg">
	<path fill="#757575" d="M9.9,9.3h0.7l3.4,3.4L12.7,14l-3.4-3.4V9.9L9.1,9.7c-1,0.8-2.2,1.3-3.6,1.3C2.5,11,0,8.6,0,5.5&#xD;&#xA;		C0,2.5,2.5,0,5.5,0C8.6,0,11,2.5,11,5.5c0,1.4-0.5,2.6-1.3,3.6L9.9,9.3z M5.5,2C3.6,2,2,3.6,2,5.5S3.6,9,5.5,9S9,7.4,9,5.5&#xD;&#xA;		S7.4,2,5.5,2z" />
</g>
</g>

<g transform="translate(17, 228)">
<g xmlns="http://www.w3.org/2000/svg">
	<path fill="#BDBDBD" d="M12.5,11h-0.8l-0.3-0.3c1-1.1,1.6-2.6,1.6-4.2C13,2.9,10.1,0,6.5,0S0,2.9,0,6.5C0,10.1,2.9,13,6.5,13&#xD;&#xA;		c1.6,0,3.1-0.6,4.2-1.6l0.3,0.3v0.8l3.5,3.5l1.5-1.5L12.5,11z M6.5,11C4,11,2,9,2,6.5C2,4,4,2,6.5,2C9,2,11,4,11,6.5&#xD;&#xA;		C11,9,9,11,6.5,11z" />
</g>
</g>

<g transform="translate(119, 279)">
<g xmlns="http://www.w3.org/2000/svg">
	<polygon fill="#757575" points="0,9 8,9 4,14 8,14 8,16 0,16 4,11 0,11 	" />
	<polygon fill="#BDBDBD" points="11,0 11,11 9,11 12,16 15,11 13,11 13,0 	" />
	<path fill="#757575" d="M6,8h2L5,0H3L0,8h2l0.7-2h2.7L6,8z M3.3,4L4,2l0.7,2H3.3z" />
</g>
</g>

<g transform="translate(51, 228)">
<g xmlns="http://www.w3.org/2000/svg">
	<polygon fill="#BDBDBD" points="0,9 8,9 4,14 8,14 8,16 0,16 4,11 0,11 	" />
	<polygon fill="#BDBDBD" points="11,0 11,11 9,11 12,16 15,11 13,11 13,0 	" />
	<path fill="#BDBDBD" d="M6,8h2L5,0H3L0,8h2l0.7-2h2.7L6,8z M3.3,4L4,2l0.7,2H3.3z" />
</g>
</g>

<g transform="translate(34, 92)">
<g xmlns="http://www.w3.org/2000/svg">
	<polygon fill="#757575" points="0,0 8,0 4,5 8,5 8,7 0,7 4,2 0,2 	" />
	<polygon fill="#BDBDBD" points="11,0 11,11 9,11 12,16 15,11 13,11 13,0 	" />
	<path fill="#757575" d="M6,16h2L5,8H3l-3,8h2l0.7-2h2.7L6,16z M3.3,12L4,10l0.7,2H3.3z" />
</g>
</g>

<g transform="translate(0, 143)">
<g xmlns="http://www.w3.org/2000/svg">
	<polygon fill="#BDBDBD" points="0,0 8,0 4,5 8,5 8,7 0,7 4,2 0,2 	" />
	<polygon fill="#BDBDBD" points="11,0 11,11 9,11 11.9,16 15,11 13,11 13,0 	" />
	<path fill="#BDBDBD" d="M6,16h2L5,8H3l-3,8h2l0.7-2h2.7L6,16z M3.3,12L4,10l0.7,2H3.3z" />
</g>
</g>

<g transform="translate(34, 177)">
<polygon fill="#757575" points="6,3 6,2 2,2 2,3 4,5 2,7 2,8 6,8 6,7 3,7 5,5 3,3 5,3 " xmlns="http://www.w3.org/2000/svg" />
<path fill="#757575" d="M13.7,8.5C13.5,8.3,13.1,8,12.5,8H10l-1,6h1l0.8-5h1.7c0.2,0,0.3,0.1,0.4,0.1C13,9.2,13,9.4,13,9.4L12.2,14h1&#xD;&#xA;	L14,9.6C14,9.2,14,8.8,13.7,8.5z" xmlns="http://www.w3.org/2000/svg" />
<rect x="0.2" y="7.3" transform="matrix(0.7071 -0.7071 0.7071 0.7071 -3.3137 7.9999)" fill="#757575" width="15.6" height="1.4" xmlns="http://www.w3.org/2000/svg" />
</g>

<g transform="translate(34, 296)">
<polygon fill="#bdbdbd" points="6,3 6,2 2,2 2,3 4,5 2,7 2,8 6,8 6,7 3,7 5,5 3,3 5,3 " xmlns="http://www.w3.org/2000/svg" />
<path fill="#bdbdbd" d="M13.7,8.5C13.5,8.3,13.1,8,12.5,8H10l-1,6h1l0.8-5h1.7c0.2,0,0.3,0.1,0.4,0.1C13,9.2,13,9.4,13,9.4L12.2,14h1&#xD;&#xA;	L14,9.6C14,9.2,14,8.8,13.7,8.5z" xmlns="http://www.w3.org/2000/svg" />
<rect x="0.2" y="7.3" transform="matrix(0.7071 -0.7071 0.7071 0.7071 -3.3137 7.9999)" fill="#bdbdbd" width="15.6" height="1.4" xmlns="http://www.w3.org/2000/svg" />
</g>

<g transform="translate(102, 296)">
<polygon fill="#757575" points="3,13 6,3 7.5,3 10,11.3 12.5,3 14,3 11,13 9.5,13 6.8,5 4.5,13 " xmlns="http://www.w3.org/2000/svg" />
</g>

<g transform="translate(153, 160)">
<polygon fill="#bdbdbd" points="3,13 6,3 7.5,3 10,11.3 12.5,3 14,3 11,13 9.5,13 6.8,5 4.5,13 " xmlns="http://www.w3.org/2000/svg" />
</g>

<g transform="translate(51, 160)">
<g xmlns="http://www.w3.org/2000/svg">
	<circle fill="#BDBDBD" cx="10.5" cy="4.5" r="3" />
	<path fill="#757575" d="M10.5,2C11.9,2,13,3.1,13,4.5S11.9,7,10.5,7S8,5.9,8,4.5S9.1,2,10.5,2 M10.5,1C8.5,1,7,2.6,7,4.5S8.5,8,10.5,8&#xD;&#xA;		S14,6.4,14,4.5S12.4,1,10.5,1L10.5,1z" />
</g>
<g xmlns="http://www.w3.org/2000/svg">
	<path fill="#757575" d="M8,15c1.7,0,3.3-0.5,4.5-1.5L14,15v-3.3V10h-1.3H9l2.1,2.1c-0.8,0.6-1.9,1.1-3.1,1.1c-3.9,0-6.5-1.8-7-4.1&#xD;&#xA;		C1.5,12.4,4.4,15,8,15z" />
</g>
</g>

<g transform="translate(119, 109)">
<g xmlns="http://www.w3.org/2000/svg">
	<circle fill="#bdbdbd" cx="10.5" cy="4.5" r="3" />
	<path fill="#bdbdbd" d="M10.5,2C11.9,2,13,3.1,13,4.5S11.9,7,10.5,7S8,5.9,8,4.5S9.1,2,10.5,2 M10.5,1C8.5,1,7,2.6,7,4.5S8.5,8,10.5,8&#xD;&#xA;		S14,6.4,14,4.5S12.4,1,10.5,1L10.5,1z" />
</g>
<g xmlns="http://www.w3.org/2000/svg">
	<path fill="#bdbdbd" d="M8,15c1.7,0,3.3-0.5,4.5-1.5L14,15v-3.3V10h-1.3H9l2.1,2.1c-0.8,0.6-1.9,1.1-3.1,1.1c-3.9,0-6.5-1.8-7-4.1&#xD;&#xA;		C1.5,12.4,4.4,15,8,15z" />
</g>
</g>

<g transform="translate(85, 109)">
<g xmlns="http://www.w3.org/2000/svg">
	<circle fill="#BDBDBD" cx="4.5" cy="11.5" r="2" />
	<path fill="#757575" d="M4.5,10C5.4,10,6,10.7,6,11.5S5.4,13,4.5,13S3,12.3,3,11.5S3.7,10,4.5,10 M4.5,9C3.2,9,2,10.1,2,11.5&#xD;&#xA;		S3.2,14,4.5,14S7,12.9,7,11.5S5.9,9,4.5,9L4.5,9z" />
</g>
<g xmlns="http://www.w3.org/2000/svg">
	<path fill="#757575" d="M8,2C6.3,2,4.7,2.5,3.5,3.5L2,2v3.3V7h1.3H7L4.9,4.9c0.9-0.6,2-1,3.1-1c3.9,0,6.5,1.8,7,4.1&#xD;&#xA;		C14.5,4.6,11.6,2,8,2z" />
</g>
</g>

<g transform="translate(17, 211)">
<g xmlns="http://www.w3.org/2000/svg">
	<circle fill="#bdbdbd" cx="4.5" cy="11.5" r="2" />
	<path fill="#bdbdbd" d="M4.5,10C5.4,10,6,10.7,6,11.5S5.4,13,4.5,13S3,12.3,3,11.5S3.7,10,4.5,10 M4.5,9C3.2,9,2,10.1,2,11.5&#xD;&#xA;		S3.2,14,4.5,14S7,12.9,7,11.5S5.9,9,4.5,9L4.5,9z" />
</g>
<g xmlns="http://www.w3.org/2000/svg">
	<path fill="#bdbdbd" d="M8,2C6.3,2,4.7,2.5,3.5,3.5L2,2v3.3V7h1.3H7L4.9,4.9c0.9-0.6,2-1,3.1-1c3.9,0,6.5,1.8,7,4.1&#xD;&#xA;		C14.5,4.6,11.6,2,8,2z" />
</g>
</g>

<g transform="translate(102, 262)">
<polygon fill="#757575" points="13,2 4,2 3,2 8,8 3,14 4,14 13,14 13,12 6.5,12 10,8 6.5,4 13,4 " xmlns="http://www.w3.org/2000/svg" />
<rect x="12" y="3.5" fill="#757575" width="1" height="1.5" xmlns="http://www.w3.org/2000/svg" />
<rect x="12" y="11" fill="#757575" width="1" height="1.5" xmlns="http://www.w3.org/2000/svg" />
</g>

<g transform="translate(68, 177)">
<polygon fill="#bdbdbd" points="13,2 4,2 3,2 8,8 3,14 4,14 13,14 13,12 6.5,12 10,8 6.5,4 13,4 " xmlns="http://www.w3.org/2000/svg" />
<rect x="12" y="3.5" fill="#bdbdbd" width="1" height="1.5" xmlns="http://www.w3.org/2000/svg" />
<rect x="12" y="11" fill="#bdbdbd" width="1" height="1.5" xmlns="http://www.w3.org/2000/svg" />
</g>

<g transform="translate(34, 160)">
<rect x="0" y="3" fill="#757575" width="12" height="4" xmlns="http://www.w3.org/2000/svg" />
<rect x="4" y="9" fill="#757575" width="12" height="4" xmlns="http://www.w3.org/2000/svg" />
</g>

<g transform="translate(92, 0)">
<style type="text/css" xmlns="http://www.w3.org/2000/svg">
	.st11{fill:#FFFFFF;}
</style>
<path class="st11" d="M7.6,16.2l-5.7-5.6L0,12.5L7.6,20L22,4l-2-2L7.6,16.2z" xmlns="http://www.w3.org/2000/svg" />
</g>

<g transform="translate(46, 46)">
<style type="text/css" xmlns="http://www.w3.org/2000/svg">
	.st19{opacity:0.4;fill:#FFFFFF;}
</style>
<path class="st19" d="M7.6,16.2l-5.7-5.6L0,12.5L7.6,20L22,4l-2-2L7.6,16.2z" xmlns="http://www.w3.org/2000/svg" />
</g>

<g transform="translate(0, 69)">
<style type="text/css" xmlns="http://www.w3.org/2000/svg">
	.st53{fill:#999999;}
	.st54{fill:#F44336;}
</style>
<path class="st53" d="M3,5l12,0l0,0l0,0v2l0,0l-5,4v8l-2-2v-6L3,7l0,0V5z" xmlns="http://www.w3.org/2000/svg" />
<path class="st54" d="M12,17.7l2.7-2.7L12,12.3l1.3-1.3l2.7,2.7l2.7-2.7l1.3,1.3L17.3,15l2.6,2.7L18.6,19L16,16.3L13.3,19L12,17.7" xmlns="http://www.w3.org/2000/svg" />
</g>

<g transform="translate(23, 23)">
<style type="text/css" xmlns="http://www.w3.org/2000/svg">
	.st55{opacity:0.5;}
	.st56{fill:#999999;}
</style>
<g id="Слой_2" class="st55" xmlns="http://www.w3.org/2000/svg">
	<path class="st56" d="M3,5l12,0l0,0l0,0v2l0,0l-5,4v8l-2-2v-6L3,7l0,0V5z" />
	<path class="st56" d="M12,17.7l2.7-2.7L12,12.3l1.3-1.3l2.7,2.7l2.7-2.7l1.3,1.3L17.3,15l2.6,2.7L18.6,19L16,16.3L13.3,19L12,17.7" />
</g>
</g>

<g transform="translate(92, 23)">
<style type="text/css" xmlns="http://www.w3.org/2000/svg">
	.st20{fill-rule:evenodd;clip-rule:evenodd;fill:#FFFFFF;}
</style>
<path class="st20" d="M20,18l-2,2l-7-7l-7,7l-2-2l7-7L2,4l2-2l7,7l7-7l2,2l-7,7L20,18z" xmlns="http://www.w3.org/2000/svg" />
</g>

<g transform="translate(134, 69)">
<style type="text/css" xmlns="http://www.w3.org/2000/svg">
	.st21{fill-rule:evenodd;clip-rule:evenodd;fill:#999999;}
</style>
<g xmlns="http://www.w3.org/2000/svg">
	<g>
		<path class="st21" d="M5,4v2h8V4H5z M5,10h8V8H5V10z M5,14h8v-2H5V14z" />
	</g>
</g>
</g>

<g transform="translate(115, 69)">
<style type="text/css" xmlns="http://www.w3.org/2000/svg">
	.st42{opacity:0.5;}
	.st43{fill:#999999;}
</style>
<g class="st42" xmlns="http://www.w3.org/2000/svg">
	<g>
		<path class="st43" d="M5,4v2h8V4H5z M5,10h8V8H5V10z M5,14h8v-2H5V14z" />
	</g>
</g>
</g>

<g transform="translate(115, 0)">
<style type="text/css" xmlns="http://www.w3.org/2000/svg">
	.st40{fill-rule:evenodd;clip-rule:evenodd;fill:#999999;}
	.st41{fill-rule:evenodd;clip-rule:evenodd;fill:#FFFFFF;}
</style>
<path class="st40" d="M11,22C4.9,22,0,17.1,0,11S4.9,0,11,0s11,4.9,11,11S17.1,22,11,22z" xmlns="http://www.w3.org/2000/svg" />
<path class="st41" d="M17.7,8.7L9,17l-4.7-4.3l1.4-1.4L9,14.6l7.3-7.3L17.7,8.7z" xmlns="http://www.w3.org/2000/svg" />
</g>

<g transform="translate(23, 69)">
<style type="text/css" xmlns="http://www.w3.org/2000/svg">
	.st31{opacity:0.5;fill:#999999;}
	.st32{opacity:0.5;fill:#FFFFFF;}
</style>
<path class="st31" d="M11,22C4.9,22,0,17.1,0,11S4.9,0,11,0s11,4.9,11,11S17.1,22,11,22z" xmlns="http://www.w3.org/2000/svg" />
<path class="st32" d="M17.7,8.7L9,17l-4.7-4.3l1.4-1.4L9,14.6l7.3-7.3L17.7,8.7z" xmlns="http://www.w3.org/2000/svg" />
</g>

<g transform="translate(23, 46)">
<style type="text/css" xmlns="http://www.w3.org/2000/svg">
	.st22{fill:#999999;}
</style>
<path class="st22" d="M11,5.5c2.8,0,5,2.2,5,5c0,0.6-0.1,1.3-0.4,1.8l2.9,2.9c1.5-1.3,2.7-2.9,3.4-4.8C20.3,6.1,16,3,11,3&#xD;&#xA;	C9.6,3,8.3,3.2,7,3.7l2.2,2.2C9.7,5.6,10.4,5.5,11,5.5z M1,2.8L3.3,5l0.5,0.5c-1.7,1.3-3,3-3.7,5C1.7,14.9,6,18,11,18&#xD;&#xA;	c1.6,0,3-0.3,4.4-0.8l0.4,0.4l2.9,2.9l1.3-1.3L2.3,1.5L1,2.8z M6.5,8.3l1.6,1.5C8,10.1,8,10.3,8,10.5c0,1.7,1.3,3,3,3&#xD;&#xA;	c0.2,0,0.4,0,0.7-0.1l1.6,1.5c-0.7,0.3-1.4,0.5-2.2,0.5c-2.8,0-5-2.2-5-5C6,9.7,6.2,9,6.5,8.3z M10.8,7.5l3.2,3.2l0-0.2&#xD;&#xA;	c0-1.7-1.3-3-3-3L10.8,7.5z" xmlns="http://www.w3.org/2000/svg" />
</g>

<g transform="translate(92, 46)">
<style type="text/css" xmlns="http://www.w3.org/2000/svg">
	.st26{opacity:0.5;fill:#999999;}
</style>
<path class="st26" d="M11,5.5c2.8,0,5,2.2,5,5c0,0.6-0.1,1.3-0.4,1.8l2.9,2.9c1.5-1.3,2.7-2.9,3.4-4.8C20.3,6.1,16,3,11,3&#xD;&#xA;	C9.6,3,8.3,3.2,7,3.7l2.2,2.2C9.7,5.6,10.4,5.5,11,5.5z M1,2.8L3.3,5l0.5,0.5c-1.7,1.3-3,3-3.7,5C1.7,14.9,6,18,11,18&#xD;&#xA;	c1.6,0,3-0.3,4.4-0.8l0.4,0.4l2.9,2.9l1.3-1.3L2.3,1.5L1,2.8z M6.5,8.3l1.6,1.5C8,10.1,8,10.3,8,10.5c0,1.7,1.3,3,3,3&#xD;&#xA;	c0.2,0,0.4,0,0.7-0.1l1.6,1.5c-0.7,0.3-1.4,0.5-2.2,0.5c-2.8,0-5-2.2-5-5C6,9.7,6.2,9,6.5,8.3z M10.8,7.5l3.2,3.2v-0.2&#xD;&#xA;	c0-1.7-1.3-3-3-3H10.8z" xmlns="http://www.w3.org/2000/svg" />
</g>

<g transform="translate(115, 23)">
<style type="text/css" xmlns="http://www.w3.org/2000/svg">
	.st23{fill-rule:evenodd;clip-rule:evenodd;fill:#F44336;}
</style>
<path class="st23" d="M11,22C4.9,22,0,17.1,0,11C0,4.9,4.9,0,11,0c6.1,0,11,4.9,11,11C22,17.1,17.1,22,11,22z M17.4,6.1l-1.5-1.5&#xD;&#xA;	L11,9.5L6.1,4.6L4.6,6.1L9.5,11l-4.9,4.9l1.5,1.5l4.9-4.9l4.9,4.9l1.5-1.5L12.5,11L17.4,6.1z" xmlns="http://www.w3.org/2000/svg" />
</g>

<g transform="translate(138, 46)">
<style type="text/css" xmlns="http://www.w3.org/2000/svg">
	.st47{opacity:0.5;}
	.st25{fill:#999999;}
</style>
<g class="st47" xmlns="http://www.w3.org/2000/svg">
<path class="st25" d="M11,22C4.9,22,0,17.1,0,11S4.9,0,11,0s11,4.9,11,11S17.1,22,11,22z M17.4,6.1l-1.5-1.5L11,9.5L6.1,4.6L4.6,6.1&#xD;&#xA;	L9.5,11l-4.9,4.9l1.5,1.5l4.9-4.9l4.9,4.9l1.5-1.5L12.5,11L17.4,6.1z" />
</g>
</g>

<g transform="translate(46, 0)">
<style type="text/css" xmlns="http://www.w3.org/2000/svg">
	.st24{fill:#999999;}
</style>
<path class="st24" d="M11,3C6,3,1.7,6.1,0,10.5C1.7,14.9,6,18,11,18s9.3-3.1,11-7.5C20.3,6.1,16,3,11,3z M11,15.5c-2.8,0-5-2.2-5-5&#xD;&#xA;	s2.2-5,5-5s5,2.2,5,5S13.8,15.5,11,15.5z M11,7.5c-1.7,0-3,1.3-3,3s1.3,3,3,3s3-1.3,3-3S12.7,7.5,11,7.5z" xmlns="http://www.w3.org/2000/svg" />
</g>

<g transform="translate(23, 0)">
<style type="text/css" xmlns="http://www.w3.org/2000/svg">
	.st27{opacity:0.5;fill:#999999;}
</style>
<path class="st27" d="M11,3C6,3,1.7,6.1,0,10.5C1.7,14.9,6,18,11,18s9.3-3.1,11-7.5C20.3,6.1,16,3,11,3z M11,15.5c-2.8,0-5-2.2-5-5&#xD;&#xA;	s2.2-5,5-5s5,2.2,5,5S13.8,15.5,11,15.5z M11,7.5c-1.7,0-3,1.3-3,3s1.3,3,3,3s3-1.3,3-3S12.7,7.5,11,7.5z" xmlns="http://www.w3.org/2000/svg" />
</g>

<g transform="translate(69, 69)">
<style type="text/css" xmlns="http://www.w3.org/2000/svg">
	.st40{fill-rule:evenodd;clip-rule:evenodd;fill:#999999;}
	.st41{fill-rule:evenodd;clip-rule:evenodd;fill:#FFFFFF;}
</style>
<path class="st40" d="M11,22C4.9,22,0,17.1,0,11S4.9,0,11,0s11,4.9,11,11S17.1,22,11,22z" xmlns="http://www.w3.org/2000/svg" />
<path class="st41" d="M17.7,8.7L9,17l-4.7-4.3l1.4-1.4L9,14.6l7.3-7.3L17.7,8.7z" xmlns="http://www.w3.org/2000/svg" />
</g>

<g transform="translate(46, 23)">
<style type="text/css" xmlns="http://www.w3.org/2000/svg">
	.st31{opacity:0.5;fill:#999999;}
	.st32{opacity:0.5;fill:#FFFFFF;}
</style>
<path class="st31" d="M11,22C4.9,22,0,17.1,0,11S4.9,0,11,0s11,4.9,11,11S17.1,22,11,22z" xmlns="http://www.w3.org/2000/svg" />
<path class="st32" d="M17.7,8.7L9,17l-4.7-4.3l1.4-1.4L9,14.6l7.3-7.3L17.7,8.7z" xmlns="http://www.w3.org/2000/svg" />
</g>

<g transform="translate(46, 69)">
<style type="text/css" xmlns="http://www.w3.org/2000/svg">
	.st33{opacity:0.8;fill:#999999;}
	.st34{opacity:0.6;fill:#999999;}
	.st35{fill:#999999;}
</style>
<rect x="6" y="10" class="st33" width="10" height="2" xmlns="http://www.w3.org/2000/svg" />
<rect x="6" y="14" class="st34" width="6" height="2" xmlns="http://www.w3.org/2000/svg" />
<polygon class="st35" points="4,2 2,2 2,18 0,18 3,22 6,18 4,18 " xmlns="http://www.w3.org/2000/svg" />
<rect x="6" y="6" class="st35" width="14" height="2" xmlns="http://www.w3.org/2000/svg" />
</g>

<g transform="translate(0, 46)">
<style type="text/css" xmlns="http://www.w3.org/2000/svg">
	.st45{opacity:0.5;}
    .st17{fill:#999999;}
</style>
<g class="st45" xmlns="http://www.w3.org/2000/svg">
<rect x="6" y="10" class="st17" width="10" height="2" />
<rect x="6" y="14" class="st17" width="6" height="2" />
<polygon class="st17" points="4,2 2,2 2,18 0,18 3,22 6,18 4,18 " />
<rect x="6" y="6" class="st17" width="14" height="2" />
</g>
</g>

<g transform="translate(138, 23)">
<style type="text/css" xmlns="http://www.w3.org/2000/svg">
	.st28{opacity:0.8;fill:#999999;}
	.st29{opacity:0.6;fill:#999999;}
	.st30{fill:#999999;}
</style>
<rect x="6" y="10" class="st28" width="10" height="2" xmlns="http://www.w3.org/2000/svg" />
<rect x="6" y="6" class="st29" width="6" height="2" xmlns="http://www.w3.org/2000/svg" />
<polygon class="st30" points="4,4 6,4 3,0 0,4 2,4 2,20 4,20 " xmlns="http://www.w3.org/2000/svg" />
<rect x="6" y="14" class="st30" width="14" height="2" xmlns="http://www.w3.org/2000/svg" />
</g>

<g transform="translate(0, 23)">
<style type="text/css" xmlns="http://www.w3.org/2000/svg">
	.st46{opacity:0.5;}
	.st38{fill:#999999;enable-background:new    ;}
	.st39{fill:#999999;}
</style>
<g class="st46" xmlns="http://www.w3.org/2000/svg">
<rect x="6" y="10" class="st38" width="10" height="2" />
<rect x="6" y="6" class="st38" width="6" height="2" />
<polygon class="st39" points="4,4 6,4 3,0 0,4 2,4 2,20 4,20 " />
<rect x="6" y="14" class="st39" width="14" height="2" />
</g>
</g>

<g transform="translate(69, 0)">
<style type="text/css" xmlns="http://www.w3.org/2000/svg">
	.st16{fill-rule:evenodd;clip-rule:evenodd;fill:#999999;}
</style>
<path class="st16" d="M11,22C4.9,22,0,17.1,0,11S4.9,0,11,0s11,4.9,11,11S17.1,22,11,22z M11,2c-5,0-9,4-9,9s4,9,9,9s9-4,9-9&#xD;&#xA;	S16,2,11,2z" xmlns="http://www.w3.org/2000/svg" />
</g>

<g transform="translate(115, 46)">
<style type="text/css" xmlns="http://www.w3.org/2000/svg">
	.st44{opacity:0.5;}
	.st13{fill:#999999;}
</style>
<g class="st44" xmlns="http://www.w3.org/2000/svg">
<path class="st13" d="M11,22C4.9,22,0,17.1,0,11S4.9,0,11,0s11,4.9,11,11S17.1,22,11,22z M11,2c-5,0-9,4-9,9s4,9,9,9s9-4,9-9&#xD;&#xA;	S16,2,11,2z" />
</g>
</g>

<g transform="translate(92, 69)">
<style type="text/css" xmlns="http://www.w3.org/2000/svg">
	.st16{fill-rule:evenodd;clip-rule:evenodd;fill:#999999;}
</style>
<path class="st16" d="M11,22C4.9,22,0,17.1,0,11S4.9,0,11,0s11,4.9,11,11S17.1,22,11,22z M11,2c-5,0-9,4-9,9s4,9,9,9s9-4,9-9&#xD;&#xA;	S16,2,11,2z" xmlns="http://www.w3.org/2000/svg" />
</g>

<g transform="translate(0, 0)">
<style type="text/css" xmlns="http://www.w3.org/2000/svg">
	.st44{opacity:0.5;}
	.st13{fill:#999999;}
</style>
<g class="st44" xmlns="http://www.w3.org/2000/svg">
<path class="st13" d="M11,22C4.9,22,0,17.1,0,11S4.9,0,11,0s11,4.9,11,11S17.1,22,11,22z M11,2c-5,0-9,4-9,9s4,9,9,9s9-4,9-9&#xD;&#xA;	S16,2,11,2z" />
</g>
</g>

<g transform="translate(74, 345)">
<style type="text/css" xmlns="http://www.w3.org/2000/svg">
	.st12{fill-rule:evenodd;clip-rule:evenodd;fill:#666666;}
</style>
<path class="st12" d="M13,9L6.5,3L0,9H13z" xmlns="http://www.w3.org/2000/svg" />
</g>

<g transform="translate(60, 345)">
<style type="text/css" xmlns="http://www.w3.org/2000/svg">
	.st14{fill-rule:evenodd;clip-rule:evenodd;fill:#666666;}
</style>
<path class="st14" d="M0,3l6.5,6L13,3H0z" xmlns="http://www.w3.org/2000/svg" />
</g>

<g transform="translate(69, 23)">
<style type="text/css" xmlns="http://www.w3.org/2000/svg">
	.st15{fill:#999999;}
</style>
<path class="st15" d="M4,8.5l7,6.5l7-6.5L16.4,7L11,11.9L5.6,7L4,8.5z" xmlns="http://www.w3.org/2000/svg" />
</g>

<g transform="translate(69, 46)">
<style type="text/css" xmlns="http://www.w3.org/2000/svg">
	.st10{fill:#999999;}
</style>
<path class="st10" d="M5.6,15l5.4-4.9l5.4,4.9l1.6-1.5L11,7l-7,6.5L5.6,15z" xmlns="http://www.w3.org/2000/svg" />
</g>

<g transform="translate(104, 360)">
<path fill="#757575" d="M0,10.5L1.5,12l6-6l-6-6L0,1.4L4.5,6L0,10.5z" xmlns="http://www.w3.org/2000/svg" />
</g>

<g transform="translate(143, 360)">
<path fill="#757575" d="M0,10.5L1.5,12l6-6l-6-6L0,1.4L4.5,6L0,10.5z" xmlns="http://www.w3.org/2000/svg" />
</g>

<g transform="translate(91, 360)">
<path fill="#757575" d="M0,10.5L1.5,12l6-6l-6-6L0,1.4L4.5,6L0,10.5z" xmlns="http://www.w3.org/2000/svg" />
</g>

<g transform="translate(0, 360)">
<path fill="#757575" d="M0,10.5L1.5,12l6-6l-6-6L0,1.4L4.5,6L0,10.5z" xmlns="http://www.w3.org/2000/svg" />
</g>

<g transform="translate(114, 345)">
<path fill="#757575" d="M1.5,2.5L0,4l6,6l6-6l-1.5-1.5L6,7L1.5,2.5z" xmlns="http://www.w3.org/2000/svg" />
</g>

<g transform="translate(127, 345)">
<path fill="#757575" d="M1.5,2.5L0,4l6,6l6-6l-1.5-1.5L6,7L1.5,2.5z" xmlns="http://www.w3.org/2000/svg" />
</g>

<g transform="translate(161, 23)">
<polygon fill="#BDBDBD" points="4,0 4,4 1,4 6,9 11,4 8,4 8,0 " xmlns="http://www.w3.org/2000/svg" />
</g>

<g transform="translate(163, 12)">
<polygon fill="#BDBDBD" points="9,3 5,3 5,0 0,5 5,10 5,7 9,7 " xmlns="http://www.w3.org/2000/svg" />
</g>

<g transform="translate(161, 0)">
<polygon fill="#BDBDBD" points="0,7 4,7 4,10 9,5 4,0 4,3 0,3 " xmlns="http://www.w3.org/2000/svg" />
</g>

<g transform="translate(161, 36)">
<polygon fill="#BDBDBD" points="8,9 8,5 11,5 6,0 1,5 4,5 4,9 " xmlns="http://www.w3.org/2000/svg" />
</g>

<g transform="translate(34, 279)">
<path fill="#EF5551" d="M8,2C4.7,2,2,4.7,2,8s2.7,6,6,6s6-2.7,6-6S11.3,2,8,2z M11,10l-1,1L8,9l-2,2l-1-1l2-2L5,6l1-1l2,2&#xD;&#xA;	l2-2l1,1L9,8L11,10z" xmlns="http://www.w3.org/2000/svg" />
</g>

<g transform="translate(39, 360)">
<path fill="#757575" d="M1.5,2.5L0,4l6,6l6-6l-1.5-1.5L6,7L1.5,2.5z" xmlns="http://www.w3.org/2000/svg" />
</g>

<g transform="translate(65, 360)">
<path fill="#757575" d="M1.5,2.5L0,4l6,6l6-6l-1.5-1.5L6,7L1.5,2.5z" xmlns="http://www.w3.org/2000/svg" />
</g>

<g transform="translate(30, 345)">
<polygon fill="#BDBDBD" points="2,1 12,1 12,3 8,6 8,11 6,13 6,6 2,3 " xmlns="http://www.w3.org/2000/svg" />
</g>

<g transform="translate(119, 313)">
<g xmlns="http://www.w3.org/2000/svg">
	<rect y="8" fill="#DEDEDE" width="14" height="6" />
	<polygon fill="#DEDEDE" points="4,6 16,6 16,10 18,10 18,4 4,4 	" />
	<polygon fill="#DEDEDE" points="8,0 8,2 20,2 20,6 22,6 22,0 	" />
</g>
</g>

<g transform="translate(0, 330)">
<polygon fill="#BDBDBD" points="2,1 12,1 12,3 8,6 8,11 6,13 6,6 2,3 " xmlns="http://www.w3.org/2000/svg" />
</g>

<g transform="translate(15, 345)">
<polygon fill="#DEDEDE" points="2,1 12,1 12,3 8,6 8,11 6,13 6,6 2,3 " xmlns="http://www.w3.org/2000/svg" />
</g>

<g transform="translate(101, 345)">
<polygon fill="#BDBDBD" points="7,0 7,9 8.5,7 9.5,8 6,12 2.5,8 3.5,7 5,9 5,0 " xmlns="http://www.w3.org/2000/svg" />
</g>

<g transform="translate(140, 345)">
<polygon fill="#BDBDBD" points="5,12 5,3 3.5,5 2.5,4 6,0 9.5,4 8.5,5 7,3 7,12 " xmlns="http://www.w3.org/2000/svg" />
</g>

<g transform="translate(68, 245)">
<polygon points="4,13 3,12 7,8 3,4 4,3 8,7 12,3 13,4 9,8 13,12 12,13 8,9 " xmlns="http://www.w3.org/2000/svg" />
</g>

<g transform="translate(138, 0)">
<g xmlns="http://www.w3.org/2000/svg">
	<rect x="6" y="3" fill="#BDBDBD" width="12" height="2" />
	<rect x="10" y="10" fill="#BDBDBD" width="12" height="2" />
	<rect x="10" y="17" fill="#BDBDBD" width="12" height="2" />
	<circle fill="#BDBDBD" cx="2" cy="4" r="2" />
	<circle fill="#BDBDBD" cx="6" cy="11" r="2" />
	<circle fill="#BDBDBD" cx="6" cy="18" r="2" />
</g>
</g>

<g transform="translate(136, 211)">
<circle fill="#757575" cx="2" cy="8" r="2" xmlns="http://www.w3.org/2000/svg" />
<circle fill="#757575" cx="8" cy="8" r="2" xmlns="http://www.w3.org/2000/svg" />
<circle fill="#757575" cx="14" cy="8" r="2" xmlns="http://www.w3.org/2000/svg" />
</g>

<g transform="translate(45, 330)">
<g xmlns="http://www.w3.org/2000/svg">
	<g>
		<rect x="12" y="12" fill="#BDBDBD" width="2" height="2" />
		<rect x="12" y="8" fill="#BDBDBD" width="2" height="2" />
		<rect x="12" y="4" fill="#BDBDBD" width="2" height="2" />
		<rect x="12" fill="#BDBDBD" width="2" height="2" />
		<rect x="8" y="12" fill="#BDBDBD" width="2" height="2" />
		<rect x="8" y="8" fill="#BDBDBD" width="2" height="2" />
		<rect x="8" y="4" fill="#BDBDBD" width="2" height="2" />
		<rect x="4" y="12" fill="#BDBDBD" width="2" height="2" />
		<rect x="4" y="8" fill="#BDBDBD" width="2" height="2" />
		<rect y="12" fill="#BDBDBD" width="2" height="2" />
	</g>
</g>
</g>

<g transform="translate(0, 345)">
<g xmlns="http://www.w3.org/2000/svg">
	<g>
		<rect x="0" y="12" fill="#BDBDBD" width="2" height="2" />
		<rect x="0" y="8" fill="#BDBDBD" width="2" height="2" />
		<rect x="0" y="4" fill="#BDBDBD" width="2" height="2" />
		<rect x="0" y="0" fill="#BDBDBD" width="2" height="2" />
		<rect x="4" y="12" fill="#BDBDBD" width="2" height="2" />
		<rect x="4" y="8" fill="#BDBDBD" width="2" height="2" />
		<rect x="4" y="4" fill="#BDBDBD" width="2" height="2" />
		<rect x="8" y="12" fill="#BDBDBD" width="2" height="2" />
		<rect x="8" y="8" fill="#BDBDBD" width="2" height="2" />
		<rect x="12" y="12" fill="#BDBDBD" width="2" height="2" />
	</g>
</g>
</g>

<g transform="translate(17, 262)">
<circle fill="#FFF" cx="2" cy="8" r="2" xmlns="http://www.w3.org/2000/svg" />
<circle fill="#FFF" cx="8" cy="8" r="2" xmlns="http://www.w3.org/2000/svg" />
<circle fill="#FFF" cx="14" cy="8" r="2" xmlns="http://www.w3.org/2000/svg" />
</g>

<g transform="translate(117, 360)">
<path fill="#FFFFFF" d="M0,10.5L1.5,12l6-6l-6-6L0,1.4L4.5,6L0,10.5z" xmlns="http://www.w3.org/2000/svg" />
</g>

<g transform="translate(130, 360)">
<path fill="#FFFFFF" d="M0,10.5L1.5,12l6-6l-6-6L0,1.4L4.5,6L0,10.5z" xmlns="http://www.w3.org/2000/svg" />
</g>

<g transform="translate(153, 345)">
<path fill="#FFFFFF" d="M0,10.5L1.5,12l6-6l-6-6L0,1.4L4.5,6L0,10.5z" xmlns="http://www.w3.org/2000/svg" />
</g>

<g transform="translate(26, 360)">
<path fill="#FFFFFF" d="M0,10.5L1.5,12l6-6l-6-6L0,1.4L4.5,6L0,10.5z" xmlns="http://www.w3.org/2000/svg" />
</g>

<g transform="translate(52, 360)">
<path fill="#FFFFFF" d="M1.5,2.5L0,4l6,6l6-6l-1.5-1.5L6,7L1.5,2.5z" xmlns="http://www.w3.org/2000/svg" />
</g>

<g transform="translate(13, 360)">
<path fill="#FFFFFF" d="M1.5,2.5L0,4l6,6l6-6l-1.5-1.5L6,7L1.5,2.5z" xmlns="http://www.w3.org/2000/svg" />
</g>

<g transform="translate(78, 360)">
<path fill="#FFFFFF" d="M1.5,2.5L0,4l6,6l6-6l-1.5-1.5L6,7L1.5,2.5z" xmlns="http://www.w3.org/2000/svg" />
</g>

<g transform="translate(88, 345)">
<path fill="#FFFFFF" d="M1.5,2.5L0,4l6,6l6-6l-1.5-1.5L6,7L1.5,2.5z" xmlns="http://www.w3.org/2000/svg" />
</g>

<g transform="translate(51, 126)">
<circle fill="#FFFFFF" cx="2" cy="8" r="2" xmlns="http://www.w3.org/2000/svg" />
<circle fill="#FFFFFF" cx="8" cy="8" r="2" xmlns="http://www.w3.org/2000/svg" />
<circle fill="#FFFFFF" cx="14" cy="8" r="2" xmlns="http://www.w3.org/2000/svg" />
</g>

<g transform="translate(34, 143)">
<circle fill="#757575" cx="2" cy="8" r="2" xmlns="http://www.w3.org/2000/svg" />
<circle fill="#757575" cx="8" cy="8" r="2" xmlns="http://www.w3.org/2000/svg" />
<circle fill="#757575" cx="14" cy="8" r="2" xmlns="http://www.w3.org/2000/svg" />
</g>

<g transform="translate(102, 313)">
<path fill="#FFFFFF" d="M12,0H0v10h4h1l0,0V9l0,0V7l0,0V6l0,0V4h8V3V0H12z M1,1h3v2H1V1z M4,9H1V7h3V9z M4,6H1V4h3V6z M5,3V1h3v2H5z&#xD;&#xA;	 M9,3V1h3v2H9z" xmlns="http://www.w3.org/2000/svg" />
<g xmlns="http://www.w3.org/2000/svg">
	<path fill="#FFFFFF" d="M4,3v13h12V3H4z M15,15H5V4h10V15z" />
	<rect x="6" y="8" fill="#FFFFFF" width="8" height="1" />
	<rect x="6" y="10" fill="#FFFFFF" width="8" height="1" />
	<rect x="6" y="12" fill="#FFFFFF" width="8" height="1" />
	<rect x="6" y="6" fill="#FFFFFF" width="8" height="1" />
</g>
</g>

<g transform="translate(102, 228)">
<g xmlns="http://www.w3.org/2000/svg">
	<path fill="#FFFFFF" d="M11.5,15C9,15,7,13.4,7,11.5S9,8,11.5,8S16,9.6,16,11.5S14,15,11.5,15z M11.5,9C10.1,9,9,10.1,9,11.5&#xD;&#xA;		s1.1,2.5,2.5,2.5s2.5-1.1,2.5-2.5S12.9,9,11.5,9z M11.5,13c-0.8,0-1.5-0.7-1.5-1.5s0.7-1.5,1.5-1.5s1.5,0.7,1.5,1.5&#xD;&#xA;		S12.3,13,11.5,13z M6,12l-2,2V7L0,4V2h10v2L6,7V12z" />
</g>
</g>

<g transform="translate(68, 143)">
<g xmlns="http://www.w3.org/2000/svg">
	<path fill="#FFFFFF" d="M15,6v2h-4V6h-1v2H6V6H5v2H1V6H0v2v1v2v1v2v1h16v-1v-2v-1V9V8V6H15z M10,9v2H6V9H10z M1,9h4v2H1V9z M1,14v-2h4&#xD;&#xA;		v2H1z M6,14v-2h4v2H6z M15,14h-4v-2h4V14z M15,11h-4V9h4V11z" />
	<path fill="#FFFFFF" d="M0,1v5h16V1H0z M5,4H1V3h4V4z M10,4H6V3h4V4z" />
</g>
</g>

<g transform="translate(15, 330)">
<g xmlns="http://www.w3.org/2000/svg">
	<path fill="#FFFFFF" d="M9.9,9.3h0.7l3.4,3.4L12.7,14l-3.4-3.4V9.9L9.1,9.7c-1,0.8-2.2,1.3-3.6,1.3C2.5,11,0,8.6,0,5.5&#xD;&#xA;		C0,2.5,2.5,0,5.5,0C8.6,0,11,2.5,11,5.5c0,1.4-0.5,2.6-1.3,3.6L9.9,9.3z M5.5,2C3.6,2,2,3.6,2,5.5S3.6,9,5.5,9S9,7.4,9,5.5&#xD;&#xA;		S7.4,2,5.5,2z" />
</g>
</g>

<g transform="translate(136, 143)">
<g xmlns="http://www.w3.org/2000/svg">
	<polygon fill="#FFFFFF" points="14,14 15,13 13,11 15,9 14,8 12,10 10,8 9,9 11,11 9,13 10,14 12,12 	" />
</g>
<polygon fill="#FFFFFF" points="0,2 10,2 10,4 6,7 6,12 4,14 4,7 0,4 " xmlns="http://www.w3.org/2000/svg" />
</g>

<g transform="translate(0, 245)">
<g xmlns="http://www.w3.org/2000/svg">
	<polygon fill="#FFFFFF" points="11,2 10,3 12,5 10,7 11,8 13,6 15,8 16,7 14,5 16,3 15,2 13,4 	" />
</g>
<rect y="3" fill="#FFFFFF" width="8" height="4" xmlns="http://www.w3.org/2000/svg" />
<rect x="4" y="10" fill="#FFFFFF" width="12" height="4" xmlns="http://www.w3.org/2000/svg" />
</g>

<g transform="translate(136, 194)">
<path fill="#FFFFFF" d="M1,1v14h14V1H1z M12,9H9v3H7V9H4V7h3V4h2v3h3V9z" xmlns="http://www.w3.org/2000/svg" />
</g>

<g transform="translate(153, 262)">
<path fill="#FFFFFF" d="M1,1v14h14V1H1z M12,9H9v3H7V9H4V7h3V4h2v3h3V9z" xmlns="http://www.w3.org/2000/svg" />
</g>

<g transform="translate(51, 279)">
<polygon fill="#FFFFFF" points="14,4 12,2 8,6 4,2 2,4 6,8 2,12 4,14 8,10 12,14 14,12 10,8 " xmlns="http://www.w3.org/2000/svg" />
</g>

<g transform="translate(153, 279)">
<g xmlns="http://www.w3.org/2000/svg">
	<path fill="#FFFFFF" d="M10,2l-8,8v4h3.9L14,6L10,2z M5,13l-2-2l6-6l2,2L5,13z" />
	<rect x="9" y="13" fill="#FFFFFF" width="5" height="1" />
</g>
</g>

<g transform="translate(102, 160)">
<path fill="#FFFFFF" d="M1,1v14h14V1H1z M12,9H4V7h8V9z" xmlns="http://www.w3.org/2000/svg" />
</g>

<g transform="translate(85, 262)">
<path fill="#FFFFFF" d="M1,1v14h14V1H1z M12,9H4V7h8V9z" xmlns="http://www.w3.org/2000/svg" />
</g>

<g transform="translate(68, 92)">
<path fill="#FFFFFF" d="M7,0v9h9V0H7z M14,5h-2v2h-1V5H9V4h2V2h1v2h2V5z" xmlns="http://www.w3.org/2000/svg" />
<path fill="#FFFFFF" d="M0,7v9h9V7H0z M7,12H5v2H4v-2H2v-1h2V9h1v2h2V12z" xmlns="http://www.w3.org/2000/svg" />
</g>

<g transform="translate(0, 126)">
<g xmlns="http://www.w3.org/2000/svg">
	<path fill="#FFFFFF" d="M7,0v9h9V0H7z M14,5H9V4h5V5z" />
	<path fill="#FFFFFF" d="M0,7v9h9V7H0z M7,12H2v-1h5V12z" />
</g>
</g>

<g transform="translate(119, 245)">
<circle fill="#FFFFFF" cx="0.2" cy="3" r="0" xmlns="http://www.w3.org/2000/svg" />
<rect y="3" fill="#FFFFFF" width="12" height="4" xmlns="http://www.w3.org/2000/svg" />
<rect x="4" y="9" fill="#FFFFFF" width="12" height="4" xmlns="http://www.w3.org/2000/svg" />
</g>

<g transform="translate(119, 194)">
<path fill="#FFFFFF" d="M8,1C4.1,1,1,4.1,1,8s3.1,7,7,7s7-3.1,7-7S11.9,1,8,1z M12,9H9v3H7V9H4V7h3V4h2v3h3V9z" xmlns="http://www.w3.org/2000/svg" />
</g>

<g transform="translate(102, 279)">
<g xmlns="http://www.w3.org/2000/svg">
	<path fill="#FFFFFF" d="M13.6,3.9C12.4,2.1,10.3,1,8,1C4.8,1,2.2,3.1,1.3,6h1.9C3.9,4.1,5.8,2.8,8,2.8c1.8,0,3.4,1,4.4,2.4L10.5,7h2.6&#xD;&#xA;		h1.8H15V2.5L13.6,3.9z" />
	<path fill="#FFFFFF" d="M8.2,13.3c-1.7,0-3.2-1-4.2-2.3l2-2H3.1H1.3H1v5l1.8-1.8C4.1,13.8,6,15,8.2,15c3.2,0,5.8-2.1,6.7-5H13&#xD;&#xA;		C12.3,11.9,10.4,13.3,8.2,13.3z" />
</g>
</g>

<g transform="translate(90, 330)">
<g xmlns="http://www.w3.org/2000/svg">
	<path fill="#FFFFFF" d="M9.9,9.3h0.7l3.4,3.4L12.7,14l-3.4-3.4V9.9L9.1,9.7c-1,0.8-2.2,1.3-3.6,1.3C2.5,11,0,8.6,0,5.5&#xD;&#xA;		C0,2.5,2.5,0,5.5,0C8.6,0,11,2.5,11,5.5c0,1.4-0.5,2.6-1.3,3.6L9.9,9.3z M5.5,2C3.6,2,2,3.6,2,5.5S3.6,9,5.5,9S9,7.4,9,5.5&#xD;&#xA;		S7.4,2,5.5,2z" />
</g>
</g>

<g transform="translate(153, 109)">
<path fill="#FFFFFF" d="M12,0H0v10h4h1l0,0V9l0,0V7l0,0V6l0,0V4h8V3V0H12z M1,1h3v2H1V1z M4,9H1V7h3V9z M4,6H1V4h3V6z M5,3V1h3v2H5z&#xD;&#xA;	 M9,3V1h3v2H9z" xmlns="http://www.w3.org/2000/svg" />
<g xmlns="http://www.w3.org/2000/svg">
	<path fill="#FFFFFF" d="M4,3v13h12V3H4z M15,15H5V4h10V15z" />
	<rect x="6" y="8" fill="#FFFFFF" width="8" height="1" />
	<rect x="6" y="10" fill="#FFFFFF" width="8" height="1" />
	<rect x="6" y="12" fill="#FFFFFF" width="8" height="1" />
	<rect x="6" y="6" fill="#FFFFFF" width="8" height="1" />
</g>
</g>

<g transform="translate(75, 330)">
<polygon fill="#FFFFFF" points="2,1 12,1 12,3 8,6 8,11 6,13 6,6 2,3 " xmlns="http://www.w3.org/2000/svg" />
</g>

<g transform="translate(68, 194)">
<g xmlns="http://www.w3.org/2000/svg">
	<path fill="#FFFFFF" d="M15,6v2h-4V6h-1v2H6V6H5v2H1V6H0v2v1v2v1v2v1h16v-1v-2v-1V9V8V6H15z M10,9v2H6V9H10z M1,9h4v2H1V9z M1,14v-2h4&#xD;&#xA;		v2H1z M6,14v-2h4v2H6z M15,14h-4v-2h4V14z M15,11h-4V9h4V11z" />
	<path fill="#FFFFFF" d="M0,1v5h16V1H0z M5,4H1V3h4V4z M10,4H6V3h4V4z" />
</g>
</g>

<g transform="translate(30, 330)">
<g xmlns="http://www.w3.org/2000/svg">
	<path fill="#FFFFFF" d="M9.9,9.3h0.7l3.4,3.4L12.7,14l-3.4-3.4V9.9L9.1,9.7c-1,0.8-2.2,1.3-3.6,1.3C2.5,11,0,8.6,0,5.5&#xD;&#xA;		C0,2.5,2.5,0,5.5,0C8.6,0,11,2.5,11,5.5c0,1.4-0.5,2.6-1.3,3.6L9.9,9.3z M5.5,2C3.6,2,2,3.6,2,5.5S3.6,9,5.5,9S9,7.4,9,5.5&#xD;&#xA;		S7.4,2,5.5,2z" />
</g>
</g>

<g transform="translate(17, 194)">
<g xmlns="http://www.w3.org/2000/svg">
	<polygon fill="#FFFFFF" points="0,9 8,9 4,14 8,14 8,16 0,16 4,11 0,11 	" />
	<polygon fill="#FFFFFF" points="11,0 11,11 9,11 12,16 15,11 13,11 13,0 	" />
	<path fill="#FFFFFF" d="M6,8h2L5,0H3L0,8h2l0.7-2h2.7L6,8z M3.3,4L4,2l0.7,2H3.3z" />
</g>
</g>

<g transform="translate(17, 313)">
<g xmlns="http://www.w3.org/2000/svg">
	<polygon fill="#FFFFFF" points="0,0 8,0 4,5 8,5 8,7 0,7 4,2 0,2 	" />
	<polygon fill="#FFFFFF" points="11,0 11,11 9,11 12,16 15,11 13,11 13,0 	" />
	<path fill="#FFFFFF" d="M6,16h2L5,8H3l-3,8h2l0.7-2h2.7L6,16z M3.3,12L4,10l0.7,2H3.3z" />
</g>
</g>

<g transform="translate(102, 109)">
<polygon fill="#FFFFFF" points="6,3 6,2 2,2 2,3 4,5 2,7 2,8 6,8 6,7 3,7 5,5 3,3 5,3 " xmlns="http://www.w3.org/2000/svg" />
<path fill="#FFFFFF" d="M13.7,8.5C13.5,8.3,13.1,8,12.5,8H10l-1,6h1l0.8-5h1.7c0.2,0,0.3,0.1,0.4,0.1C13,9.2,13,9.4,13,9.4L12.2,14h1&#xD;&#xA;	L14,9.6C14,9.2,14,8.8,13.7,8.5z" xmlns="http://www.w3.org/2000/svg" />
<rect x="0.2" y="7.3" transform="matrix(0.7071 -0.7071 0.7071 0.7071 -3.3137 7.9999)" fill="#FFFFFF" width="15.6" height="1.4" xmlns="http://www.w3.org/2000/svg" />
</g>

<g transform="translate(0, 279)">
<polygon fill="#FFFFFF" points="3,13 6,3 7.5,3 10,11.3 12.5,3 14,3 11,13 9.5,13 6.8,5 4.5,13 " xmlns="http://www.w3.org/2000/svg" />
</g>

<g transform="translate(85, 296)">
<g xmlns="http://www.w3.org/2000/svg">
	<circle fill="#FFFFFF" cx="10.5" cy="4.5" r="3" />
	<path fill="#FFFFFF" d="M10.5,2C11.9,2,13,3.1,13,4.5S11.9,7,10.5,7S8,5.9,8,4.5S9.1,2,10.5,2 M10.5,1C8.5,1,7,2.6,7,4.5S8.5,8,10.5,8&#xD;&#xA;		S14,6.4,14,4.5S12.4,1,10.5,1L10.5,1z" />
</g>
<g xmlns="http://www.w3.org/2000/svg">
	<path fill="#FFFFFF" d="M8,15c1.7,0,3.3-0.5,4.5-1.5L14,15v-3.3V10h-1.3H9l2.1,2.1c-0.8,0.6-1.9,1.1-3.1,1.1c-3.9,0-6.5-1.8-7-4.1&#xD;&#xA;		C1.5,12.4,4.4,15,8,15z" />
</g>
</g>

<g transform="translate(153, 296)">
<g xmlns="http://www.w3.org/2000/svg">
	<circle fill="#FFFFFF" cx="4.5" cy="11.5" r="2" />
	<path fill="#FFFFFF" d="M4.5,10C5.4,10,6,10.7,6,11.5S5.4,13,4.5,13S3,12.3,3,11.5S3.7,10,4.5,10 M4.5,9C3.2,9,2,10.1,2,11.5&#xD;&#xA;		S3.2,14,4.5,14S7,12.9,7,11.5S5.9,9,4.5,9L4.5,9z" />
</g>
<g xmlns="http://www.w3.org/2000/svg">
	<path fill="#FFFFFF" d="M8,2C6.3,2,4.7,2.5,3.5,3.5L2,2v3.3V7h1.3H7L4.9,4.9c0.9-0.6,2-1,3.1-1c3.9,0,6.5,1.8,7,4.1&#xD;&#xA;		C14.5,4.6,11.6,2,8,2z" />
</g>
</g>

<g transform="translate(34, 109)">
<polygon fill="#FFFFFF" points="13,2 4,2 3,2 8,8 3,14 4,14 13,14 13,12 6.5,12 10,8 6.5,4 13,4 " xmlns="http://www.w3.org/2000/svg" />
<rect x="12" y="3.5" fill="#FFFFFF" width="1" height="1.5" xmlns="http://www.w3.org/2000/svg" />
<rect x="12" y="11" fill="#FFFFFF" width="1" height="1.5" xmlns="http://www.w3.org/2000/svg" />
</g>

<g transform="translate(119, 228)">
<rect x="0" y="3" fill="#FFFFFF" width="12" height="4" xmlns="http://www.w3.org/2000/svg" />
<rect x="4" y="9" fill="#FFFFFF" width="12" height="4" xmlns="http://www.w3.org/2000/svg" />
</g>


</svg>


