<?xml version="1.0" encoding="utf-8"?>

<svg version="1.1" xmlns="http://www.w3.org/2000/svg" xmlns:xlink="http://www.w3.org/1999/xlink" width="255" height="185">
<g transform="translate(238, 74)">
<path class="Black" d="M12.2,3.8C11.1,2.7,9.7,2,8,2C4.7,2,2,4.7,2,8h2c0-2.2,1.8-4,4-4c1.1,0,2.1,0.5,2.8,1.2L9,7h5V2L12.2,3.8z" xmlns="http://www.w3.org/2000/svg" />
<path class="Black" d="M8,12c-1.1,0-2.1-0.5-2.8-1.2L7,9H2v5l1.8-1.8C4.9,13.3,6.3,14,8,14c3.3,0,6-2.7,6-6h-2C12,10.2,10.2,12,8,12&#xD;&#xA;	z" xmlns="http://www.w3.org/2000/svg" />
<rect x="0.2" y="7.3" transform="matrix(0.7071 0.7071 -0.7071 0.7071 8 -3.3137)" class="Black" width="15.6" height="1.4" xmlns="http://www.w3.org/2000/svg" />
</g>

<g transform="translate(238, 37)">
<path class="Black" d="M12.2,3.8C11.1,2.7,9.7,2,8,2C4.7,2,2,4.7,2,8h2c0-2.2,1.8-4,4-4c1.1,0,2.1,0.5,2.8,1.2L9,7h5V2L12.2,3.8z" xmlns="http://www.w3.org/2000/svg" />
<path class="Black" d="M8,12c-1.1,0-2.1-0.5-2.8-1.2L7,9H2v5l1.8-1.8C4.9,13.3,6.3,14,8,14c3.3,0,6-2.7,6-6h-2C12,10.2,10.2,12,8,12&#xD;&#xA;	z" xmlns="http://www.w3.org/2000/svg" />
</g>

<g transform="translate(17, 91)">
<path class="Black" d="M14,10c-1.1,0-2-0.9-2-2V6c0-1.9-1.3-3.4-3-3.9C9,2.1,9,2,9,2c0-0.6-0.4-1-1-1S7,1.4,7,2c0,0,0,0.1,0,0.1&#xD;&#xA;	C5.3,2.6,4,4.1,4,6v2c0,1.1-0.9,2-2,2h0v2h12L14,10L14,10z" xmlns="http://www.w3.org/2000/svg" />
<path class="Black" d="M8,15L8,15c-1.1,0-2-0.9-2-2v0h4v0C10,14.1,9.1,15,8,15z" xmlns="http://www.w3.org/2000/svg" />
</g>

<g transform="translate(80, 140)">
<g class="Black" opacity=".3" xmlns="http://www.w3.org/2000/svg">
	<g class="Black">
		<path class="Black" d="M7.5,0C3.4,0,0,3.4,0,7.5S3.4,15,7.5,15S15,11.6,15,7.5S11.6,0,7.5,0z M7.5,14C3.9,14,1,11.1,1,7.5&#xD;&#xA;			S3.9,1,7.5,1S14,3.9,14,7.5S11.1,14,7.5,14z" />
	</g>
	<g class="Black">
		<path class="Black" d="M7.5,0C3.4,0,0,3.4,0,7.5S3.4,15,7.5,15S15,11.6,15,7.5S11.6,0,7.5,0z M7.5,14C3.9,14,1,11.1,1,7.5&#xD;&#xA;			S3.9,1,7.5,1S14,3.9,14,7.5S11.1,14,7.5,14z" />
	</g>
</g>
</g>

<g transform="translate(102, 91)">
<polygon class="Black" points="15,8 7,1 7,5 1,5 1,11 7,11 7,15 " xmlns="http://www.w3.org/2000/svg" />
</g>

<g transform="translate(208, 140)">
<circle opacity=".3" class="Black" cx="7.5" cy="7.5" r="7.5" xmlns="http://www.w3.org/2000/svg" />
</g>

<g transform="translate(204, 37)">
<path class="Black" d="M12.2,3.8C11.1,2.7,9.7,2,8,2C4.7,2,2,4.7,2,8h2c0-2.2,1.8-4,4-4c1.1,0,2.1,0.5,2.8,1.2L9,7h5V2L12.2,3.8z" xmlns="http://www.w3.org/2000/svg" />
<path class="Black" d="M8,12c-1.1,0-2.1-0.5-2.8-1.2L7,9H2v5l1.8-1.8C4.9,13.3,6.3,14,8,14c3.3,0,6-2.7,6-6h-2C12,10.2,10.2,12,8,12&#xD;&#xA;	z" xmlns="http://www.w3.org/2000/svg" />
<rect x="0.2" y="7.3" transform="matrix(0.7071 0.7071 -0.7071 0.7071 8 -3.3137)" class="Black" width="15.6" height="1.4" xmlns="http://www.w3.org/2000/svg" />
</g>

<g transform="translate(34, 91)">
<path class="Black" d="M12.2,3.8C11.1,2.7,9.7,2,8,2C4.7,2,2,4.7,2,8h2c0-2.2,1.8-4,4-4c1.1,0,2.1,0.5,2.8,1.2L9,7h5V2L12.2,3.8z" xmlns="http://www.w3.org/2000/svg" />
<path class="Black" d="M8,12c-1.1,0-2.1-0.5-2.8-1.2L7,9H2v5l1.8-1.8C4.9,13.3,6.3,14,8,14c3.3,0,6-2.7,6-6h-2C12,10.2,10.2,12,8,12&#xD;&#xA;	z" xmlns="http://www.w3.org/2000/svg" />
</g>

<g transform="translate(238, 91)">
<path class="Black" d="M14,10c-1.1,0-2-0.9-2-2V6c0-1.9-1.3-3.4-3-3.9C9,2.1,9,2,9,2c0-0.6-0.4-1-1-1S7,1.4,7,2c0,0,0,0.1,0,0.1&#xD;&#xA;	C5.3,2.6,4,4.1,4,6v2c0,1.1-0.9,2-2,2h0v2h12L14,10L14,10z" xmlns="http://www.w3.org/2000/svg" />
<path class="Black" d="M8,15L8,15c-1.1,0-2-0.9-2-2v0h4v0C10,14.1,9.1,15,8,15z" xmlns="http://www.w3.org/2000/svg" />
</g>

<g transform="translate(202, 54)">
<polygon class="Black" points="1,8 9,15 9,11 15,11 15,5 9,5 9,1 " xmlns="http://www.w3.org/2000/svg" />
</g>

<g transform="translate(112, 108)">
<rect x="7" y="3" class="Black" opacity=".3" width="1" height="5" xmlns="http://www.w3.org/2000/svg" />
</g>

<g transform="translate(48, 124)">
<rect x="8.2" y="3.1" transform="matrix(0.866 0.5 -0.5 0.866 3.9442 -3.5927)" class="Black" opacity=".3" width="1" height="5" xmlns="http://www.w3.org/2000/svg" />
</g>

<g transform="translate(64, 108)">
<rect x="8.9" y="3.8" transform="matrix(0.5 0.866 -0.866 0.5 10.1933 -4.9779)" class="Black" opacity=".3" width="1" height="5" xmlns="http://www.w3.org/2000/svg" />
</g>

<g transform="translate(160, 124)">
<rect x="7" y="7" class="Black" opacity=".3" width="5" height="1" xmlns="http://www.w3.org/2000/svg" />
</g>

<g transform="translate(64, 140)">
<rect x="8.9" y="6.2" transform="matrix(0.5 -0.866 0.866 0.5 -2.7968 12.4781)" class="Black" opacity=".3" width="1" height="5" xmlns="http://www.w3.org/2000/svg" />
</g>

<g transform="translate(176, 108)">
<rect x="8.2" y="6.9" transform="matrix(0.866 -0.5 0.5 0.866 -3.5561 5.6025)" class="Black" opacity=".3" width="1" height="5" xmlns="http://www.w3.org/2000/svg" />
</g>

<g transform="translate(96, 140)">
<rect x="7" y="7" class="Black" opacity=".3" width="1" height="5" xmlns="http://www.w3.org/2000/svg" />
</g>

<g transform="translate(48, 140)">
<rect x="5.8" y="6.9" transform="matrix(-0.866 -0.5 0.5 -0.866 7.0771 20.6829)" class="Black" opacity=".3" width="1" height="5" xmlns="http://www.w3.org/2000/svg" />
</g>

<g transform="translate(144, 108)">
<rect x="5.1" y="6.2" transform="matrix(-0.5 -0.866 0.866 -0.5 0.8289 17.8874)" class="Black" opacity=".3" width="1" height="5" xmlns="http://www.w3.org/2000/svg" />
</g>

<g transform="translate(144, 140)">
<rect x="3" y="7" class="Black" opacity=".3" width="5" height="1" xmlns="http://www.w3.org/2000/svg" />
</g>

<g transform="translate(160, 140)">
<rect x="5.1" y="3.8" transform="matrix(-0.5 0.866 -0.866 -0.5 13.8186 4.6132)" class="Black" opacity=".3" width="1" height="5" xmlns="http://www.w3.org/2000/svg" />
</g>

<g transform="translate(96, 108)">
<rect x="5.8" y="3.1" transform="matrix(-0.866 0.5 -0.5 -0.866 14.577 7.3066)" class="Black" opacity=".3" width="1" height="5" xmlns="http://www.w3.org/2000/svg" />
</g>

<g transform="translate(64, 156)">
<rect x="7" y="2" class="Black" opacity=".3" width="1" height="6" xmlns="http://www.w3.org/2000/svg" />
</g>

<g transform="translate(16, 140)">
<polygon class="Black" opacity=".3" points="7.9,8 7,7.5 10.5,2.2 11.4,2.7 " xmlns="http://www.w3.org/2000/svg" />
</g>

<g transform="translate(16, 108)">
<polygon class="Black" opacity=".3" points="12.3,3.6 12.8,4.5 7.5,8 7,7.1 " xmlns="http://www.w3.org/2000/svg" />
</g>

<g transform="translate(32, 140)">
<rect x="7" y="7" width="6" height="1" fill="#757575" xmlns="http://www.w3.org/2000/svg" />
</g>

<g transform="translate(96, 124)">
<polygon class="Black" opacity=".3" points="12.8,10.5 12.3,11.4 7,7.9 7.5,7 " xmlns="http://www.w3.org/2000/svg" />
</g>

<g transform="translate(192, 108)">
<polygon class="Black" opacity=".3" points="11.4,12.4 10.5,12.9 7,7.5 7.9,7 " xmlns="http://www.w3.org/2000/svg" />
</g>

<g transform="translate(0, 108)">
<rect x="7" y="7" class="Black" opacity=".3" width="1" height="6" xmlns="http://www.w3.org/2000/svg" />
</g>

<g transform="translate(144, 124)">
<polygon class="Black" opacity=".3" points="7.1,7 8,7.5 4.5,12.8 3.6,12.3 " xmlns="http://www.w3.org/2000/svg" />
</g>

<g transform="translate(128, 108)">
<polygon class="Black" opacity=".3" points="2.7,11.4 2.2,10.5 7.5,7 8,7.9 " xmlns="http://www.w3.org/2000/svg" />
</g>

<g transform="translate(224, 140)">
<rect x="2" y="7" width="6" height="1" fill="#757575" xmlns="http://www.w3.org/2000/svg" />
</g>

<g transform="translate(176, 140)">
<polygon class="Black" opacity=".3" points="2.2,4.5 2.7,3.6 8,7.1 7.5,8 " xmlns="http://www.w3.org/2000/svg" />
</g>

<g transform="translate(96, 156)">
<polygon class="Black" opacity=".3" points="3.6,2.7 4.5,2.2 8,7.5 7.1,8 " xmlns="http://www.w3.org/2000/svg" />
</g>

<g transform="translate(128, 140)">
<rect x="7" y="3" fill="#FFFFFF" width="1" height="5" xmlns="http://www.w3.org/2000/svg" />
</g>

<g transform="translate(80, 108)">
<rect x="8.2" y="3.1" transform="matrix(0.866 0.5 -0.5 0.866 3.9442 -3.5927)" fill="#FFFFFF" width="1" height="5" xmlns="http://www.w3.org/2000/svg" />
</g>

<g transform="translate(188, 38)">
<rect x="8.9" y="3.8" transform="matrix(0.5 0.866 -0.866 0.5 10.1933 -4.9779)" fill="#FFFFFF" width="1" height="5" xmlns="http://www.w3.org/2000/svg" />
</g>

<g transform="translate(0, 124)">
<rect x="7" y="7" fill="#FFFFFF" width="5" height="1" xmlns="http://www.w3.org/2000/svg" />
</g>

<g transform="translate(16, 156)">
<rect x="8.9" y="6.2" transform="matrix(0.5 -0.866 0.866 0.5 -2.7968 12.4781)" fill="#FFFFFF" width="1" height="5" xmlns="http://www.w3.org/2000/svg" />
</g>

<g transform="translate(224, 108)">
<rect x="8.2" y="6.9" transform="matrix(0.866 -0.5 0.5 0.866 -3.5561 5.6025)" fill="#FFFFFF" width="1" height="5" xmlns="http://www.w3.org/2000/svg" />
</g>

<g transform="translate(0, 140)">
<rect x="7" y="7" fill="#FFFFFF" width="1" height="5" xmlns="http://www.w3.org/2000/svg" />
</g>

<g transform="translate(112, 140)">
<rect x="5.8" y="6.9" transform="matrix(-0.866 -0.5 0.5 -0.866 7.0771 20.6829)" fill="#FFFFFF" width="1" height="5" xmlns="http://www.w3.org/2000/svg" />
</g>

<g transform="translate(48, 108)">
<rect x="5.1" y="6.2" transform="matrix(-0.5 -0.866 0.866 -0.5 0.8289 17.8874)" fill="#FFFFFF" width="1" height="5" xmlns="http://www.w3.org/2000/svg" />
</g>

<g transform="translate(208, 124)">
<rect x="3" y="7" fill="#FFFFFF" width="5" height="1" xmlns="http://www.w3.org/2000/svg" />
</g>

<g transform="translate(32, 124)">
<rect x="5.1" y="3.8" transform="matrix(-0.5 0.866 -0.866 -0.5 13.8186 4.6132)" fill="#FFFFFF" width="1" height="5" xmlns="http://www.w3.org/2000/svg" />
</g>

<g transform="translate(80, 124)">
<rect x="5.8" y="3.1" transform="matrix(-0.866 0.5 -0.5 -0.866 14.577 7.3066)" fill="#FFFFFF" width="1" height="5" xmlns="http://www.w3.org/2000/svg" />
</g>

<g transform="translate(32, 156)">
<rect x="7" y="2" fill="#FFFFFF" width="1" height="6" xmlns="http://www.w3.org/2000/svg" />
</g>

<g transform="translate(192, 140)">
<polygon fill="#FFFFFF" points="7.9,8 7,7.5 10.5,2.2 11.4,2.7 " xmlns="http://www.w3.org/2000/svg" />
</g>

<g transform="translate(176, 124)">
<polygon fill="#FFFFFF" points="12.3,3.6 12.8,4.5 7.5,8 7,7.1 " xmlns="http://www.w3.org/2000/svg" />
</g>

<g transform="translate(16, 124)">
<rect x="7" y="7" width="6" height="1" fill="#FFFFFF" xmlns="http://www.w3.org/2000/svg" />
</g>

<g transform="translate(64, 124)">
<polygon fill="#FFFFFF" points="12.8,10.5 12.3,11.4 7,7.9 7.5,7 " xmlns="http://www.w3.org/2000/svg" />
</g>

<g transform="translate(112, 124)">
<polygon fill="#FFFFFF" points="11.4,12.4 10.5,12.9 7,7.5 7.9,7 " xmlns="http://www.w3.org/2000/svg" />
</g>

<g transform="translate(224, 124)">
<rect x="7" y="7" fill="#FFFFFF" width="1" height="6" xmlns="http://www.w3.org/2000/svg" />
</g>

<g transform="translate(160, 108)">
<polygon fill="#FFFFFF" points="7.1,7 8,7.5 4.5,12.8 3.6,12.3 " xmlns="http://www.w3.org/2000/svg" />
</g>

<g transform="translate(32, 108)">
<polygon fill="#FFFFFF" points="2.7,11.4 2.2,10.5 7.5,7 8,7.9 " xmlns="http://www.w3.org/2000/svg" />
</g>

<g transform="translate(0, 156)">
<rect x="2" y="7" width="6" height="1" fill="#FFFFFF" xmlns="http://www.w3.org/2000/svg" />
</g>

<g transform="translate(128, 124)">
<polygon fill="#FFFFFF" points="2.2,4.5 2.7,3.6 8,7.1 7.5,8 " xmlns="http://www.w3.org/2000/svg" />
</g>

<g transform="translate(80, 156)">
<polygon fill="#FFFFFF" points="3.6,2.7 4.5,2.2 8,7.5 7.1,8 " xmlns="http://www.w3.org/2000/svg" />
</g>

<g transform="translate(187, 91)">
<polygon fill="#666666" points="3,1 1,3 6,8 1,13 3,15 8,10 13,15 15,13 10,8 15,3 13,1 8,6 " xmlns="http://www.w3.org/2000/svg" />
</g>

<g transform="translate(170, 91)">
<rect x="9" y="13" fill="#666666" width="5" height="1" xmlns="http://www.w3.org/2000/svg" />
<g xmlns="http://www.w3.org/2000/svg">
	<rect x="3.6" y="4.7" transform="matrix(0.7071 -0.7071 0.7071 0.7071 -2.8137 8.2071)" fill="#666666" width="9.9" height="5.7" />
	<polygon fill="#666666" points="2,14 6,14 2,10 	" />
</g>
</g>

<g transform="translate(225, 0)">
<polygon fill="#666666" points="2,6 0,8 6,14 16,4 14,2 6,10 " xmlns="http://www.w3.org/2000/svg" />
</g>

<g transform="translate(136, 91)">
<polygon fill="#EF5551" points="3,1 1,3 6,8 1,13 3,15 8,10 13,15 15,13 10,8 15,3 13,1 8,6 " xmlns="http://www.w3.org/2000/svg" />
</g>

<g transform="translate(185, 54)">
<g xmlns="http://www.w3.org/2000/svg">
	<polygon fill="#DEDEDE" points="7,6 9,4 10,4 10,10 9,10 9,5 8,6 	" />
	<path fill="#666666" d="M4,0v13h10v-1V0H4z M5,12V2h8v10H5z" />
	<polygon fill="#DEDEDE" points="8,12 4,8 4,11 1,11 1,13 4,13 4,16 	" />
</g>
</g>

<g transform="translate(219, 54)">
<polygon fill="#DEDEDE" points="15,7 9,7 9,1 7,1 7,7 1,7 1,9 7,9 7,15 9,15 9,9 15,9 " xmlns="http://www.w3.org/2000/svg" />
</g>

<g transform="translate(51, 91)">
<g xmlns="http://www.w3.org/2000/svg">
	<path fill="#DEDEDE" d="M12.9,3.1C11.7,1.8,9.9,1,8,1C4.1,1,1,4.1,1,8h2c0-2.8,2.2-5,5-5c1.4,0,2.6,0.6,3.5,1.5L9,7h3.9h2H15V1&#xD;&#xA;		L12.9,3.1z" />
	<path fill="#DEDEDE" d="M8,13c-1.4,0-2.6-0.6-3.5-1.5L7,9H3.1h-2H1v6l2.1-2.1C4.3,14.2,6.1,15,8,15c3.9,0,7-3,7-7h-2&#xD;&#xA;		C13,11,10.8,13,8,13z" />
</g>
</g>

<g transform="translate(156, 172)">
<path fill="#757575" d="M1.5,2.5L0,4l6,6l6-6l-1.5-1.5L6,7L1.5,2.5z" xmlns="http://www.w3.org/2000/svg" />
</g>

<g transform="translate(195, 172)">
<path fill="#DEDEDE" d="M1.5,2.5L0,4l6,6l6-6l-1.5-1.5L6,7L1.5,2.5z" xmlns="http://www.w3.org/2000/svg" />
</g>

<g transform="translate(78, 172)">
<path fill="#757575" d="M6,5l4.5,4.5L12,8L6,2L0,8l1.5,1.5L6,5z" xmlns="http://www.w3.org/2000/svg" />
</g>

<g transform="translate(65, 172)">
<path fill="#DEDEDE" d="M6,5l4.5,4.5L12,8L6,2L0,8l1.5,1.5L6,5z" xmlns="http://www.w3.org/2000/svg" />
</g>

<g transform="translate(74, 54)">
<g xmlns="http://www.w3.org/2000/svg">
	<path fill="#FFFFFF" clip-rule="evenodd" fill-rule="evenodd" d="M18,0c9.9,0,18,8.1,18,18c0,9.9-8.1,18-18,18C8.1,36,0,27.9,0,18C0,8.1,8.1,0,18,0z" />
</g>
<g xmlns="http://www.w3.org/2000/svg">
	<path fill="#757575" d="M21,13.4L19.7,12L14,18l5.7,6l1.4-1.4L16.7,18L21,13.4z" />
</g>
</g>

<g transform="translate(188, 0)">
<g xmlns="http://www.w3.org/2000/svg">
	<path fill="#DADADA" clip-rule="evenodd" fill-rule="evenodd" d="M18,0c9.9,0,18,8.1,18,18c0,9.9-8.1,18-18,18C8.1,36,0,27.9,0,18C0,8.1,8.1,0,18,0z" />
</g>
<g xmlns="http://www.w3.org/2000/svg">
	<path fill="#757575" d="M21,13.4L19.7,12L14,18l5.7,6l1.4-1.4L16.7,18L21,13.4z" />
</g>
</g>

<g transform="translate(0, 54)">
<g xmlns="http://www.w3.org/2000/svg">
	<path fill="#DEDEDE" clip-rule="evenodd" fill-rule="evenodd" d="M18,0c9.9,0,18,8.1,18,18c0,9.9-8.1,18-18,18C8.1,36,0,27.9,0,18C0,8.1,8.1,0,18,0z" />
</g>
<g xmlns="http://www.w3.org/2000/svg">
	<path fill="#FFFFFF" d="M21,13.4L19.7,12L14,18l5.7,6l1.4-1.4L16.7,18L21,13.4z" />
</g>
</g>

<g transform="translate(148, 54)">
<g xmlns="http://www.w3.org/2000/svg">
	<path fill="#FFFFFF" clip-rule="evenodd" fill-rule="evenodd" d="M18,0c9.9,0,18,8.1,18,18c0,9.9-8.1,18-18,18C8.1,36,0,27.9,0,18C0,8.1,8.1,0,18,0z" />
</g>
<g xmlns="http://www.w3.org/2000/svg">
	<path fill="#757575" d="M19.3,18L15,22.6l1.4,1.4l5.7-6l-5.7-6L15,13.4L19.3,18z" />
</g>
</g>

<g transform="translate(111, 54)">
<g xmlns="http://www.w3.org/2000/svg">
	<path fill="#DADADA" clip-rule="evenodd" fill-rule="evenodd" d="M18,0c9.9,0,18,8.1,18,18c0,9.9-8.1,18-18,18C8.1,36,0,27.9,0,18C0,8.1,8.1,0,18,0z" />
</g>
<g xmlns="http://www.w3.org/2000/svg">
	<path fill="#757575" d="M19.3,18L15,22.6l1.4,1.4l5.7-6l-5.7-6L15,13.4L19.3,18z" />
</g>
</g>

<g transform="translate(37, 54)">
<g xmlns="http://www.w3.org/2000/svg">
	<path fill="#DEDEDE" clip-rule="evenodd" fill-rule="evenodd" d="M18,0c9.9,0,18,8.1,18,18c0,9.9-8.1,18-18,18C8.1,36,0,27.9,0,18C0,8.1,8.1,0,18,0z" />
</g>
<g xmlns="http://www.w3.org/2000/svg">
	<path fill="#FFFFFF" d="M19.3,18L15,22.6l1.4,1.4l5.7-6l-5.7-6L15,13.4L19.3,18z" />
</g>
</g>

<g transform="translate(240, 108)">
<polygon points="14,6 0,6 0,8 14,8 " fill="#757575" xmlns="http://www.w3.org/2000/svg" />
</g>

<g transform="translate(240, 140)">
<polygon points="14,6 0,6 0,8 14,8 " fill="#BDBDBD" xmlns="http://www.w3.org/2000/svg" />
</g>

<g transform="translate(127, 156)">
<polygon points="14,6 0,6 0,8 14,8 " fill="#DEDEDE" xmlns="http://www.w3.org/2000/svg" />
</g>

<g transform="translate(157, 156)">
<path fill="#757575" d="M9.5,6L14,1.4L12.5,0l-6,6l6,6l1.5-1.5L9.5,6z" xmlns="http://www.w3.org/2000/svg" />
<path fill="#757575" d="M5,6l4.5-4.6L8,0L2,6l6,6l1.5-1.5L5,6z" xmlns="http://www.w3.org/2000/svg" />
<rect y="0" transform="matrix(-1 -4.365587e-011 4.365587e-011 -1 2 12)" fill="#757575" width="2" height="12" xmlns="http://www.w3.org/2000/svg" />
</g>

<g transform="translate(217, 156)">
<path fill="#BDBDBD" d="M9.5,6L14,1.4L12.5,0l-6,6l6,6l1.5-1.5L9.5,6z" xmlns="http://www.w3.org/2000/svg" />
<path fill="#BDBDBD" d="M5,6l4.5-4.6L8,0L2,6l6,6l1.5-1.5L5,6z" xmlns="http://www.w3.org/2000/svg" />
<rect y="0" transform="matrix(-1 -4.365587e-011 4.365587e-011 -1 2 12)" fill="#BDBDBD" width="2" height="12" xmlns="http://www.w3.org/2000/svg" />
</g>

<g transform="translate(187, 156)">
<path fill="#DEDEDE" d="M9.5,6L14,1.4L12.5,0l-6,6l6,6l1.5-1.5L9.5,6z" xmlns="http://www.w3.org/2000/svg" />
<path fill="#DEDEDE" d="M5,6l4.5-4.6L8,0L2,6l6,6l1.5-1.5L5,6z" xmlns="http://www.w3.org/2000/svg" />
<rect y="0" transform="matrix(-1 -4.365587e-011 4.365587e-011 -1 2 12)" fill="#DEDEDE" width="2" height="12" xmlns="http://www.w3.org/2000/svg" />
</g>

<g transform="translate(240, 124)">
<polygon points="14,6 8,6 8,0 6,0 6,6 0,6 0,8 6,8 6,14 8,14 8,8 14,8 " fill="#757575" xmlns="http://www.w3.org/2000/svg" />
</g>

<g transform="translate(142, 156)">
<polygon points="14,6 8,6 8,0 6,0 6,6 0,6 0,8 6,8 6,14 8,14 8,8 14,8 " fill="#BDBDBD" xmlns="http://www.w3.org/2000/svg" />
</g>

<g transform="translate(112, 156)">
<polygon points="14,6 8,6 8,0 6,0 6,6 0,6 0,8 6,8 6,14 8,14 8,8 14,8 " fill="#DEDEDE" xmlns="http://www.w3.org/2000/svg" />
</g>

<g transform="translate(202, 156)">
<path fill="#757575" d="M0,10.5L1.5,12l6-6l-6-6L0,1.4L4.5,6L0,10.5z" xmlns="http://www.w3.org/2000/svg" />
<path fill="#757575" d="M4.5,10.5L6,12l6-6L6,0L4.5,1.4L9,6L4.5,10.5z" xmlns="http://www.w3.org/2000/svg" />
<rect x="12" fill="#757575" width="2" height="12" xmlns="http://www.w3.org/2000/svg" />
</g>

<g transform="translate(172, 156)">
<path fill="#BDBDBD" d="M0,10.5L1.5,12l6-6l-6-6L0,1.4L4.5,6L0,10.5z" xmlns="http://www.w3.org/2000/svg" />
<path fill="#BDBDBD" d="M4.5,10.5L6,12l6-6L6,0L4.5,1.4L9,6L4.5,10.5z" xmlns="http://www.w3.org/2000/svg" />
<rect x="12" fill="#BDBDBD" width="2" height="12" xmlns="http://www.w3.org/2000/svg" />
</g>

<g transform="translate(232, 156)">
<path fill="#DEDEDE" d="M0,10.5L1.5,12l6-6l-6-6L0,1.4L4.5,6L0,10.5z" xmlns="http://www.w3.org/2000/svg" />
<path fill="#DEDEDE" d="M4.5,10.5L6,12l6-6L6,0L4.5,1.4L9,6L4.5,10.5z" xmlns="http://www.w3.org/2000/svg" />
<rect x="12" fill="#DEDEDE" width="2" height="12" xmlns="http://www.w3.org/2000/svg" />
</g>

<g transform="translate(0, 172)">
<path fill="#757575" d="M2.5,10.5L4,12l6-6L4,0L2.5,1.4L7,6L2.5,10.5z" xmlns="http://www.w3.org/2000/svg" />
</g>

<g transform="translate(242, 0)">
<path fill="#BDBDBD" d="M2.5,10.5L4,12l6-6L4,0L2.5,1.4L7,6L2.5,10.5z" xmlns="http://www.w3.org/2000/svg" />
</g>

<g transform="translate(169, 172)">
<path fill="#DEDEDE" d="M2.5,10.5L4,12l6-6L4,0L2.5,1.4L7,6L2.5,10.5z" xmlns="http://www.w3.org/2000/svg" />
</g>

<g transform="translate(143, 172)">
<path fill="#757575" d="M0,10.5L1.5,12l6-6l-6-6L0,1.4L4.5,6L0,10.5z" xmlns="http://www.w3.org/2000/svg" />
<path fill="#757575" d="M4.5,10.5L6,12l6-6L6,0L4.5,1.4L9,6L4.5,10.5z" xmlns="http://www.w3.org/2000/svg" />
</g>

<g transform="translate(26, 172)">
<path fill="#BDBDBD" d="M0,10.5L1.5,12l6-6l-6-6L0,1.4L4.5,6L0,10.5z" xmlns="http://www.w3.org/2000/svg" />
<path fill="#BDBDBD" d="M4.5,10.5L6,12l6-6L6,0L4.5,1.4L9,6L4.5,10.5z" xmlns="http://www.w3.org/2000/svg" />
</g>

<g transform="translate(13, 172)">
<path fill="#DEDEDE" d="M0,10.5L1.5,12l6-6l-6-6L0,1.4L4.5,6L0,10.5z" xmlns="http://www.w3.org/2000/svg" />
<path fill="#DEDEDE" d="M4.5,10.5L6,12l6-6L6,0L4.5,1.4L9,6L4.5,10.5z" xmlns="http://www.w3.org/2000/svg" />
</g>

<g transform="translate(130, 172)">
<path fill="#757575" d="M7.5,1.5L6,0L0,6l6,6l1.5-1.5L3,6L7.5,1.5z" xmlns="http://www.w3.org/2000/svg" />
</g>

<g transform="translate(91, 172)">
<path fill="#BDBDBD" d="M7.5,1.5L6,0L0,6l6,6l1.5-1.5L3,6L7.5,1.5z" xmlns="http://www.w3.org/2000/svg" />
</g>

<g transform="translate(39, 172)">
<path fill="#DEDEDE" d="M7.5,1.5L6,0L0,6l6,6l1.5-1.5L3,6L7.5,1.5z" xmlns="http://www.w3.org/2000/svg" />
</g>

<g transform="translate(208, 172)">
<path fill="#757575" d="M3,6l4.5-4.5L6,0L0,6l6,6l1.5-1.5L3,6z" xmlns="http://www.w3.org/2000/svg" />
<path fill="#757575" d="M7.5,6L12,1.5L10.5,0l-6,6l6,6l1.5-1.5L7.5,6z" xmlns="http://www.w3.org/2000/svg" />
</g>

<g transform="translate(242, 24)">
<path fill="#BDBDBD" d="M3,6l4.5-4.5L6,0L0,6l6,6l1.5-1.5L3,6z" xmlns="http://www.w3.org/2000/svg" />
<path fill="#BDBDBD" d="M7.5,6L12,1.5L10.5,0l-6,6l6,6l1.5-1.5L7.5,6z" xmlns="http://www.w3.org/2000/svg" />
</g>

<g transform="translate(182, 172)">
<path fill="#DEDEDE" d="M3,6l4.5-4.5L6,0L0,6l6,6l1.5-1.5L3,6z" xmlns="http://www.w3.org/2000/svg" />
<path fill="#DEDEDE" d="M7.5,6L12,1.5L10.5,0l-6,6l6,6l1.5-1.5L7.5,6z" xmlns="http://www.w3.org/2000/svg" />
</g>

<g transform="translate(117, 172)">
<path fill="#FFFFFF" d="M2.5,10.5L4,12l6-6L4,0L2.5,1.4L7,6L2.5,10.5z" xmlns="http://www.w3.org/2000/svg" />
</g>

<g transform="translate(90, 0)">
<g xmlns="http://www.w3.org/2000/svg">
	<polygon fill="#EF5551" points="31,15 24,22 17,15 15,17 22,24 15,31 17,33 24,26 31,33 33,31 26,24 33,17 	" />
	<path fill="#EF5551" d="M24,2C11.8,2,2,11.8,2,24s9.8,22,22,22s22-9.8,22-22S36.2,2,24,2z M24,44C13,44,4,35,4,24S13,4,24,4&#xD;&#xA;		s20,9,20,20S35,44,24,44z" />
</g>
</g>

<g transform="translate(221, 172)">
<circle fill="#DEDEDE" cx="5.5" cy="5.5" r="5.5" xmlns="http://www.w3.org/2000/svg" />
</g>

<g transform="translate(247, 156)">
<g xmlns="http://www.w3.org/2000/svg">
	<polygon points="1,0 1,6 7,6 7,7 0,7 0,0 	" fill="#757575" />
	<rect x="1" fill="#FFFFFF" width="6" height="6" />
</g>
</g>

<g transform="translate(247, 164)">
<g xmlns="http://www.w3.org/2000/svg">
	<polygon points="6,0 6,6 0,6 0,7 7,7 7,0 	" fill="#757575" />
	<rect fill="#FFFFFF" width="6" height="6" />
</g>
</g>

<g transform="translate(0, 0)">
<polygon fill="#FFFFFF" points="5,45 39,0 23,0 " xmlns="http://www.w3.org/2000/svg" />
<polygon points="39,0 5,45 23,0 22,0 1,52 40,0 " fill="#757575" xmlns="http://www.w3.org/2000/svg" />
</g>

<g transform="translate(186, 52)">
</g>

<g transform="translate(242, 16)">
<g xmlns="http://www.w3.org/2000/svg">
	<polygon points="1,7 1,1 7,1 7,0 0,0 0,7 	" fill="#757575" />
	<rect x="1" y="1" fill="#FFFFFF" width="6" height="6" />
</g>
</g>

<g transform="translate(233, 172)">
<g xmlns="http://www.w3.org/2000/svg">
	<polygon points="6,7 6,1 0,1 0,0 7,0 7,7 	" fill="#757575" />
	<rect y="1" fill="#FFFFFF" width="6" height="6" />
</g>
</g>

<g transform="translate(52, 172)">
<path fill="#757575" d="M7.5,1.5L6,0L0,6l6,6l1.5-1.5L3,6L7.5,1.5z" xmlns="http://www.w3.org/2000/svg" />
</g>

<g transform="translate(208, 108)">
<path fill="#DEDEDE" d="M0,15V1h2v2h3V1h5v2h3V1h2v14H0z M14,5H1v9h13V5z M5,9H2V6h3V9z M5,13H2v-3h3V13z M9,9H6V6h3V9z M9,13H6v-3h3&#xD;&#xA;	V13z M13,9h-3V6h3V9z M13,13h-3v-3h3V13z M11,0h1v2h-1V0z M3,0h1v2H3V0z" xmlns="http://www.w3.org/2000/svg" />
</g>

<g transform="translate(104, 172)">
<path fill="#757575" d="M2.5,10.5L4,12l6-6L4,0L2.5,1.4L7,6L2.5,10.5z" xmlns="http://www.w3.org/2000/svg" />
</g>

<g transform="translate(41, 0)">
<g xmlns="http://www.w3.org/2000/svg">
	<path fill="#666666" d="M24,13c-1.1,0-2,0.9-2,2l1,15h2l1-15C26,13.9,25.1,13,24,13z" />
	<circle fill="#666666" cx="24" cy="34" r="2" />
	<path fill="#666666" d="M24,2C11.8,2,2,11.8,2,24s9.8,22,22,22s22-9.8,22-22S36.2,2,24,2z M24,44C13,44,4,35,4,24S13,4,24,4&#xD;&#xA;		s20,9,20,20S35,44,24,44z" />
</g>
</g>

<g transform="translate(204, 91)">
<polygon fill="#DEDEDE" points="3,1 1,3 6,8 1,13 3,15 8,10 13,15 15,13 10,8 15,3 13,1 8,6 " xmlns="http://www.w3.org/2000/svg" />
</g>

<g transform="translate(68, 91)">
<rect x="9" y="13" fill="#DEDEDE" width="5" height="1" xmlns="http://www.w3.org/2000/svg" />
<g xmlns="http://www.w3.org/2000/svg">
	<rect x="3.6" y="4.7" transform="matrix(0.7071 -0.7071 0.7071 0.7071 -2.8137 8.2071)" fill="#DEDEDE" width="9.9" height="5.7" />
	<polygon fill="#DEDEDE" points="2,14 6,14 2,10 	" />
</g>
</g>

<g transform="translate(221, 91)">
<polygon fill="#DEDEDE" points="2,6 0,8 6,14 16,4 14,2 6,10 " xmlns="http://www.w3.org/2000/svg" />
</g>

<g transform="translate(225, 20)">
<polygon fill="#DEDEDE" points="3,1 1,3 6,8 1,13 3,15 8,10 13,15 15,13 10,8 15,3 13,1 8,6 " xmlns="http://www.w3.org/2000/svg" />
</g>

<g transform="translate(204, 74)">
<rect x="9" y="13" fill="#DEDEDE" width="5" height="1" xmlns="http://www.w3.org/2000/svg" />
<g xmlns="http://www.w3.org/2000/svg">
	<rect x="3.6" y="4.7" transform="matrix(0.7071 -0.7071 0.7071 0.7071 -2.8137 8.2071)" fill="#DEDEDE" width="9.9" height="5.7" />
	<polygon fill="#DEDEDE" points="2,14 6,14 2,10 	" />
</g>
</g>

<g transform="translate(187, 74)">
<polygon fill="#DEDEDE" points="2,6 0,8 6,14 16,4 14,2 6,10 " xmlns="http://www.w3.org/2000/svg" />
</g>

<g transform="translate(192, 124)">
<circle fill="#ffffff" cx="7.5" cy="7.5" r="7.5" xmlns="http://www.w3.org/2000/svg" />
</g>

<g transform="translate(236, 54)">
<polygon fill="#FFFFFF" points="15,8 7,1 7,5 1,5 1,11 7,11 7,15 " xmlns="http://www.w3.org/2000/svg" />
</g>

<g transform="translate(48, 156)">
<g xmlns="http://www.w3.org/2000/svg">
	<g>
		<path fill="#FFFFFF" d="M7.5,0C3.4,0,0,3.4,0,7.5S3.4,15,7.5,15S15,11.6,15,7.5S11.6,0,7.5,0z M7.5,14C3.9,14,1,11.1,1,7.5&#xD;&#xA;			S3.9,1,7.5,1S14,3.9,14,7.5S11.1,14,7.5,14z" />
	</g>
	<g>
		<path fill="#FFFFFF" d="M7.5,0C3.4,0,0,3.4,0,7.5S3.4,15,7.5,15S15,11.6,15,7.5S11.6,0,7.5,0z M7.5,14C3.9,14,1,11.1,1,7.5&#xD;&#xA;			S3.9,1,7.5,1S14,3.9,14,7.5S11.1,14,7.5,14z" />
	</g>
</g>
</g>

<g transform="translate(221, 37)">
<path fill="#FFFFFF" d="M12.2,3.8C11.1,2.7,9.7,2,8,2C4.7,2,2,4.7,2,8h2c0-2.2,1.8-4,4-4c1.1,0,2.1,0.5,2.8,1.2L9,7h5V2L12.2,3.8z" xmlns="http://www.w3.org/2000/svg" />
<path fill="#FFFFFF" d="M8,12c-1.1,0-2.1-0.5-2.8-1.2L7,9H2v5l1.8-1.8C4.9,13.3,6.3,14,8,14c3.3,0,6-2.7,6-6h-2C12,10.2,10.2,12,8,12&#xD;&#xA;	z" xmlns="http://www.w3.org/2000/svg" />
<rect x="0.2" y="7.3" transform="matrix(0.7071 0.7071 -0.7071 0.7071 8 -3.3137)" fill="#FFFFFF" width="15.6" height="1.4" xmlns="http://www.w3.org/2000/svg" />
</g>

<g transform="translate(0, 91)">
<path fill="#FFFFFF" d="M12.2,3.8C11.1,2.7,9.7,2,8,2C4.7,2,2,4.7,2,8h2c0-2.2,1.8-4,4-4c1.1,0,2.1,0.5,2.8,1.2L9,7h5V2L12.2,3.8z" xmlns="http://www.w3.org/2000/svg" />
<path fill="#FFFFFF" d="M8,12c-1.1,0-2.1-0.5-2.8-1.2L7,9H2v5l1.8-1.8C4.9,13.3,6.3,14,8,14c3.3,0,6-2.7,6-6h-2C12,10.2,10.2,12,8,12&#xD;&#xA;	z" xmlns="http://www.w3.org/2000/svg" />
</g>

<g transform="translate(119, 91)">
<path fill="#FFFFFF" d="M14,10c-1.1,0-2-0.9-2-2V6c0-1.9-1.3-3.4-3-3.9C9,2.1,9,2,9,2c0-0.6-0.4-1-1-1S7,1.4,7,2c0,0,0,0.1,0,0.1&#xD;&#xA;	C5.3,2.6,4,4.1,4,6v2c0,1.1-0.9,2-2,2h0v2h12L14,10L14,10z" xmlns="http://www.w3.org/2000/svg" />
<path fill="#FFFFFF" d="M8,15L8,15c-1.1,0-2-0.9-2-2v0h4v0C10,14.1,9.1,15,8,15z" xmlns="http://www.w3.org/2000/svg" />
</g>

<g transform="translate(153, 91)">
<polygon fill="#FFFFFF" points="1,8 9,15 9,11 15,11 15,5 9,5 9,1 " xmlns="http://www.w3.org/2000/svg" />
</g>

<g transform="translate(85, 91)">
<circle fill="#DEDEDE" cx="8" cy="2" r="2" xmlns="http://www.w3.org/2000/svg" />
<circle fill="#DEDEDE" cx="8" cy="8" r="2" xmlns="http://www.w3.org/2000/svg" />
<circle fill="#DEDEDE" cx="8" cy="14" r="2" xmlns="http://www.w3.org/2000/svg" />
</g>

<g transform="translate(221, 74)">
<circle fill="#DEDEDE" cx="8" cy="2" r="2" xmlns="http://www.w3.org/2000/svg" />
<circle fill="#DEDEDE" cx="8" cy="8" r="2" xmlns="http://www.w3.org/2000/svg" />
<circle fill="#DEDEDE" cx="8" cy="14" r="2" xmlns="http://www.w3.org/2000/svg" />
</g>

<g transform="translate(139, 0)">
<g xmlns="http://www.w3.org/2000/svg">
	<path fill="#7F7F7F" d="M44.7,36.7L26.7,4.6C26.2,3.6,25.2,3,24.1,3C23,3,22,3.6,21.5,4.5L3.6,36.4c0,0.1-0.6,1-0.6,1.6&#xD;&#xA;		c0,1.7,1.3,3,3,3h36c1.7,0,3-1.3,3-3C45,37.4,44.9,37,44.7,36.7z M42,39H6c-0.6,0-1.1-0.5-1-1C5.1,37.4,23.3,5.4,23.3,5.4&#xD;&#xA;		C23.4,5.2,23.8,5,24.1,5s0.7,0.2,0.8,0.5l18,31.9C43,37.6,43,37.8,43,38C43,38.6,42.6,39,42,39z" />
	<path fill="#7F7F7F" d="M24,13c-1.1,0-2,0.9-2,2l1,15h2l1-15C26,13.9,25.1,13,24,13z" />
	<circle fill="#7F7F7F" cx="24" cy="34" r="2" />
</g>
</g>


</svg>


